<svg width="83" height="88" viewBox="0 0 83 88" fill="none" xmlns="http://www.w3.org/2000/svg">
<path fill-rule="evenodd" clip-rule="evenodd" d="M15.5505 1.47152C15.5033 1.51884 15.4639 1.55804 15.4142 1.60781C15.1577 1.57918 14.8927 1.53813 14.6263 1.52313C14.3627 1.50843 14.0975 1.51991 13.833 1.51991C13.6243 1.51991 13.396 1.46677 13.2119 1.53415C13.0073 1.60919 12.7839 1.5314 12.6228 1.61807C12.4357 1.71884 12.2103 1.60414 12.0577 1.7706C11.7415 1.73951 11.479 1.9346 11.187 1.98055C10.8585 2.03215 10.5639 2.16017 10.2624 2.27503C9.91398 2.40779 9.55426 2.50856 9.22027 2.68405C8.98229 2.80901 8.72564 2.90411 8.47878 3.00977C8.03959 3.19782 7.6618 3.4701 7.27789 3.73671C7.06763 3.8825 6.88509 4.06779 6.68954 4.23456C6.5047 4.39259 6.29812 4.53103 6.13748 4.7105C5.5695 5.34571 4.96676 5.95673 4.59831 6.74369C4.34502 6.97095 4.24304 7.29682 4.11578 7.58809C3.98852 7.87935 3.7994 8.15607 3.76617 8.48684C3.48746 8.94579 3.37705 9.47074 3.22453 9.97303C3.10431 10.3686 2.92622 10.7598 2.93096 11.1892C2.77951 11.3143 2.86588 11.5116 2.78349 11.6724C2.69988 11.8356 2.64705 12.0445 2.6763 12.2551C2.70402 12.4549 2.56068 12.6342 2.5907 12.8472C2.61627 13.0299 2.58794 13.2123 2.52561 13.4004C2.46512 13.5823 2.53296 13.7978 2.43741 13.9918C2.41428 14.0386 2.49958 14.1304 2.50846 14.2046C2.51459 14.2561 2.44185 14.3371 2.46114 14.3636C2.574 14.5181 2.47875 14.687 2.51367 14.8153C2.45839 14.9189 2.41535 14.9991 2.35303 15.1156C2.4031 15.1423 2.47232 15.1794 2.53465 15.2126C2.53465 15.7634 2.53404 16.2744 2.5371 16.7853C2.53725 16.805 2.574 16.8246 2.59422 16.8449C2.56727 16.8744 2.54031 16.9041 2.51336 16.9338C2.58212 17.2003 2.68656 17.4568 2.68549 17.7415C2.68487 17.8969 2.72591 18.0551 2.76604 18.2075C2.84919 18.5226 2.91611 18.8438 2.97491 19.1617C3.04138 19.5203 3.2305 19.812 3.37873 20.1243C3.52483 20.4325 3.7262 20.7036 4.0412 20.8923C4.4758 21.1524 4.90106 21.4305 5.36001 21.6438C5.5793 21.7457 5.82003 21.8212 6.03902 21.918C6.26841 22.0192 6.51282 22.0631 6.74222 22.1307C6.94635 22.1905 7.18585 22.2124 7.41158 22.2327C7.59733 22.2493 7.77864 22.2362 7.96516 22.3091C8.13193 22.3742 8.34509 22.2611 8.51217 22.4013C8.52028 22.4081 8.53927 22.4022 8.55321 22.4022C9.23895 22.3974 9.92408 22.5815 10.6045 22.4732C11.0645 22.4002 11.5489 22.3948 11.9778 22.1676C12.6421 22.0841 13.2168 21.7201 13.8588 21.5668C14.0346 21.4002 14.2833 21.3815 14.4831 21.2575C14.6787 21.136 14.9053 21.0661 15.1084 20.9553C15.8261 20.5641 16.5474 20.1791 17.2328 19.7313C17.3663 19.644 17.4611 19.5175 17.6123 19.4411C17.7997 19.3463 17.9582 19.1856 18.1117 19.0353C18.255 18.8947 18.4068 18.765 18.5064 18.575C18.6045 18.3879 18.7916 18.2592 18.923 18.0822C19.2294 17.6693 19.5539 17.2654 19.7568 16.7951C19.883 16.5029 20.0038 16.2008 20.1113 15.8971C20.215 15.604 20.251 15.2948 20.3742 15.0049C20.4698 14.7807 20.4464 14.5052 20.4713 14.2521C20.5018 13.9437 20.5389 13.6354 20.5525 13.3263C20.5664 13.0067 20.5746 12.6846 20.5502 12.3664C20.526 12.0514 20.4811 11.7378 20.4092 11.4263C20.3681 11.2494 20.3217 11.0641 20.3113 10.8827C20.2952 10.5984 20.1785 10.3531 20.0727 10.1021C19.8626 9.60336 19.5576 9.16876 19.2326 8.73339C18.8738 8.2527 18.3585 7.95898 17.9758 7.51535C17.816 7.33021 17.5869 7.19545 17.3697 7.07232C17.2045 6.97845 17.0045 6.95931 16.8259 6.87386C16.6069 6.76911 16.3595 6.7244 16.1247 6.65227C16.1005 6.64492 16.0802 6.61889 16.0566 6.61659C15.7621 6.58658 15.4675 6.55671 15.1725 6.53313C15.0618 6.52425 14.9479 6.51889 14.8391 6.53558C14.7479 6.54967 14.6672 6.39944 14.5765 6.52501C14.4298 6.41215 14.2949 6.57984 14.1398 6.53987C14.0035 6.5048 13.8591 6.5509 13.7125 6.60235C13.545 6.66115 13.3421 6.59622 13.1655 6.69607C13.0562 6.75794 12.932 6.79346 12.8072 6.84384C12.7726 6.80924 12.7234 6.75993 12.6724 6.70908C12.6553 6.72195 12.6219 6.73604 12.6228 6.74783C12.6321 6.88228 12.5894 6.96926 12.4583 7.03726C12.2274 7.15716 12.0106 7.30417 11.7746 7.44781C11.7345 7.42484 11.6787 7.39314 11.5769 7.33495C11.5606 7.39942 11.5421 7.47278 11.5283 7.52775C11.5086 7.5181 11.5619 7.54398 11.6282 7.57599C11.4256 7.77491 11.2248 7.96572 11.0314 8.16357C10.5737 8.63186 10.1912 9.15651 9.87967 9.7323C9.71995 10.0277 9.54844 10.3184 9.41108 10.624C9.24247 10.9989 9.06912 11.3719 8.93834 11.7647C8.84447 12.0465 8.74156 12.324 8.65351 12.6084C8.59884 12.7849 8.63069 12.9652 8.54494 13.1474C8.44249 13.3651 8.50344 13.6538 8.4356 13.8955C8.35643 14.1777 8.36929 14.4572 8.35658 14.74C8.35275 14.827 8.30467 14.912 8.27572 15.0014C8.30145 15.0304 8.32856 15.0607 8.35597 15.0915C8.33973 15.1098 8.32228 15.1294 8.30834 15.1454C8.32595 15.2587 8.35765 15.3686 8.35765 15.4787C8.3575 15.8011 8.44188 16.1055 8.52625 16.4119C8.65918 16.8937 8.99255 17.2095 9.4296 17.3813C9.94215 17.5827 10.4841 17.6775 11.0389 17.7456C11.4913 17.801 11.9375 17.7726 12.3799 17.8138C12.5876 17.6663 12.834 17.6136 13.0467 17.4854C13.118 17.4424 13.2102 17.4182 13.284 17.3562C13.5922 17.0962 13.9292 16.8744 14.2281 16.5985C14.3618 16.475 14.518 16.3606 14.6543 16.2316C15.0831 15.8259 15.3508 15.3199 15.5425 14.77C15.6064 14.5872 15.6192 14.3758 15.7203 14.2195C15.8374 14.0382 15.7158 13.81 15.878 13.6561C15.9057 13.3198 15.965 12.982 15.9508 12.6472C15.9408 12.4103 15.8554 12.1751 15.8765 11.9297C15.8812 11.8756 15.593 11.2151 15.529 11.1572C15.39 11.0314 15.2391 10.9186 15.0933 10.8004C14.9488 10.8788 14.8332 10.6836 14.6581 10.7788C14.5137 10.8574 14.2947 10.8716 14.1335 10.8266C13.9513 10.7758 14.0755 10.9216 14.0142 10.9507C13.5193 11.1857 13.2033 11.6497 12.7577 11.9502C12.736 11.9647 12.7214 11.9901 12.7438 11.9647C12.6923 12.1436 12.6902 12.2967 12.6139 12.3884C12.3908 12.6572 12.341 13.0036 12.17 13.2935C12.1323 13.3575 12.1305 13.4449 12.1201 13.5224C12.0974 13.6929 12.1733 13.876 12.0397 14.034C12.0121 14.0665 12.025 14.1446 12.0377 14.1971C12.0738 14.3457 12.1196 14.4918 12.1692 14.6656C12.7141 14.2948 12.9141 13.6791 13.3079 13.2218L13.6124 13.2218C13.5525 13.3538 13.4981 13.4736 13.4085 13.6707C13.5361 13.6161 13.598 13.6047 13.6393 13.5691C13.7338 13.4875 13.8183 13.3941 13.9117 13.3007C14.0356 13.3835 14.1021 13.5227 14.2179 13.6197C14.326 13.7099 14.3611 13.8876 14.4624 14.0978C14.4664 14.4092 14.2038 14.7196 14.1238 15.087C13.9732 15.1864 13.8032 15.2452 13.7771 15.4829C13.7617 15.6238 13.6212 15.7509 13.5577 15.8512C13.3788 15.9308 13.2341 15.8591 13.0844 15.9487C12.8746 16.0743 12.6502 15.8504 12.42 15.8868C12.0952 15.6718 11.7086 15.5891 11.377 15.3735C11.1277 15.2114 10.9723 14.9899 10.8048 14.772C10.6887 14.621 10.6334 14.4249 10.5307 14.2618C10.429 14.1007 10.429 13.9095 10.3833 13.7402C10.3135 13.4805 10.3206 13.1791 10.3757 12.912C10.4539 12.5347 10.5227 12.15 10.6957 11.7938C10.9117 11.3493 11.1852 10.9477 11.5263 10.5941C11.8458 10.2631 12.1672 9.93735 12.5735 9.69968C12.8367 9.54578 13.1308 9.49724 13.4 9.3732C13.526 9.315 13.6424 9.46171 13.7951 9.38269C13.9049 9.32603 14.0689 9.36079 14.2067 9.37457C14.3496 9.38912 14.5414 9.37947 14.6212 9.46492C14.7995 9.65589 15.1102 9.547 15.2468 9.78467C15.5129 9.78513 15.677 9.98206 15.854 10.1283C16.3062 10.5021 16.7783 10.866 16.9929 11.4474C17.0241 11.5321 17.0521 11.6177 17.0814 11.7019C17.1198 11.7105 17.1578 11.7189 17.1919 11.7266C17.2538 11.9581 17.3138 12.1834 17.3755 12.4143C17.3651 12.4278 17.3486 12.4488 17.3184 12.4874C17.3691 12.5678 17.4253 12.657 17.4973 12.7713C17.3856 12.7889 17.3091 12.8011 17.2253 12.8145C17.2227 12.8563 17.2204 12.894 17.2172 12.9477L17.4037 12.9477C17.4308 12.9727 17.4409 12.982 17.451 12.9912C17.3353 13.097 17.5225 13.1935 17.4636 13.291C17.3255 13.5195 17.4103 13.7703 17.3784 14.0086C17.3543 14.189 17.3158 14.3705 17.2573 14.5425C17.2203 14.6516 17.1347 14.7441 17.0716 14.8431C17.2435 15.0968 16.9215 15.346 17.0308 15.6198C16.9999 15.6262 16.9619 15.6342 16.9195 15.6431C16.8366 15.8236 16.7506 16.011 16.6285 16.2767L16.6285 16.5564C16.5357 16.7799 16.4298 16.9462 16.2155 17.0072L16.2155 17.1914C15.986 17.4167 15.7648 17.672 15.5021 17.8724C15.3978 17.952 15.2956 18.0387 15.1901 18.1188C15.0956 18.1908 14.9846 18.245 14.9027 18.3284C14.629 18.6068 14.2823 18.7727 13.9434 18.9405C13.4687 19.1758 12.7905 19.2802 12.268 19.2232C12.0776 19.2025 11.8931 19.1274 11.6838 19.0712C11.6383 19.0888 11.5562 19.1548 11.4959 19.1387C10.8326 18.9626 10.1503 18.8805 9.50587 18.6013C9.02578 18.3932 8.5604 18.1646 8.14556 17.8635C7.84311 17.6442 7.57421 17.3589 7.3638 17.0282C7.11924 16.6436 6.87192 16.2651 6.74742 15.8208C6.73716 15.7845 6.6975 15.755 6.69168 15.7192C6.65968 15.5225 6.6142 15.3254 6.61006 15.1277C6.59888 14.585 6.58142 14.0405 6.61573 13.4998C6.63564 13.1886 6.70347 12.8742 6.75615 12.5633C6.80699 12.2639 6.87728 11.9708 6.93395 11.6739C6.9978 11.3392 7.12659 11.0284 7.23654 10.7116C7.3249 10.4574 7.40377 10.1883 7.53562 9.96078C7.76302 9.56798 7.9131 9.14012 8.15903 8.75207C8.39471 8.38011 8.61461 7.9942 8.86316 7.62805C8.98965 7.44138 9.11476 7.24828 9.27188 7.08901C9.65717 6.69836 10.015 6.27464 10.4751 5.96546C10.8731 5.69808 11.262 5.43009 11.7291 5.2621C12.194 5.09503 12.6522 4.97145 13.1416 4.94143C13.2288 4.93607 13.3136 4.88891 13.4038 4.85966C13.4324 4.88477 13.4631 4.91127 13.4943 4.93852C13.5122 4.92352 13.5318 4.90728 13.5531 4.88967C13.6332 4.90774 13.7223 4.91173 13.7951 4.94817C13.896 4.99886 13.9491 4.83087 14.075 4.91969C14.1595 4.97941 14.3143 4.93653 14.4373 4.94572C14.5418 4.95338 14.6626 4.90039 14.7408 5.01877C14.8606 4.84174 14.9695 5.05261 15.0852 5.02857C15.2381 4.99672 15.3708 5.06792 15.5106 5.10973C15.6354 5.14694 15.7653 5.16731 15.8929 5.19518C16.0206 5.22305 16.1627 5.22412 16.2734 5.28339C16.7406 5.53331 17.3005 5.61064 17.6731 6.02671C17.9559 6.01844 18.1313 6.22502 18.3317 6.36147C19.0495 6.85028 19.6513 7.47354 20.2384 8.10431C20.8133 8.72191 21.2935 9.4196 21.5918 10.213C21.7502 10.6338 21.9292 11.0523 21.9883 11.5143C22.0261 11.8107 22.1125 12.1074 22.1372 12.4076C22.162 12.7117 22.1425 13.0195 22.1425 13.3258C22.1425 13.5485 22.1447 13.7713 22.1421 13.9939C22.1395 14.2201 22.1575 14.4396 22.0148 14.6535C21.9327 14.7765 21.9529 14.9677 21.9271 15.1284C22.0871 15.2164 21.7849 15.3729 21.9669 15.4527C21.8483 15.6832 21.73 15.9129 21.6107 16.1449C21.5709 16.1087 21.5439 16.0754 21.5091 16.0562C21.4888 16.045 21.4559 16.0565 21.4139 16.0584C21.3856 16.1611 21.5053 16.1709 21.5441 16.2708L21.5441 16.6107C21.5068 16.6479 21.4577 16.6972 21.3981 16.7568C21.4177 16.7824 21.4387 16.8095 21.4626 16.8404C21.2862 17.0178 21.2641 17.2761 21.141 17.4853C21.0015 17.7222 20.8771 17.9697 20.6821 18.1405C20.5465 18.1044 20.4387 18.0758 20.3309 18.0471C20.3242 18.0672 20.3174 18.0873 20.3107 18.1073C20.3608 18.1291 20.4108 18.151 20.4908 18.1857C20.4151 18.2376 20.3493 18.2827 20.2836 18.3277C20.2935 18.3465 20.3035 18.3654 20.3135 18.384C20.3791 18.3693 20.445 18.3548 20.5361 18.3343C20.5424 18.3843 20.5513 18.4549 20.5606 18.5289C20.5004 18.551 20.4522 18.5686 20.3818 18.5943C20.3992 18.6765 20.4171 18.762 20.4438 18.8885C20.3473 18.9434 20.2173 19.018 20.068 19.1033C20.0063 19.2425 19.9332 19.407 19.8603 19.5711C19.8727 19.5787 19.8853 19.5862 19.8978 19.5934C19.594 19.8972 19.3113 20.2264 18.9812 20.4981C18.5849 20.8241 18.1584 21.1172 17.7265 21.3961C17.1143 21.7916 16.4873 22.1644 15.861 22.5375C15.7867 22.5818 15.6777 22.5676 15.5659 22.5832C15.427 22.8359 15.1223 22.87 14.8866 23.0084C14.6666 23.1377 14.4179 23.2187 14.1715 23.3254C14.1442 23.2706 14.1168 23.2155 14.0889 23.1594C13.9514 23.4946 13.601 23.4995 13.3249 23.6346C13.288 23.6139 13.2346 23.5841 13.1609 23.5426C13.139 23.6136 13.1246 23.6611 13.1101 23.7083C13.1003 23.7182 13.087 23.7384 13.081 23.7363C12.9093 23.6799 12.7643 23.7891 12.6165 23.83C11.9093 24.0269 11.1881 23.9634 10.4708 23.996C9.91949 24.021 9.38045 23.9216 8.83528 23.8933C8.62794 23.8825 8.40221 23.8623 8.20559 23.8066C8.00253 23.749 7.80069 23.7807 7.61157 23.7305C7.37191 23.6669 7.13226 23.6106 6.89076 23.5553C6.62782 23.4953 6.36703 23.4158 6.11145 23.323C5.85694 23.2305 5.594 23.1611 5.3398 23.0683C5.0862 22.9758 4.84226 22.857 4.5879 22.7669C3.84549 22.5042 3.221 22.0301 2.54782 21.6431C2.24124 21.2912 1.87463 21.0004 1.58306 20.6272C1.3532 20.3333 1.15581 20.0204 0.96347 19.7084C0.755971 19.3716 0.619833 18.9892 0.508962 18.6042C0.392425 18.2003 0.284771 17.7949 0.255062 17.3721C0.246946 17.2571 0.198708 17.1453 0.175585 17.0306C0.152155 16.9153 0.226273 16.7796 0.0991698 16.6847C0.084775 16.674 0.092738 16.6329 0.0910536 16.6061C0.0631828 16.1305 0.0241331 15.6551 0.010504 15.179C-0.00343132 14.6922 0.00545063 14.2048 0.0106573 13.7177C0.0112698 13.6728 0.0578233 13.6285 0.0830907 13.584C0.0593546 13.5573 0.0322495 13.527 -6.22146e-05 13.4907C0.0301056 13.4203 0.0936571 13.3454 0.0855409 13.2792C0.035006 12.8658 0.191664 12.4699 0.17681 12.0603C0.173135 11.9568 0.131329 11.8349 0.251847 11.7584C0.121987 11.6678 0.271908 11.5863 0.263639 11.4957C0.254144 11.3938 0.243731 11.2931 0.312948 11.1831C0.401767 11.0418 0.285843 10.8332 0.425044 10.6885C0.426882 10.2465 0.633309 9.85465 0.727794 9.43629C0.800228 9.11577 0.920746 8.82298 1.05045 8.52467C1.15734 8.27919 1.21661 8.01212 1.31232 7.75684C1.53926 7.1518 1.81843 6.57203 2.10418 5.99715C2.29438 5.61477 2.57982 5.28155 2.77186 4.89503C3.02377 4.77543 3.07369 4.48861 3.25592 4.30209C3.44229 4.11159 3.60951 3.89291 3.80047 3.6998C3.99618 3.50195 4.18668 3.29813 4.39234 3.11084C4.72802 2.80472 5.11086 2.55358 5.4545 2.26094C5.80166 1.96523 6.20303 1.7683 6.57944 1.53201C6.93456 1.30904 7.34251 1.15499 7.74557 1.02926C8.02933 0.940903 8.29426 0.804153 8.58889 0.740907C8.95488 0.662502 9.30985 0.533867 9.67217 0.43632C9.82409 0.395279 10.021 0.426213 10.129 0.339231C10.2905 0.209219 10.481 0.341835 10.6268 0.217947C10.7541 0.109986 10.9607 0.271086 11.0793 0.100798C11.0839 0.0942134 11.1063 0.0978887 11.1198 0.100186C11.4637 0.1619 11.7874 -0.00210917 12.1294 0.0132045C12.4628 0.0280587 12.8069 -0.0336551 13.1292 0.0279056C13.6496 0.127291 14.1917 0.132804 14.6764 0.424375C15.0413 0.643973 15.3503 0.884856 15.5137 1.28347C15.5384 1.3435 15.5396 1.41287 15.5505 1.47152Z" fill="white"/>
<path fill-rule="evenodd" clip-rule="evenodd" d="M45.5505 33.4715C45.5033 33.5188 45.4639 33.558 45.4142 33.6078C45.1577 33.5792 44.8927 33.5381 44.6263 33.5231C44.3627 33.5084 44.0975 33.5199 43.833 33.5199C43.6243 33.5199 43.396 33.4668 43.2119 33.5342C43.0073 33.6092 42.7839 33.5314 42.6228 33.6181C42.4357 33.7188 42.2103 33.6041 42.0577 33.7706C41.7415 33.7395 41.479 33.9346 41.187 33.9805C40.8585 34.0322 40.5639 34.1602 40.2624 34.275C39.914 34.4078 39.5543 34.5086 39.2203 34.6841C38.9823 34.809 38.7256 34.9041 38.4788 35.0098C38.0396 35.1978 37.6618 35.4701 37.2779 35.7367C37.0676 35.8825 36.8851 36.0678 36.6895 36.2346C36.5047 36.3926 36.2981 36.531 36.1375 36.7105C35.5695 37.3457 34.9668 37.9567 34.5983 38.7437C34.345 38.9709 34.243 39.2968 34.1158 39.5881C33.9885 39.8794 33.7994 40.1561 33.7662 40.4868C33.4875 40.9458 33.3771 41.4707 33.2245 41.973C33.1043 42.3686 32.9262 42.7598 32.931 43.1892C32.7795 43.3143 32.8659 43.5116 32.7835 43.6724C32.6999 43.8356 32.6471 44.0445 32.6763 44.2551C32.704 44.4549 32.5607 44.6342 32.5907 44.8472C32.6163 45.0299 32.5879 45.2123 32.5256 45.4004C32.4651 45.5823 32.533 45.7978 32.4374 45.9918C32.4143 46.0386 32.4996 46.1304 32.5085 46.2046C32.5146 46.2561 32.4418 46.3371 32.4611 46.3636C32.574 46.5181 32.4788 46.687 32.5137 46.8153C32.4584 46.9189 32.4154 46.9991 32.353 47.1156C32.4031 47.1423 32.4723 47.1794 32.5346 47.2126C32.5346 47.7634 32.534 48.2744 32.5371 48.7853C32.5373 48.805 32.574 48.8246 32.5942 48.8449C32.5673 48.8744 32.5403 48.9041 32.5134 48.9338C32.5821 49.2003 32.6866 49.4568 32.6855 49.7415C32.6849 49.8969 32.7259 50.0551 32.766 50.2075C32.8492 50.5226 32.9161 50.8438 32.9749 51.1617C33.0414 51.5203 33.2305 51.812 33.3787 52.1243C33.5248 52.4325 33.7262 52.7036 34.0412 52.8923C34.4758 53.1524 34.9011 53.4305 35.36 53.6438C35.5793 53.7457 35.82 53.8212 36.039 53.918C36.2684 54.0192 36.5128 54.0631 36.7422 54.1307C36.9463 54.1905 37.1859 54.2124 37.4116 54.2327C37.5973 54.2493 37.7786 54.2362 37.9652 54.3091C38.1319 54.3742 38.3451 54.2611 38.5122 54.4013C38.5203 54.4081 38.5393 54.4022 38.5532 54.4022C39.2389 54.3974 39.9241 54.5815 40.6045 54.4732C41.0645 54.4002 41.5489 54.3948 41.9778 54.1676C42.6421 54.0841 43.2168 53.7201 43.8588 53.5668C44.0346 53.4002 44.2833 53.3815 44.4831 53.2575C44.6787 53.136 44.9053 53.0661 45.1084 52.9553C45.8261 52.5641 46.5474 52.1791 47.2328 51.7313C47.3663 51.644 47.4611 51.5175 47.6123 51.4411C47.7997 51.3463 47.9582 51.1856 48.1117 51.0353C48.255 50.8947 48.4068 50.765 48.5064 50.575C48.6045 50.3879 48.7916 50.2592 48.923 50.0822C49.2294 49.6693 49.5539 49.2654 49.7568 48.7951C49.883 48.5029 50.0038 48.2008 50.1113 47.8971C50.215 47.604 50.251 47.2948 50.3742 47.0049C50.4698 46.7807 50.4464 46.5052 50.4713 46.2521C50.5018 45.9437 50.5389 45.6354 50.5525 45.3263C50.5664 45.0067 50.5746 44.6846 50.5502 44.3664C50.526 44.0514 50.4811 43.7378 50.4092 43.4263C50.3681 43.2494 50.3217 43.0641 50.3113 42.8827C50.2952 42.5984 50.1785 42.3531 50.0727 42.1021C49.8626 41.6034 49.5576 41.1688 49.2326 40.7334C48.8738 40.2527 48.3585 39.959 47.9758 39.5153C47.816 39.3302 47.5869 39.1954 47.3697 39.0723C47.2045 38.9785 47.0045 38.9593 46.8259 38.8739C46.6069 38.7691 46.3595 38.7244 46.1247 38.6523C46.1005 38.6449 46.0802 38.6189 46.0566 38.6166C45.7621 38.5866 45.4675 38.5567 45.1725 38.5331C45.0618 38.5242 44.9479 38.5189 44.8391 38.5356C44.7479 38.5497 44.6672 38.3994 44.5765 38.525C44.4298 38.4122 44.2949 38.5798 44.1398 38.5399C44.0035 38.5048 43.8591 38.5509 43.7125 38.6023C43.545 38.6612 43.3421 38.5962 43.1655 38.6961C43.0562 38.7579 42.932 38.7935 42.8072 38.8438C42.7726 38.8092 42.7234 38.7599 42.6724 38.7091C42.6553 38.7219 42.6219 38.736 42.6228 38.7478C42.6321 38.8823 42.5894 38.9693 42.4583 39.0373C42.2274 39.1572 42.0106 39.3042 41.7746 39.4478C41.7345 39.4248 41.6787 39.3931 41.5769 39.335C41.5606 39.3994 41.5421 39.4728 41.5283 39.5278C41.5086 39.5181 41.5619 39.544 41.6282 39.576C41.4256 39.7749 41.2248 39.9657 41.0314 40.1636C40.5737 40.6319 40.1912 41.1565 39.8797 41.7323C39.72 42.0277 39.5484 42.3184 39.4111 42.624C39.2425 42.9989 39.0691 43.3719 38.9383 43.7647C38.8445 44.0465 38.7416 44.324 38.6535 44.6084C38.5988 44.7849 38.6307 44.9652 38.5449 45.1474C38.4425 45.3651 38.5034 45.6538 38.4356 45.8955C38.3564 46.1777 38.3693 46.4572 38.3566 46.74C38.3528 46.827 38.3047 46.912 38.2757 47.0014C38.3015 47.0304 38.3286 47.0607 38.356 47.0915C38.3397 47.1098 38.3223 47.1294 38.3083 47.1454C38.326 47.2587 38.3577 47.3686 38.3577 47.4787C38.3575 47.8011 38.4419 48.1055 38.5263 48.4119C38.6592 48.8937 38.9926 49.2095 39.4296 49.3813C39.9422 49.5827 40.4841 49.6775 41.0389 49.7456C41.4913 49.801 41.9375 49.7726 42.3799 49.8138C42.5876 49.6663 42.834 49.6136 43.0467 49.4854C43.118 49.4424 43.2102 49.4182 43.284 49.3562C43.5922 49.0962 43.9292 48.8744 44.2281 48.5985C44.3618 48.475 44.518 48.3606 44.6543 48.2316C45.0831 47.8259 45.3508 47.3199 45.5425 46.77C45.6064 46.5872 45.6192 46.3758 45.7203 46.2195C45.8374 46.0382 45.7158 45.81 45.878 45.6561C45.9057 45.3198 45.965 44.982 45.9508 44.6472C45.9408 44.4103 45.8554 44.1751 45.8765 43.9297C45.8812 43.8756 45.593 43.2151 45.529 43.1572C45.39 43.0314 45.2391 42.9186 45.0933 42.8004C44.9488 42.8788 44.8332 42.6836 44.6581 42.7788C44.5137 42.8574 44.2947 42.8716 44.1335 42.8266C43.9513 42.7758 44.0755 42.9216 44.0142 42.9507C43.5193 43.1857 43.2033 43.6497 42.7577 43.9502C42.736 43.9647 42.7214 43.9901 42.7438 43.9647C42.6923 44.1436 42.6902 44.2967 42.6139 44.3884C42.3908 44.6572 42.341 45.0036 42.17 45.2935C42.1323 45.3575 42.1305 45.4449 42.1201 45.5224C42.0974 45.6929 42.1733 45.876 42.0397 46.034C42.0121 46.0665 42.025 46.1446 42.0377 46.1971C42.0738 46.3457 42.1196 46.4918 42.1692 46.6656C42.7141 46.2948 42.9141 45.6791 43.3079 45.2218L43.6124 45.2218C43.5525 45.3538 43.4981 45.4736 43.4085 45.6707C43.5361 45.6161 43.598 45.6047 43.6393 45.5691C43.7338 45.4875 43.8183 45.3941 43.9117 45.3007C44.0356 45.3835 44.1021 45.5227 44.2179 45.6197C44.326 45.7099 44.3611 45.8876 44.4624 46.0978C44.4664 46.4092 44.2038 46.7196 44.1238 47.087C43.9732 47.1864 43.8032 47.2452 43.7771 47.4829C43.7617 47.6238 43.6212 47.7509 43.5577 47.8512C43.3788 47.9308 43.2341 47.8591 43.0844 47.9487C42.8746 48.0743 42.6502 47.8504 42.42 47.8868C42.0952 47.6718 41.7086 47.5891 41.377 47.3735C41.1277 47.2114 40.9723 46.9899 40.8048 46.772C40.6887 46.621 40.6334 46.4249 40.5307 46.2618C40.429 46.1007 40.429 45.9095 40.3833 45.7402C40.3135 45.4805 40.3206 45.1791 40.3757 44.912C40.4539 44.5347 40.5227 44.15 40.6957 43.7938C40.9117 43.3493 41.1852 42.9477 41.5263 42.5941C41.8458 42.2631 42.1672 41.9373 42.5735 41.6997C42.8367 41.5458 43.1308 41.4972 43.4 41.3732C43.526 41.315 43.6424 41.4617 43.7951 41.3827C43.9049 41.326 44.0689 41.3608 44.2067 41.3746C44.3496 41.3891 44.5414 41.3795 44.6212 41.4649C44.7995 41.6559 45.1102 41.547 45.2468 41.7847C45.5129 41.7851 45.677 41.9821 45.854 42.1283C46.3062 42.5021 46.7783 42.866 46.9929 43.4474C47.0241 43.5321 47.0521 43.6177 47.0814 43.7019C47.1198 43.7105 47.1578 43.7189 47.1919 43.7266C47.2538 43.9581 47.3138 44.1834 47.3755 44.4143C47.3651 44.4278 47.3486 44.4488 47.3184 44.4874C47.3691 44.5678 47.4253 44.657 47.4973 44.7713C47.3856 44.7889 47.3091 44.8011 47.2253 44.8145C47.2227 44.8563 47.2204 44.894 47.2172 44.9477L47.4037 44.9477C47.4308 44.9727 47.4409 44.982 47.451 44.9912C47.3353 45.097 47.5225 45.1935 47.4636 45.291C47.3255 45.5195 47.4103 45.7703 47.3784 46.0086C47.3543 46.189 47.3158 46.3705 47.2573 46.5425C47.2203 46.6516 47.1347 46.7441 47.0716 46.8431C47.2435 47.0968 46.9215 47.346 47.0308 47.6198C46.9999 47.6262 46.9619 47.6342 46.9195 47.6431C46.8366 47.8236 46.7506 48.011 46.6285 48.2767L46.6285 48.5564C46.5357 48.7799 46.4298 48.9462 46.2155 49.0072L46.2155 49.1914C45.986 49.4167 45.7648 49.672 45.5021 49.8724C45.3978 49.952 45.2956 50.0387 45.1901 50.1188C45.0956 50.1908 44.9846 50.245 44.9027 50.3284C44.629 50.6068 44.2823 50.7727 43.9434 50.9405C43.4687 51.1758 42.7905 51.2802 42.268 51.2232C42.0776 51.2025 41.8931 51.1274 41.6838 51.0712C41.6383 51.0888 41.5562 51.1548 41.4959 51.1387C40.8326 50.9626 40.1503 50.8805 39.5059 50.6013C39.0258 50.3932 38.5604 50.1646 38.1456 49.8635C37.8431 49.6442 37.5742 49.3589 37.3638 49.0282C37.1192 48.6436 36.8719 48.2651 36.7474 47.8208C36.7372 47.7845 36.6975 47.755 36.6917 47.7192C36.6597 47.5225 36.6142 47.3254 36.6101 47.1277C36.5989 46.585 36.5814 46.0405 36.6157 45.4998C36.6356 45.1886 36.7035 44.8742 36.7562 44.5633C36.807 44.2639 36.8773 43.9708 36.9339 43.6739C36.9978 43.3392 37.1266 43.0284 37.2365 42.7116C37.3249 42.4574 37.4038 42.1883 37.5356 41.9608C37.763 41.568 37.9131 41.1401 38.159 40.7521C38.3947 40.3801 38.6146 39.9942 38.8632 39.6281C38.9896 39.4414 39.1148 39.2483 39.2719 39.089C39.6572 38.6984 40.015 38.2746 40.4751 37.9655C40.8731 37.6981 41.262 37.4301 41.7291 37.2621C42.194 37.095 42.6522 36.9714 43.1416 36.9414C43.2288 36.9361 43.3136 36.8889 43.4038 36.8597C43.4324 36.8848 43.4631 36.9113 43.4943 36.9385C43.5122 36.9235 43.5318 36.9073 43.5531 36.8897C43.6332 36.9077 43.7223 36.9117 43.7951 36.9482C43.896 36.9989 43.9491 36.8309 44.075 36.9197C44.1595 36.9794 44.3143 36.9365 44.4373 36.9457C44.5418 36.9534 44.6626 36.9004 44.7408 37.0188C44.8606 36.8417 44.9695 37.0526 45.0852 37.0286C45.2381 36.9967 45.3708 37.0679 45.5106 37.1097C45.6354 37.1469 45.7653 37.1673 45.8929 37.1952C46.0206 37.2231 46.1627 37.2241 46.2734 37.2834C46.7406 37.5333 47.3005 37.6106 47.6731 38.0267C47.9559 38.0184 48.1313 38.225 48.3317 38.3615C49.0495 38.8503 49.6513 39.4735 50.2384 40.1043C50.8133 40.7219 51.2935 41.4196 51.5918 42.213C51.7502 42.6338 51.9292 43.0523 51.9883 43.5143C52.0261 43.8107 52.1125 44.1074 52.1372 44.4076C52.162 44.7117 52.1425 45.0195 52.1425 45.3258C52.1425 45.5485 52.1447 45.7713 52.1421 45.9939C52.1395 46.2201 52.1575 46.4396 52.0148 46.6535C51.9327 46.7765 51.9529 46.9677 51.9271 47.1284C52.0871 47.2164 51.7849 47.3729 51.9669 47.4527C51.8483 47.6832 51.73 47.9129 51.6107 48.1449C51.5709 48.1087 51.5439 48.0754 51.5091 48.0562C51.4888 48.045 51.4559 48.0565 51.4139 48.0584C51.3856 48.1611 51.5053 48.1709 51.5441 48.2708L51.5441 48.6107C51.5068 48.6479 51.4577 48.6972 51.3981 48.7568C51.4177 48.7824 51.4387 48.8095 51.4626 48.8404C51.2862 49.0178 51.2641 49.2761 51.141 49.4853C51.0015 49.7222 50.8771 49.9697 50.6821 50.1405C50.5465 50.1044 50.4387 50.0758 50.3309 50.0471C50.3242 50.0672 50.3174 50.0873 50.3107 50.1073C50.3608 50.1291 50.4108 50.151 50.4908 50.1857C50.4151 50.2376 50.3493 50.2827 50.2836 50.3277C50.2935 50.3465 50.3035 50.3654 50.3135 50.384C50.3791 50.3693 50.445 50.3548 50.5361 50.3343C50.5424 50.3843 50.5513 50.4549 50.5606 50.5289C50.5004 50.551 50.4522 50.5686 50.3818 50.5943C50.3992 50.6765 50.4171 50.762 50.4438 50.8885C50.3473 50.9434 50.2173 51.018 50.068 51.1033C50.0063 51.2425 49.9332 51.407 49.8603 51.5711C49.8727 51.5787 49.8853 51.5862 49.8978 51.5934C49.594 51.8972 49.3113 52.2264 48.9812 52.4981C48.5849 52.8241 48.1584 53.1172 47.7265 53.3961C47.1143 53.7916 46.4873 54.1644 45.861 54.5375C45.7867 54.5818 45.6777 54.5676 45.5659 54.5832C45.427 54.8359 45.1223 54.87 44.8866 55.0084C44.6666 55.1377 44.4179 55.2187 44.1715 55.3254C44.1442 55.2706 44.1168 55.2155 44.0889 55.1594C43.9514 55.4946 43.601 55.4995 43.3249 55.6346C43.288 55.6139 43.2346 55.5841 43.1609 55.5426C43.139 55.6136 43.1246 55.6611 43.1101 55.7083C43.1003 55.7182 43.087 55.7384 43.081 55.7363C42.9093 55.6799 42.7643 55.7891 42.6165 55.83C41.9093 56.0269 41.1881 55.9634 40.4708 55.996C39.9195 56.021 39.3804 55.9216 38.8353 55.8933C38.6279 55.8825 38.4022 55.8623 38.2056 55.8066C38.0025 55.749 37.8007 55.7807 37.6116 55.7305C37.3719 55.6669 37.1323 55.6106 36.8908 55.5553C36.6278 55.4953 36.367 55.4158 36.1114 55.323C35.8569 55.2305 35.594 55.1611 35.3398 55.0683C35.0862 54.9758 34.8423 54.857 34.5879 54.7669C33.8455 54.5042 33.221 54.0301 32.5478 53.6431C32.2412 53.2912 31.8746 53.0004 31.5831 52.6272C31.3532 52.3333 31.1558 52.0204 30.9635 51.7084C30.756 51.3716 30.6198 50.9892 30.509 50.6042C30.3924 50.2003 30.2848 49.7949 30.2551 49.3721C30.2469 49.2571 30.1987 49.1453 30.1756 49.0306C30.1522 48.9153 30.2263 48.7796 30.0992 48.6847C30.0848 48.674 30.0927 48.6329 30.0911 48.6061C30.0632 48.1305 30.0241 47.6551 30.0105 47.179C29.9966 46.6922 30.0055 46.2048 30.0107 45.7177C30.0113 45.6728 30.0578 45.6285 30.0831 45.584C30.0594 45.5573 30.0322 45.527 29.9999 45.4907C30.0301 45.4203 30.0937 45.3454 30.0855 45.2792C30.035 44.8658 30.1917 44.4699 30.1768 44.0603C30.1731 43.9568 30.1313 43.8349 30.2518 43.7584C30.122 43.6678 30.2719 43.5863 30.2636 43.4957C30.2541 43.3938 30.2437 43.2931 30.3129 43.1831C30.4018 43.0418 30.2858 42.8332 30.425 42.6885C30.4269 42.2465 30.6333 41.8547 30.7278 41.4363C30.8002 41.1158 30.9207 40.823 31.0505 40.5247C31.1573 40.2792 31.2166 40.0121 31.3123 39.7568C31.5393 39.1518 31.8184 38.572 32.1042 37.9972C32.2944 37.6148 32.5798 37.2815 32.7719 36.895C33.0238 36.7754 33.0737 36.4886 33.2559 36.3021C33.4423 36.1116 33.6095 35.8929 33.8005 35.6998C33.9962 35.502 34.1867 35.2981 34.3923 35.1108C34.728 34.8047 35.1109 34.5536 35.4545 34.2609C35.8017 33.9652 36.203 33.7683 36.5794 33.532C36.9346 33.309 37.3425 33.155 37.7456 33.0293C38.0293 32.9409 38.2943 32.8042 38.5889 32.7409C38.9549 32.6625 39.3099 32.5339 39.6722 32.4363C39.8241 32.3953 40.021 32.4262 40.129 32.3392C40.2905 32.2092 40.481 32.3418 40.6268 32.2179C40.7541 32.11 40.9607 32.2711 41.0793 32.1008C41.0839 32.0942 41.1063 32.0979 41.1198 32.1002C41.4637 32.1619 41.7874 31.9979 42.1294 32.0132C42.4628 32.0281 42.8069 31.9663 43.1292 32.0279C43.6496 32.1273 44.1917 32.1328 44.6764 32.4244C45.0413 32.644 45.3503 32.8849 45.5137 33.2835C45.5384 33.3435 45.5396 33.4129 45.5505 33.4715Z" fill="white"/>
<path fill-rule="evenodd" clip-rule="evenodd" d="M15.5505 33.4715C15.5033 33.5188 15.4639 33.558 15.4142 33.6078C15.1577 33.5792 14.8927 33.5381 14.6263 33.5231C14.3627 33.5084 14.0975 33.5199 13.833 33.5199C13.6243 33.5199 13.396 33.4668 13.2119 33.5342C13.0073 33.6092 12.7839 33.5314 12.6228 33.6181C12.4357 33.7188 12.2103 33.6041 12.0577 33.7706C11.7415 33.7395 11.479 33.9346 11.187 33.9805C10.8585 34.0322 10.5639 34.1602 10.2624 34.275C9.91398 34.4078 9.55426 34.5086 9.22027 34.6841C8.98229 34.809 8.72564 34.9041 8.47878 35.0098C8.03959 35.1978 7.6618 35.4701 7.27789 35.7367C7.06763 35.8825 6.88509 36.0678 6.68954 36.2346C6.5047 36.3926 6.29812 36.531 6.13748 36.7105C5.5695 37.3457 4.96676 37.9567 4.59831 38.7437C4.34502 38.9709 4.24304 39.2968 4.11578 39.5881C3.98852 39.8794 3.7994 40.1561 3.76617 40.4868C3.48746 40.9458 3.37705 41.4707 3.22453 41.973C3.10431 42.3686 2.92622 42.7598 2.93096 43.1892C2.77951 43.3143 2.86588 43.5116 2.78349 43.6724C2.69988 43.8356 2.64705 44.0445 2.6763 44.2551C2.70402 44.4549 2.56068 44.6342 2.5907 44.8472C2.61627 45.0299 2.58794 45.2123 2.52561 45.4004C2.46512 45.5823 2.53296 45.7978 2.43741 45.9918C2.41428 46.0386 2.49958 46.1304 2.50846 46.2046C2.51459 46.2561 2.44185 46.3371 2.46114 46.3636C2.574 46.5181 2.47875 46.687 2.51367 46.8153C2.45839 46.9189 2.41535 46.9991 2.35303 47.1156C2.4031 47.1423 2.47232 47.1794 2.53465 47.2126C2.53465 47.7634 2.53404 48.2744 2.5371 48.7853C2.53725 48.805 2.574 48.8246 2.59422 48.8449C2.56727 48.8744 2.54031 48.9041 2.51336 48.9338C2.58212 49.2003 2.68656 49.4568 2.68549 49.7415C2.68487 49.8969 2.72591 50.0551 2.76604 50.2075C2.84919 50.5226 2.91611 50.8438 2.97491 51.1617C3.04138 51.5203 3.2305 51.812 3.37873 52.1243C3.52483 52.4325 3.7262 52.7036 4.0412 52.8923C4.4758 53.1524 4.90106 53.4305 5.36001 53.6438C5.5793 53.7457 5.82003 53.8212 6.03902 53.918C6.26841 54.0192 6.51282 54.0631 6.74222 54.1307C6.94635 54.1905 7.18585 54.2124 7.41158 54.2327C7.59733 54.2493 7.77864 54.2362 7.96516 54.3091C8.13193 54.3742 8.34509 54.2611 8.51217 54.4013C8.52028 54.4081 8.53927 54.4022 8.55321 54.4022C9.23895 54.3974 9.92408 54.5815 10.6045 54.4732C11.0645 54.4002 11.5489 54.3948 11.9778 54.1676C12.6421 54.0841 13.2168 53.7201 13.8588 53.5668C14.0346 53.4002 14.2833 53.3815 14.4831 53.2575C14.6787 53.136 14.9053 53.0661 15.1084 52.9553C15.8261 52.5641 16.5474 52.1791 17.2328 51.7313C17.3663 51.644 17.4611 51.5175 17.6123 51.4411C17.7997 51.3463 17.9582 51.1856 18.1117 51.0353C18.255 50.8947 18.4068 50.765 18.5064 50.575C18.6045 50.3879 18.7916 50.2592 18.923 50.0822C19.2294 49.6693 19.5539 49.2654 19.7568 48.7951C19.883 48.5029 20.0038 48.2008 20.1113 47.8971C20.215 47.604 20.251 47.2948 20.3742 47.0049C20.4698 46.7807 20.4464 46.5052 20.4713 46.2521C20.5018 45.9437 20.5389 45.6354 20.5525 45.3263C20.5664 45.0067 20.5746 44.6846 20.5502 44.3664C20.526 44.0514 20.4811 43.7378 20.4092 43.4263C20.3681 43.2494 20.3217 43.0641 20.3113 42.8827C20.2952 42.5984 20.1785 42.3531 20.0727 42.1021C19.8626 41.6034 19.5576 41.1688 19.2326 40.7334C18.8738 40.2527 18.3585 39.959 17.9758 39.5153C17.816 39.3302 17.5869 39.1954 17.3697 39.0723C17.2045 38.9785 17.0045 38.9593 16.8259 38.8739C16.6069 38.7691 16.3595 38.7244 16.1247 38.6523C16.1005 38.6449 16.0802 38.6189 16.0566 38.6166C15.7621 38.5866 15.4675 38.5567 15.1725 38.5331C15.0618 38.5242 14.9479 38.5189 14.8391 38.5356C14.7479 38.5497 14.6672 38.3994 14.5765 38.525C14.4298 38.4122 14.2949 38.5798 14.1398 38.5399C14.0035 38.5048 13.8591 38.5509 13.7125 38.6023C13.545 38.6612 13.3421 38.5962 13.1655 38.6961C13.0562 38.7579 12.932 38.7935 12.8072 38.8438C12.7726 38.8092 12.7234 38.7599 12.6724 38.7091C12.6553 38.7219 12.6219 38.736 12.6228 38.7478C12.6321 38.8823 12.5894 38.9693 12.4583 39.0373C12.2274 39.1572 12.0106 39.3042 11.7746 39.4478C11.7345 39.4248 11.6787 39.3931 11.5769 39.335C11.5606 39.3994 11.5421 39.4728 11.5283 39.5278C11.5086 39.5181 11.5619 39.544 11.6282 39.576C11.4256 39.7749 11.2248 39.9657 11.0314 40.1636C10.5737 40.6319 10.1912 41.1565 9.87967 41.7323C9.71995 42.0277 9.54844 42.3184 9.41108 42.624C9.24247 42.9989 9.06912 43.3719 8.93834 43.7647C8.84447 44.0465 8.74156 44.324 8.65351 44.6084C8.59884 44.7849 8.63069 44.9652 8.54494 45.1474C8.44249 45.3651 8.50344 45.6538 8.4356 45.8955C8.35643 46.1777 8.36929 46.4572 8.35658 46.74C8.35275 46.827 8.30467 46.912 8.27572 47.0014C8.30145 47.0304 8.32856 47.0607 8.35597 47.0915C8.33973 47.1098 8.32228 47.1294 8.30834 47.1454C8.32595 47.2587 8.35765 47.3686 8.35765 47.4787C8.3575 47.8011 8.44188 48.1055 8.52625 48.4119C8.65918 48.8937 8.99255 49.2095 9.4296 49.3813C9.94215 49.5827 10.4841 49.6775 11.0389 49.7456C11.4913 49.801 11.9375 49.7726 12.3799 49.8138C12.5876 49.6663 12.834 49.6136 13.0467 49.4854C13.118 49.4424 13.2102 49.4182 13.284 49.3562C13.5922 49.0962 13.9292 48.8744 14.2281 48.5985C14.3618 48.475 14.518 48.3606 14.6543 48.2316C15.0831 47.8259 15.3508 47.3199 15.5425 46.77C15.6064 46.5872 15.6192 46.3758 15.7203 46.2195C15.8374 46.0382 15.7158 45.81 15.878 45.6561C15.9057 45.3198 15.965 44.982 15.9508 44.6472C15.9408 44.4103 15.8554 44.1751 15.8765 43.9297C15.8812 43.8756 15.593 43.2151 15.529 43.1572C15.39 43.0314 15.2391 42.9186 15.0933 42.8004C14.9488 42.8788 14.8332 42.6836 14.6581 42.7788C14.5137 42.8574 14.2947 42.8716 14.1335 42.8266C13.9513 42.7758 14.0755 42.9216 14.0142 42.9507C13.5193 43.1857 13.2033 43.6497 12.7577 43.9502C12.736 43.9647 12.7214 43.9901 12.7438 43.9647C12.6923 44.1436 12.6902 44.2967 12.6139 44.3884C12.3908 44.6572 12.341 45.0036 12.17 45.2935C12.1323 45.3575 12.1305 45.4449 12.1201 45.5224C12.0974 45.6929 12.1733 45.876 12.0397 46.034C12.0121 46.0665 12.025 46.1446 12.0377 46.1971C12.0738 46.3457 12.1196 46.4918 12.1692 46.6656C12.7141 46.2948 12.9141 45.6791 13.3079 45.2218L13.6124 45.2218C13.5525 45.3538 13.4981 45.4736 13.4085 45.6707C13.5361 45.6161 13.598 45.6047 13.6393 45.5691C13.7338 45.4875 13.8183 45.3941 13.9117 45.3007C14.0356 45.3835 14.1021 45.5227 14.2179 45.6197C14.326 45.7099 14.3611 45.8876 14.4624 46.0978C14.4664 46.4092 14.2038 46.7196 14.1238 47.087C13.9732 47.1864 13.8032 47.2452 13.7771 47.4829C13.7617 47.6238 13.6212 47.7509 13.5577 47.8512C13.3788 47.9308 13.2341 47.8591 13.0844 47.9487C12.8746 48.0743 12.6502 47.8504 12.42 47.8868C12.0952 47.6718 11.7086 47.5891 11.377 47.3735C11.1277 47.2114 10.9723 46.9899 10.8048 46.772C10.6887 46.621 10.6334 46.4249 10.5307 46.2618C10.429 46.1007 10.429 45.9095 10.3833 45.7402C10.3135 45.4805 10.3206 45.1791 10.3757 44.912C10.4539 44.5347 10.5227 44.15 10.6957 43.7938C10.9117 43.3493 11.1852 42.9477 11.5263 42.5941C11.8458 42.2631 12.1672 41.9373 12.5735 41.6997C12.8367 41.5458 13.1308 41.4972 13.4 41.3732C13.526 41.315 13.6424 41.4617 13.7951 41.3827C13.9049 41.326 14.0689 41.3608 14.2067 41.3746C14.3496 41.3891 14.5414 41.3795 14.6212 41.4649C14.7995 41.6559 15.1102 41.547 15.2468 41.7847C15.5129 41.7851 15.677 41.9821 15.854 42.1283C16.3062 42.5021 16.7783 42.866 16.9929 43.4474C17.0241 43.5321 17.0521 43.6177 17.0814 43.7019C17.1198 43.7105 17.1578 43.7189 17.1919 43.7266C17.2538 43.9581 17.3138 44.1834 17.3755 44.4143C17.3651 44.4278 17.3486 44.4488 17.3184 44.4874C17.3691 44.5678 17.4253 44.657 17.4973 44.7713C17.3856 44.7889 17.3091 44.8011 17.2253 44.8145C17.2227 44.8563 17.2204 44.894 17.2172 44.9477L17.4037 44.9477C17.4308 44.9727 17.4409 44.982 17.451 44.9912C17.3353 45.097 17.5225 45.1935 17.4636 45.291C17.3255 45.5195 17.4103 45.7703 17.3784 46.0086C17.3543 46.189 17.3158 46.3705 17.2573 46.5425C17.2203 46.6516 17.1347 46.7441 17.0716 46.8431C17.2435 47.0968 16.9215 47.346 17.0308 47.6198C16.9999 47.6262 16.9619 47.6342 16.9195 47.6431C16.8366 47.8236 16.7506 48.011 16.6285 48.2767L16.6285 48.5564C16.5357 48.7799 16.4298 48.9462 16.2155 49.0072L16.2155 49.1914C15.986 49.4167 15.7648 49.672 15.5021 49.8724C15.3978 49.952 15.2956 50.0387 15.1901 50.1188C15.0956 50.1908 14.9846 50.245 14.9027 50.3284C14.629 50.6068 14.2823 50.7727 13.9434 50.9405C13.4687 51.1758 12.7905 51.2802 12.268 51.2232C12.0776 51.2025 11.8931 51.1274 11.6838 51.0712C11.6383 51.0888 11.5562 51.1548 11.4959 51.1387C10.8326 50.9626 10.1503 50.8805 9.50587 50.6013C9.02578 50.3932 8.5604 50.1646 8.14556 49.8635C7.84311 49.6442 7.57421 49.3589 7.3638 49.0282C7.11924 48.6436 6.87192 48.2651 6.74742 47.8208C6.73716 47.7845 6.6975 47.755 6.69168 47.7192C6.65968 47.5225 6.6142 47.3254 6.61006 47.1277C6.59888 46.585 6.58142 46.0405 6.61573 45.4998C6.63564 45.1886 6.70347 44.8742 6.75615 44.5633C6.80699 44.2639 6.87728 43.9708 6.93395 43.6739C6.9978 43.3392 7.12659 43.0284 7.23654 42.7116C7.3249 42.4574 7.40377 42.1883 7.53562 41.9608C7.76302 41.568 7.9131 41.1401 8.15903 40.7521C8.39471 40.3801 8.61461 39.9942 8.86316 39.6281C8.98965 39.4414 9.11476 39.2483 9.27188 39.089C9.65717 38.6984 10.015 38.2746 10.4751 37.9655C10.8731 37.6981 11.262 37.4301 11.7291 37.2621C12.194 37.095 12.6522 36.9714 13.1416 36.9414C13.2288 36.9361 13.3136 36.8889 13.4038 36.8597C13.4324 36.8848 13.4631 36.9113 13.4943 36.9385C13.5122 36.9235 13.5318 36.9073 13.5531 36.8897C13.6332 36.9077 13.7223 36.9117 13.7951 36.9482C13.896 36.9989 13.9491 36.8309 14.075 36.9197C14.1595 36.9794 14.3143 36.9365 14.4373 36.9457C14.5418 36.9534 14.6626 36.9004 14.7408 37.0188C14.8606 36.8417 14.9695 37.0526 15.0852 37.0286C15.2381 36.9967 15.3708 37.0679 15.5106 37.1097C15.6354 37.1469 15.7653 37.1673 15.8929 37.1952C16.0206 37.2231 16.1627 37.2241 16.2734 37.2834C16.7406 37.5333 17.3005 37.6106 17.6731 38.0267C17.9559 38.0184 18.1313 38.225 18.3317 38.3615C19.0495 38.8503 19.6513 39.4735 20.2384 40.1043C20.8133 40.7219 21.2935 41.4196 21.5918 42.213C21.7502 42.6338 21.9292 43.0523 21.9883 43.5143C22.0261 43.8107 22.1125 44.1074 22.1372 44.4076C22.162 44.7117 22.1425 45.0195 22.1425 45.3258C22.1425 45.5485 22.1447 45.7713 22.1421 45.9939C22.1395 46.2201 22.1575 46.4396 22.0148 46.6535C21.9327 46.7765 21.9529 46.9677 21.9271 47.1284C22.0871 47.2164 21.7849 47.3729 21.9669 47.4527C21.8483 47.6832 21.73 47.9129 21.6107 48.1449C21.5709 48.1087 21.5439 48.0754 21.5091 48.0562C21.4888 48.045 21.4559 48.0565 21.4139 48.0584C21.3856 48.1611 21.5053 48.1709 21.5441 48.2708L21.5441 48.6107C21.5068 48.6479 21.4577 48.6972 21.3981 48.7568C21.4177 48.7824 21.4387 48.8095 21.4626 48.8404C21.2862 49.0178 21.2641 49.2761 21.141 49.4853C21.0015 49.7222 20.8771 49.9697 20.6821 50.1405C20.5465 50.1044 20.4387 50.0758 20.3309 50.0471C20.3242 50.0672 20.3174 50.0873 20.3107 50.1073C20.3608 50.1291 20.4108 50.151 20.4908 50.1857C20.4151 50.2376 20.3493 50.2827 20.2836 50.3277C20.2935 50.3465 20.3035 50.3654 20.3135 50.384C20.3791 50.3693 20.445 50.3548 20.5361 50.3343C20.5424 50.3843 20.5513 50.4549 20.5606 50.5289C20.5004 50.551 20.4522 50.5686 20.3818 50.5943C20.3992 50.6765 20.4171 50.762 20.4438 50.8885C20.3473 50.9434 20.2173 51.018 20.068 51.1033C20.0063 51.2425 19.9332 51.407 19.8603 51.5711C19.8727 51.5787 19.8853 51.5862 19.8978 51.5934C19.594 51.8972 19.3113 52.2264 18.9812 52.4981C18.5849 52.8241 18.1584 53.1172 17.7265 53.3961C17.1143 53.7916 16.4873 54.1644 15.861 54.5375C15.7867 54.5818 15.6777 54.5676 15.5659 54.5832C15.427 54.8359 15.1223 54.87 14.8866 55.0084C14.6666 55.1377 14.4179 55.2187 14.1715 55.3254C14.1442 55.2706 14.1168 55.2155 14.0889 55.1594C13.9514 55.4946 13.601 55.4995 13.3249 55.6346C13.288 55.6139 13.2346 55.5841 13.1609 55.5426C13.139 55.6136 13.1246 55.6611 13.1101 55.7083C13.1003 55.7182 13.087 55.7384 13.081 55.7363C12.9093 55.6799 12.7643 55.7891 12.6165 55.83C11.9093 56.0269 11.1881 55.9634 10.4708 55.996C9.91949 56.021 9.38045 55.9216 8.83528 55.8933C8.62794 55.8825 8.40221 55.8623 8.20559 55.8066C8.00253 55.749 7.80069 55.7807 7.61157 55.7305C7.37191 55.6669 7.13226 55.6106 6.89076 55.5553C6.62782 55.4953 6.36703 55.4158 6.11145 55.323C5.85694 55.2305 5.594 55.1611 5.3398 55.0683C5.0862 54.9758 4.84226 54.857 4.5879 54.7669C3.84549 54.5042 3.221 54.0301 2.54782 53.6431C2.24124 53.2912 1.87463 53.0004 1.58306 52.6272C1.3532 52.3333 1.15581 52.0204 0.96347 51.7084C0.755971 51.3716 0.619833 50.9892 0.508962 50.6042C0.392425 50.2003 0.284771 49.7949 0.255062 49.3721C0.246946 49.2571 0.198708 49.1453 0.175585 49.0306C0.152155 48.9153 0.226273 48.7796 0.0991698 48.6847C0.084775 48.674 0.092738 48.6329 0.0910536 48.6061C0.0631828 48.1305 0.0241331 47.6551 0.010504 47.179C-0.00343132 46.6922 0.00545063 46.2048 0.0106573 45.7177C0.0112698 45.6728 0.0578233 45.6285 0.0830907 45.584C0.0593546 45.5573 0.0322495 45.527 -6.22146e-05 45.4907C0.0301056 45.4203 0.0936571 45.3454 0.0855409 45.2792C0.035006 44.8658 0.191664 44.4699 0.17681 44.0603C0.173135 43.9568 0.131329 43.8349 0.251847 43.7584C0.121987 43.6678 0.271908 43.5863 0.263639 43.4957C0.254144 43.3938 0.243731 43.2931 0.312948 43.1831C0.401767 43.0418 0.285843 42.8332 0.425044 42.6885C0.426882 42.2465 0.633309 41.8547 0.727794 41.4363C0.800228 41.1158 0.920746 40.823 1.05045 40.5247C1.15734 40.2792 1.21661 40.0121 1.31232 39.7568C1.53926 39.1518 1.81843 38.572 2.10418 37.9972C2.29438 37.6148 2.57982 37.2815 2.77186 36.895C3.02377 36.7754 3.07369 36.4886 3.25592 36.3021C3.44229 36.1116 3.60951 35.8929 3.80047 35.6998C3.99618 35.502 4.18668 35.2981 4.39234 35.1108C4.72802 34.8047 5.11086 34.5536 5.4545 34.2609C5.80166 33.9652 6.20303 33.7683 6.57944 33.532C6.93456 33.309 7.34251 33.155 7.74557 33.0293C8.02933 32.9409 8.29426 32.8042 8.58889 32.7409C8.95488 32.6625 9.30985 32.5339 9.67217 32.4363C9.82409 32.3953 10.021 32.4262 10.129 32.3392C10.2905 32.2092 10.481 32.3418 10.6268 32.2179C10.7541 32.11 10.9607 32.2711 11.0793 32.1008C11.0839 32.0942 11.1063 32.0979 11.1198 32.1002C11.4637 32.1619 11.7874 31.9979 12.1294 32.0132C12.4628 32.0281 12.8069 31.9663 13.1292 32.0279C13.6496 32.1273 14.1917 32.1328 14.6764 32.4244C15.0413 32.644 15.3503 32.8849 15.5137 33.2835C15.5384 33.3435 15.5396 33.4129 15.5505 33.4715Z" fill="white"/>
<path fill-rule="evenodd" clip-rule="evenodd" d="M15.5505 65.4715C15.5033 65.5188 15.4639 65.558 15.4142 65.6078C15.1577 65.5792 14.8927 65.5381 14.6263 65.5231C14.3627 65.5084 14.0975 65.5199 13.833 65.5199C13.6243 65.5199 13.396 65.4668 13.2119 65.5342C13.0073 65.6092 12.7839 65.5314 12.6228 65.6181C12.4357 65.7188 12.2103 65.6041 12.0577 65.7706C11.7415 65.7395 11.479 65.9346 11.187 65.9805C10.8585 66.0322 10.5639 66.1602 10.2624 66.275C9.91398 66.4078 9.55426 66.5086 9.22027 66.6841C8.98229 66.809 8.72564 66.9041 8.47878 67.0098C8.03959 67.1978 7.6618 67.4701 7.27789 67.7367C7.06763 67.8825 6.88509 68.0678 6.68954 68.2346C6.5047 68.3926 6.29812 68.531 6.13748 68.7105C5.5695 69.3457 4.96676 69.9567 4.59831 70.7437C4.34502 70.9709 4.24304 71.2968 4.11578 71.5881C3.98852 71.8794 3.7994 72.1561 3.76617 72.4868C3.48746 72.9458 3.37705 73.4707 3.22453 73.973C3.10431 74.3686 2.92622 74.7598 2.93096 75.1892C2.77951 75.3143 2.86588 75.5116 2.78349 75.6724C2.69988 75.8356 2.64705 76.0445 2.6763 76.2551C2.70402 76.4549 2.56068 76.6342 2.5907 76.8472C2.61627 77.0299 2.58794 77.2123 2.52561 77.4004C2.46512 77.5823 2.53296 77.7978 2.43741 77.9918C2.41428 78.0386 2.49958 78.1304 2.50846 78.2046C2.51459 78.2561 2.44185 78.3371 2.46114 78.3636C2.574 78.5181 2.47875 78.687 2.51367 78.8153C2.45839 78.9189 2.41535 78.9991 2.35303 79.1156C2.4031 79.1423 2.47232 79.1794 2.53465 79.2126C2.53465 79.7634 2.53404 80.2744 2.5371 80.7853C2.53725 80.805 2.574 80.8246 2.59422 80.8449C2.56727 80.8744 2.54031 80.9041 2.51336 80.9338C2.58212 81.2003 2.68656 81.4568 2.68549 81.7415C2.68487 81.8969 2.72591 82.0551 2.76604 82.2075C2.84919 82.5226 2.91611 82.8438 2.97491 83.1617C3.04138 83.5203 3.2305 83.812 3.37873 84.1243C3.52483 84.4325 3.7262 84.7036 4.0412 84.8923C4.4758 85.1524 4.90106 85.4305 5.36001 85.6438C5.5793 85.7457 5.82003 85.8212 6.03902 85.918C6.26841 86.0192 6.51282 86.0631 6.74222 86.1307C6.94635 86.1905 7.18585 86.2124 7.41158 86.2327C7.59733 86.2493 7.77864 86.2362 7.96516 86.3091C8.13193 86.3742 8.34509 86.2611 8.51217 86.4013C8.52028 86.4081 8.53927 86.4022 8.55321 86.4022C9.23895 86.3974 9.92408 86.5815 10.6045 86.4732C11.0645 86.4002 11.5489 86.3948 11.9778 86.1676C12.6421 86.0841 13.2168 85.7201 13.8588 85.5668C14.0346 85.4002 14.2833 85.3815 14.4831 85.2575C14.6787 85.136 14.9053 85.0661 15.1084 84.9553C15.8261 84.5641 16.5474 84.1791 17.2328 83.7313C17.3663 83.644 17.4611 83.5175 17.6123 83.4411C17.7997 83.3463 17.9582 83.1856 18.1117 83.0353C18.255 82.8947 18.4068 82.765 18.5064 82.575C18.6045 82.3879 18.7916 82.2592 18.923 82.0822C19.2294 81.6693 19.5539 81.2654 19.7568 80.7951C19.883 80.5029 20.0038 80.2008 20.1113 79.8971C20.215 79.604 20.251 79.2948 20.3742 79.0049C20.4698 78.7807 20.4464 78.5052 20.4713 78.2521C20.5018 77.9437 20.5389 77.6354 20.5525 77.3263C20.5664 77.0067 20.5746 76.6846 20.5502 76.3664C20.526 76.0514 20.4811 75.7378 20.4092 75.4263C20.3681 75.2494 20.3217 75.0641 20.3113 74.8827C20.2952 74.5984 20.1785 74.3531 20.0727 74.1021C19.8626 73.6034 19.5576 73.1688 19.2326 72.7334C18.8738 72.2527 18.3585 71.959 17.9758 71.5153C17.816 71.3302 17.5869 71.1954 17.3697 71.0723C17.2045 70.9785 17.0045 70.9593 16.8259 70.8739C16.6069 70.7691 16.3595 70.7244 16.1247 70.6523C16.1005 70.6449 16.0802 70.6189 16.0566 70.6166C15.7621 70.5866 15.4675 70.5567 15.1725 70.5331C15.0618 70.5242 14.9479 70.5189 14.8391 70.5356C14.7479 70.5497 14.6672 70.3994 14.5765 70.525C14.4298 70.4122 14.2949 70.5798 14.1398 70.5399C14.0035 70.5048 13.8591 70.5509 13.7125 70.6023C13.545 70.6612 13.3421 70.5962 13.1655 70.6961C13.0562 70.7579 12.932 70.7935 12.8072 70.8438C12.7726 70.8092 12.7234 70.7599 12.6724 70.7091C12.6553 70.7219 12.6219 70.736 12.6228 70.7478C12.6321 70.8823 12.5894 70.9693 12.4583 71.0373C12.2274 71.1572 12.0106 71.3042 11.7746 71.4478C11.7345 71.4248 11.6787 71.3931 11.5769 71.335C11.5606 71.3994 11.5421 71.4728 11.5283 71.5278C11.5086 71.5181 11.5619 71.544 11.6282 71.576C11.4256 71.7749 11.2248 71.9657 11.0314 72.1636C10.5737 72.6319 10.1912 73.1565 9.87967 73.7323C9.71995 74.0277 9.54844 74.3184 9.41108 74.624C9.24247 74.9989 9.06912 75.3719 8.93834 75.7647C8.84447 76.0465 8.74156 76.324 8.65351 76.6084C8.59884 76.7849 8.63069 76.9652 8.54494 77.1474C8.44249 77.3651 8.50344 77.6538 8.4356 77.8955C8.35643 78.1777 8.36929 78.4572 8.35658 78.74C8.35275 78.827 8.30467 78.912 8.27572 79.0014C8.30145 79.0304 8.32856 79.0607 8.35597 79.0915C8.33973 79.1098 8.32228 79.1294 8.30834 79.1454C8.32595 79.2587 8.35765 79.3686 8.35765 79.4787C8.3575 79.8011 8.44188 80.1055 8.52625 80.4119C8.65918 80.8937 8.99255 81.2095 9.4296 81.3813C9.94215 81.5827 10.4841 81.6775 11.0389 81.7456C11.4913 81.801 11.9375 81.7726 12.3799 81.8138C12.5876 81.6663 12.834 81.6136 13.0467 81.4854C13.118 81.4424 13.2102 81.4182 13.284 81.3562C13.5922 81.0962 13.9292 80.8744 14.2281 80.5985C14.3618 80.475 14.518 80.3606 14.6543 80.2316C15.0831 79.8259 15.3508 79.3199 15.5425 78.77C15.6064 78.5872 15.6192 78.3758 15.7203 78.2195C15.8374 78.0382 15.7158 77.81 15.878 77.6561C15.9057 77.3198 15.965 76.982 15.9508 76.6472C15.9408 76.4103 15.8554 76.1751 15.8765 75.9297C15.8812 75.8756 15.593 75.2151 15.529 75.1572C15.39 75.0314 15.2391 74.9186 15.0933 74.8004C14.9488 74.8788 14.8332 74.6836 14.6581 74.7788C14.5137 74.8574 14.2947 74.8716 14.1335 74.8266C13.9513 74.7758 14.0755 74.9216 14.0142 74.9507C13.5193 75.1857 13.2033 75.6497 12.7577 75.9502C12.736 75.9647 12.7214 75.9901 12.7438 75.9647C12.6923 76.1436 12.6902 76.2967 12.6139 76.3884C12.3908 76.6572 12.341 77.0036 12.17 77.2935C12.1323 77.3575 12.1305 77.4449 12.1201 77.5224C12.0974 77.6929 12.1733 77.876 12.0397 78.034C12.0121 78.0665 12.025 78.1446 12.0377 78.1971C12.0738 78.3457 12.1196 78.4918 12.1692 78.6656C12.7141 78.2948 12.9141 77.6791 13.3079 77.2218L13.6124 77.2218C13.5525 77.3538 13.4981 77.4736 13.4085 77.6707C13.5361 77.6161 13.598 77.6047 13.6393 77.5691C13.7338 77.4875 13.8183 77.3941 13.9117 77.3007C14.0356 77.3835 14.1021 77.5227 14.2179 77.6197C14.326 77.7099 14.3611 77.8876 14.4624 78.0978C14.4664 78.4092 14.2038 78.7196 14.1238 79.087C13.9732 79.1864 13.8032 79.2452 13.7771 79.4829C13.7617 79.6238 13.6212 79.7509 13.5577 79.8512C13.3788 79.9308 13.2341 79.8591 13.0844 79.9487C12.8746 80.0743 12.6502 79.8504 12.42 79.8868C12.0952 79.6718 11.7086 79.5891 11.377 79.3735C11.1277 79.2114 10.9723 78.9899 10.8048 78.772C10.6887 78.621 10.6334 78.4249 10.5307 78.2618C10.429 78.1007 10.429 77.9095 10.3833 77.7402C10.3135 77.4805 10.3206 77.1791 10.3757 76.912C10.4539 76.5347 10.5227 76.15 10.6957 75.7938C10.9117 75.3493 11.1852 74.9477 11.5263 74.5941C11.8458 74.2631 12.1672 73.9373 12.5735 73.6997C12.8367 73.5458 13.1308 73.4972 13.4 73.3732C13.526 73.315 13.6424 73.4617 13.7951 73.3827C13.9049 73.326 14.0689 73.3608 14.2067 73.3746C14.3496 73.3891 14.5414 73.3795 14.6212 73.4649C14.7995 73.6559 15.1102 73.547 15.2468 73.7847C15.5129 73.7851 15.677 73.9821 15.854 74.1283C16.3062 74.5021 16.7783 74.866 16.9929 75.4474C17.0241 75.5321 17.0521 75.6177 17.0814 75.7019C17.1198 75.7105 17.1578 75.7189 17.1919 75.7266C17.2538 75.9581 17.3138 76.1834 17.3755 76.4143C17.3651 76.4278 17.3486 76.4488 17.3184 76.4874C17.3691 76.5678 17.4253 76.657 17.4973 76.7713C17.3856 76.7889 17.3091 76.8011 17.2253 76.8145C17.2227 76.8563 17.2204 76.894 17.2172 76.9477L17.4037 76.9477C17.4308 76.9727 17.4409 76.982 17.451 76.9912C17.3353 77.097 17.5225 77.1935 17.4636 77.291C17.3255 77.5195 17.4103 77.7703 17.3784 78.0086C17.3543 78.189 17.3158 78.3705 17.2573 78.5425C17.2203 78.6516 17.1347 78.7441 17.0716 78.8431C17.2435 79.0968 16.9215 79.346 17.0308 79.6198C16.9999 79.6262 16.9619 79.6342 16.9195 79.6431C16.8366 79.8236 16.7506 80.011 16.6285 80.2767L16.6285 80.5564C16.5357 80.7799 16.4298 80.9462 16.2155 81.0072L16.2155 81.1914C15.986 81.4167 15.7648 81.672 15.5021 81.8724C15.3978 81.952 15.2956 82.0387 15.1901 82.1188C15.0956 82.1908 14.9846 82.245 14.9027 82.3284C14.629 82.6068 14.2823 82.7727 13.9434 82.9405C13.4687 83.1758 12.7905 83.2802 12.268 83.2232C12.0776 83.2025 11.8931 83.1274 11.6838 83.0712C11.6383 83.0888 11.5562 83.1548 11.4959 83.1387C10.8326 82.9626 10.1503 82.8805 9.50587 82.6013C9.02578 82.3932 8.5604 82.1646 8.14556 81.8635C7.84311 81.6442 7.57421 81.3589 7.3638 81.0282C7.11924 80.6436 6.87192 80.2651 6.74742 79.8208C6.73716 79.7845 6.6975 79.755 6.69168 79.7192C6.65968 79.5225 6.6142 79.3254 6.61006 79.1277C6.59888 78.585 6.58142 78.0405 6.61573 77.4998C6.63564 77.1886 6.70347 76.8742 6.75615 76.5633C6.80699 76.2639 6.87728 75.9708 6.93395 75.6739C6.9978 75.3392 7.12659 75.0284 7.23654 74.7116C7.3249 74.4574 7.40377 74.1883 7.53562 73.9608C7.76302 73.568 7.9131 73.1401 8.15903 72.7521C8.39471 72.3801 8.61461 71.9942 8.86316 71.6281C8.98965 71.4414 9.11476 71.2483 9.27188 71.089C9.65717 70.6984 10.015 70.2746 10.4751 69.9655C10.8731 69.6981 11.262 69.4301 11.7291 69.2621C12.194 69.095 12.6522 68.9714 13.1416 68.9414C13.2288 68.9361 13.3136 68.8889 13.4038 68.8597C13.4324 68.8848 13.4631 68.9113 13.4943 68.9385C13.5122 68.9235 13.5318 68.9073 13.5531 68.8897C13.6332 68.9077 13.7223 68.9117 13.7951 68.9482C13.896 68.9989 13.9491 68.8309 14.075 68.9197C14.1595 68.9794 14.3143 68.9365 14.4373 68.9457C14.5418 68.9534 14.6626 68.9004 14.7408 69.0188C14.8606 68.8417 14.9695 69.0526 15.0852 69.0286C15.2381 68.9967 15.3708 69.0679 15.5106 69.1097C15.6354 69.1469 15.7653 69.1673 15.8929 69.1952C16.0206 69.2231 16.1627 69.2241 16.2734 69.2834C16.7406 69.5333 17.3005 69.6106 17.6731 70.0267C17.9559 70.0184 18.1313 70.225 18.3317 70.3615C19.0495 70.8503 19.6513 71.4735 20.2384 72.1043C20.8133 72.7219 21.2935 73.4196 21.5918 74.213C21.7502 74.6338 21.9292 75.0523 21.9883 75.5143C22.0261 75.8107 22.1125 76.1074 22.1372 76.4076C22.162 76.7117 22.1425 77.0195 22.1425 77.3258C22.1425 77.5485 22.1447 77.7713 22.1421 77.9939C22.1395 78.2201 22.1575 78.4396 22.0148 78.6535C21.9327 78.7765 21.9529 78.9677 21.9271 79.1284C22.0871 79.2164 21.7849 79.3729 21.9669 79.4527C21.8483 79.6832 21.73 79.9129 21.6107 80.1449C21.5709 80.1087 21.5439 80.0754 21.5091 80.0562C21.4888 80.045 21.4559 80.0565 21.4139 80.0584C21.3856 80.1611 21.5053 80.1709 21.5441 80.2708L21.5441 80.6107C21.5068 80.6479 21.4577 80.6972 21.3981 80.7568C21.4177 80.7824 21.4387 80.8095 21.4626 80.8404C21.2862 81.0178 21.2641 81.2761 21.141 81.4853C21.0015 81.7222 20.8771 81.9697 20.6821 82.1405C20.5465 82.1044 20.4387 82.0758 20.3309 82.0471C20.3242 82.0672 20.3174 82.0873 20.3107 82.1073C20.3608 82.1291 20.4108 82.151 20.4908 82.1857C20.4151 82.2376 20.3493 82.2827 20.2836 82.3277C20.2935 82.3465 20.3035 82.3654 20.3135 82.384C20.3791 82.3693 20.445 82.3548 20.5361 82.3343C20.5424 82.3843 20.5513 82.4549 20.5606 82.5289C20.5004 82.551 20.4522 82.5686 20.3818 82.5943C20.3992 82.6765 20.4171 82.762 20.4438 82.8885C20.3473 82.9434 20.2173 83.018 20.068 83.1033C20.0063 83.2425 19.9332 83.407 19.8603 83.5711C19.8727 83.5787 19.8853 83.5862 19.8978 83.5934C19.594 83.8972 19.3113 84.2264 18.9812 84.4981C18.5849 84.8241 18.1584 85.1172 17.7265 85.3961C17.1143 85.7916 16.4873 86.1644 15.861 86.5375C15.7867 86.5818 15.6777 86.5676 15.5659 86.5832C15.427 86.8359 15.1223 86.87 14.8866 87.0084C14.6666 87.1377 14.4179 87.2187 14.1715 87.3254C14.1442 87.2706 14.1168 87.2155 14.0889 87.1594C13.9514 87.4946 13.601 87.4995 13.3249 87.6346C13.288 87.6139 13.2346 87.5841 13.1609 87.5426C13.139 87.6136 13.1246 87.6611 13.1101 87.7083C13.1003 87.7182 13.087 87.7384 13.081 87.7363C12.9093 87.6799 12.7643 87.7891 12.6165 87.83C11.9093 88.0269 11.1881 87.9634 10.4708 87.996C9.91949 88.021 9.38045 87.9216 8.83528 87.8933C8.62794 87.8825 8.40221 87.8623 8.20559 87.8066C8.00253 87.749 7.80069 87.7807 7.61157 87.7305C7.37191 87.6669 7.13226 87.6106 6.89076 87.5553C6.62782 87.4953 6.36703 87.4158 6.11145 87.323C5.85694 87.2305 5.594 87.1611 5.3398 87.0683C5.0862 86.9758 4.84226 86.857 4.5879 86.7669C3.84549 86.5042 3.221 86.0301 2.54782 85.6431C2.24124 85.2912 1.87463 85.0004 1.58306 84.6272C1.3532 84.3333 1.15581 84.0204 0.96347 83.7084C0.755971 83.3716 0.619833 82.9892 0.508962 82.6042C0.392425 82.2003 0.284771 81.7949 0.255062 81.3721C0.246946 81.2571 0.198708 81.1453 0.175585 81.0306C0.152155 80.9153 0.226273 80.7796 0.0991698 80.6847C0.084775 80.674 0.092738 80.6329 0.0910536 80.6061C0.0631828 80.1305 0.0241331 79.6551 0.010504 79.179C-0.00343132 78.6922 0.00545063 78.2048 0.0106573 77.7177C0.0112698 77.6728 0.0578233 77.6285 0.0830907 77.584C0.0593546 77.5573 0.0322495 77.527 -6.22146e-05 77.4907C0.0301056 77.4203 0.0936571 77.3454 0.0855409 77.2792C0.035006 76.8658 0.191664 76.4699 0.17681 76.0603C0.173135 75.9568 0.131329 75.8349 0.251847 75.7584C0.121987 75.6678 0.271908 75.5863 0.263639 75.4957C0.254144 75.3938 0.243731 75.2931 0.312948 75.1831C0.401767 75.0418 0.285843 74.8332 0.425044 74.6885C0.426882 74.2465 0.633309 73.8547 0.727794 73.4363C0.800228 73.1158 0.920746 72.823 1.05045 72.5247C1.15734 72.2792 1.21661 72.0121 1.31232 71.7568C1.53926 71.1518 1.81843 70.572 2.10418 69.9972C2.29438 69.6148 2.57982 69.2815 2.77186 68.895C3.02377 68.7754 3.07369 68.4886 3.25592 68.3021C3.44229 68.1116 3.60951 67.8929 3.80047 67.6998C3.99618 67.502 4.18668 67.2981 4.39234 67.1108C4.72802 66.8047 5.11086 66.5536 5.4545 66.2609C5.80166 65.9652 6.20303 65.7683 6.57944 65.532C6.93456 65.309 7.34251 65.155 7.74557 65.0293C8.02933 64.9409 8.29426 64.8042 8.58889 64.7409C8.95488 64.6625 9.30985 64.5339 9.67217 64.4363C9.82409 64.3953 10.021 64.4262 10.129 64.3392C10.2905 64.2092 10.481 64.3418 10.6268 64.2179C10.7541 64.11 10.9607 64.2711 11.0793 64.1008C11.0839 64.0942 11.1063 64.0979 11.1198 64.1002C11.4637 64.1619 11.7874 63.9979 12.1294 64.0132C12.4628 64.0281 12.8069 63.9663 13.1292 64.0279C13.6496 64.1273 14.1917 64.1328 14.6764 64.4244C15.0413 64.644 15.3503 64.8849 15.5137 65.2835C15.5384 65.3435 15.5396 65.4129 15.5505 65.4715Z" fill="white"/>
<path fill-rule="evenodd" clip-rule="evenodd" d="M45.7004 1.47152C45.6532 1.51884 45.6138 1.55804 45.5641 1.60781C45.3076 1.57918 45.0426 1.53813 44.7762 1.52313C44.5126 1.50843 44.2474 1.51991 43.9829 1.51991C43.7742 1.51991 43.5459 1.46677 43.3618 1.53415C43.1572 1.60919 42.9338 1.5314 42.7727 1.61807C42.5856 1.71884 42.3602 1.60414 42.2076 1.7706C41.8914 1.73951 41.6289 1.9346 41.3369 1.98055C41.0084 2.03215 40.7138 2.16017 40.4123 2.27503C40.0639 2.40779 39.7042 2.50856 39.3702 2.68405C39.1322 2.80901 38.8755 2.90411 38.6287 3.00977C38.1895 3.19782 37.8117 3.4701 37.4278 3.73671C37.2175 3.8825 37.035 4.06779 36.8394 4.23456C36.6546 4.39259 36.448 4.53103 36.2874 4.7105C35.7194 5.34571 35.1167 5.95673 34.7482 6.74369C34.4949 6.97095 34.3929 7.29682 34.2657 7.58809C34.1384 7.87935 33.9493 8.15607 33.9161 8.48684C33.6374 8.94579 33.527 9.47074 33.3744 9.97303C33.2542 10.3686 33.0761 10.7598 33.0809 11.1892C32.9294 11.3143 33.0158 11.5116 32.9334 11.6724C32.8498 11.8356 32.797 12.0445 32.8262 12.2551C32.8539 12.4549 32.7106 12.6342 32.7406 12.8472C32.7662 13.0299 32.7378 13.2123 32.6755 13.4004C32.615 13.5823 32.6829 13.7978 32.5873 13.9918C32.5642 14.0386 32.6495 14.1304 32.6584 14.2046C32.6645 14.2561 32.5917 14.3371 32.611 14.3636C32.7239 14.5181 32.6287 14.687 32.6636 14.8153C32.6083 14.9189 32.5653 14.9991 32.5029 15.1156C32.553 15.1423 32.6222 15.1794 32.6846 15.2126C32.6846 15.7634 32.6839 16.2744 32.687 16.7853C32.6872 16.805 32.7239 16.8246 32.7441 16.8449C32.7172 16.8744 32.6902 16.9041 32.6633 16.9338C32.732 17.2003 32.8365 17.4568 32.8354 17.7415C32.8348 17.8969 32.8758 18.0551 32.9159 18.2075C32.9991 18.5226 33.066 18.8438 33.1248 19.1617C33.1913 19.5203 33.3804 19.812 33.5286 20.1243C33.6747 20.4325 33.8761 20.7036 34.1911 20.8923C34.6257 21.1524 35.051 21.4305 35.5099 21.6438C35.7292 21.7457 35.9699 21.8212 36.1889 21.918C36.4183 22.0192 36.6627 22.0631 36.8921 22.1307C37.0963 22.1905 37.3358 22.2124 37.5615 22.2327C37.7472 22.2493 37.9285 22.2362 38.1151 22.3091C38.2818 22.3742 38.495 22.2611 38.6621 22.4013C38.6702 22.4081 38.6892 22.4022 38.7031 22.4022C39.3889 22.3974 40.074 22.5815 40.7544 22.4732C41.2144 22.4002 41.6988 22.3948 42.1277 22.1676C42.792 22.0841 43.3667 21.7201 44.0087 21.5668C44.1845 21.4002 44.4332 21.3815 44.633 21.2575C44.8286 21.136 45.0552 21.0661 45.2583 20.9553C45.976 20.5641 46.6973 20.1791 47.3827 19.7313C47.5162 19.644 47.611 19.5175 47.7622 19.4411C47.9496 19.3463 48.1081 19.1856 48.2616 19.0353C48.4049 18.8947 48.5567 18.765 48.6563 18.575C48.7544 18.3879 48.9415 18.2592 49.0729 18.0822C49.3793 17.6693 49.7038 17.2654 49.9067 16.7951C50.0329 16.5029 50.1537 16.2008 50.2612 15.8971C50.3649 15.604 50.4009 15.2948 50.5242 15.0049C50.6197 14.7807 50.5963 14.5052 50.6212 14.2521C50.6517 13.9437 50.6888 13.6354 50.7024 13.3263C50.7163 13.0067 50.7245 12.6846 50.7001 12.3664C50.6759 12.0514 50.631 11.7378 50.5591 11.4263C50.518 11.2494 50.4716 11.0641 50.4612 10.8827C50.4451 10.5984 50.3284 10.3531 50.2226 10.1021C50.0125 9.60336 49.7075 9.16876 49.3825 8.73339C49.0237 8.2527 48.5084 7.95898 48.1257 7.51535C47.9659 7.33021 47.7368 7.19545 47.5196 7.07232C47.3544 6.97845 47.1544 6.95931 46.9758 6.87386C46.7568 6.76911 46.5094 6.7244 46.2746 6.65227C46.2504 6.64492 46.2301 6.61889 46.2065 6.61659C45.912 6.58658 45.6174 6.55671 45.3224 6.53313C45.2117 6.52425 45.0978 6.51889 44.989 6.53558C44.8978 6.54967 44.8171 6.39944 44.7264 6.52501C44.5797 6.41215 44.4448 6.57984 44.2897 6.53987C44.1534 6.5048 44.009 6.5509 43.8624 6.60235C43.6949 6.66115 43.492 6.59622 43.3154 6.69607C43.2061 6.75794 43.0819 6.79346 42.9571 6.84384C42.9225 6.80924 42.8733 6.75993 42.8223 6.70908C42.8052 6.72195 42.7718 6.73604 42.7727 6.74783C42.782 6.88228 42.7393 6.96926 42.6082 7.03726C42.3773 7.15716 42.1605 7.30417 41.9245 7.44781C41.8844 7.42484 41.8286 7.39314 41.7268 7.33495C41.7106 7.39942 41.692 7.47278 41.6782 7.52775C41.6585 7.5181 41.7118 7.54398 41.7781 7.57599C41.5755 7.77491 41.3747 7.96572 41.1813 8.16357C40.7236 8.63186 40.3411 9.15651 40.0296 9.7323C39.8699 10.0277 39.6983 10.3184 39.561 10.624C39.3924 10.9989 39.219 11.3719 39.0882 11.7647C38.9944 12.0465 38.8915 12.324 38.8034 12.6084C38.7487 12.7849 38.7806 12.9652 38.6948 13.1474C38.5924 13.3651 38.6533 13.6538 38.5855 13.8955C38.5063 14.1777 38.5192 14.4572 38.5065 14.74C38.5027 14.827 38.4546 14.912 38.4256 15.0014C38.4514 15.0304 38.4785 15.0607 38.5059 15.0915C38.4896 15.1098 38.4722 15.1294 38.4582 15.1454C38.4759 15.2587 38.5076 15.3686 38.5076 15.4787C38.5074 15.8011 38.5918 16.1055 38.6762 16.4119C38.8091 16.8937 39.1425 17.2095 39.5795 17.3813C40.0921 17.5827 40.634 17.6775 41.1888 17.7456C41.6412 17.801 42.0874 17.7726 42.5298 17.8138C42.7375 17.6663 42.9839 17.6136 43.1966 17.4854C43.2679 17.4424 43.3601 17.4182 43.4339 17.3562C43.7421 17.0962 44.0791 16.8744 44.378 16.5985C44.5117 16.475 44.6679 16.3606 44.8042 16.2316C45.233 15.8259 45.5007 15.3199 45.6924 14.77C45.7563 14.5872 45.7691 14.3758 45.8702 14.2195C45.9873 14.0382 45.8657 13.81 46.0279 13.6561C46.0556 13.3198 46.1149 12.982 46.1007 12.6472C46.0907 12.4103 46.0053 12.1751 46.0264 11.9297C46.0311 11.8756 45.7429 11.2151 45.6789 11.1572C45.5399 11.0314 45.389 10.9186 45.2432 10.8004C45.0987 10.8788 44.9831 10.6836 44.808 10.7788C44.6636 10.8574 44.4446 10.8716 44.2834 10.8266C44.1012 10.7758 44.2254 10.9216 44.1641 10.9507C43.6692 11.1857 43.3532 11.6497 42.9076 11.9502C42.8859 11.9647 42.8713 11.9901 42.8937 11.9647C42.8422 12.1436 42.8401 12.2967 42.7638 12.3884C42.5407 12.6572 42.4909 13.0036 42.3199 13.2935C42.2822 13.3575 42.2804 13.4449 42.27 13.5224C42.2473 13.6929 42.3232 13.876 42.1896 14.034C42.162 14.0665 42.1749 14.1446 42.1876 14.1971C42.2237 14.3457 42.2695 14.4918 42.3191 14.6656C42.864 14.2948 43.064 13.6791 43.4578 13.2218L43.7623 13.2218C43.7024 13.3538 43.648 13.4736 43.5584 13.6707C43.686 13.6161 43.7479 13.6047 43.7892 13.5691C43.8837 13.4875 43.9682 13.3941 44.0617 13.3007C44.1855 13.3835 44.252 13.5227 44.3678 13.6197C44.4759 13.7099 44.511 13.8876 44.6123 14.0978C44.6163 14.4092 44.3537 14.7196 44.2737 15.087C44.1231 15.1864 43.9531 15.2452 43.927 15.4829C43.9116 15.6238 43.7712 15.7509 43.7076 15.8512C43.5287 15.9308 43.384 15.8591 43.2343 15.9487C43.0245 16.0743 42.8001 15.8504 42.57 15.8868C42.2451 15.6718 41.8585 15.5891 41.5269 15.3735C41.2776 15.2114 41.1222 14.9899 40.9547 14.772C40.8386 14.621 40.7833 14.4249 40.6806 14.2618C40.5789 14.1007 40.5789 13.9095 40.5332 13.7402C40.4634 13.4805 40.4705 13.1791 40.5256 12.912C40.6038 12.5347 40.6726 12.15 40.8456 11.7938C41.0616 11.3493 41.3351 10.9477 41.6762 10.5941C41.9957 10.2631 42.3171 9.93735 42.7234 9.69968C42.9866 9.54578 43.2807 9.49724 43.5499 9.3732C43.6759 9.315 43.7923 9.46171 43.945 9.38269C44.0548 9.32603 44.2188 9.36079 44.3566 9.37457C44.4995 9.38912 44.6913 9.37947 44.7711 9.46492C44.9494 9.65589 45.2601 9.547 45.3967 9.78467C45.6628 9.78513 45.8269 9.98206 46.0039 10.1283C46.4561 10.5021 46.9282 10.866 47.1428 11.4474C47.174 11.5321 47.202 11.6177 47.2313 11.7019C47.2697 11.7105 47.3077 11.7189 47.3418 11.7266C47.4037 11.9581 47.4637 12.1834 47.5254 12.4143C47.515 12.4278 47.4985 12.4488 47.4683 12.4874C47.519 12.5678 47.5752 12.657 47.6472 12.7713C47.5355 12.7889 47.459 12.8011 47.3752 12.8145C47.3726 12.8563 47.3703 12.894 47.3671 12.9477L47.5536 12.9477C47.5807 12.9727 47.5908 12.982 47.6009 12.9912C47.4852 13.097 47.6724 13.1935 47.6135 13.291C47.4754 13.5195 47.5602 13.7703 47.5283 14.0086C47.5042 14.189 47.4657 14.3705 47.4072 14.5425C47.3702 14.6516 47.2846 14.7441 47.2215 14.8431C47.3934 15.0968 47.0714 15.346 47.1807 15.6198C47.1498 15.6262 47.1118 15.6342 47.0694 15.6431C46.9866 15.8236 46.9005 16.011 46.7784 16.2767L46.7784 16.5564C46.6856 16.7799 46.5797 16.9462 46.3654 17.0072L46.3654 17.1914C46.1359 17.4167 45.9148 17.672 45.652 17.8724C45.5477 17.952 45.4455 18.0387 45.34 18.1188C45.2455 18.1908 45.1345 18.245 45.0526 18.3284C44.7789 18.6068 44.4322 18.7727 44.0933 18.9405C43.6186 19.1758 42.9404 19.2802 42.4179 19.2232C42.2275 19.2025 42.043 19.1274 41.8337 19.0712C41.7882 19.0888 41.7061 19.1548 41.6458 19.1387C40.9825 18.9626 40.3002 18.8805 39.6558 18.6013C39.1757 18.3932 38.7103 18.1646 38.2955 17.8635C37.993 17.6442 37.7241 17.3589 37.5137 17.0282C37.2691 16.6436 37.0218 16.2651 36.8973 15.8208C36.8871 15.7845 36.8474 15.755 36.8416 15.7192C36.8096 15.5225 36.7641 15.3254 36.76 15.1277C36.7488 14.585 36.7313 14.0405 36.7656 13.4998C36.7855 13.1886 36.8534 12.8742 36.9061 12.5633C36.9569 12.2639 37.0272 11.9708 37.0838 11.6739C37.1477 11.3392 37.2765 11.0284 37.3864 10.7116C37.4748 10.4574 37.5537 10.1883 37.6855 9.96078C37.9129 9.56798 38.063 9.14012 38.3089 8.75207C38.5446 8.38011 38.7645 7.9942 39.0131 7.62805C39.1395 7.44138 39.2647 7.24828 39.4218 7.08901C39.8071 6.69836 40.1649 6.27464 40.625 5.96546C41.023 5.69808 41.4119 5.43009 41.879 5.2621C42.3439 5.09503 42.8021 4.97145 43.2915 4.94143C43.3787 4.93607 43.4635 4.88891 43.5537 4.85966C43.5823 4.88477 43.613 4.91127 43.6442 4.93852C43.6621 4.92352 43.6817 4.90728 43.703 4.88967C43.7831 4.90774 43.8722 4.91173 43.945 4.94817C44.0459 4.99886 44.099 4.83087 44.2249 4.91969C44.3094 4.97941 44.4642 4.93653 44.5872 4.94572C44.6917 4.95338 44.8125 4.90039 44.8907 5.01877C45.0105 4.84174 45.1194 5.05261 45.2351 5.02857C45.388 4.99672 45.5207 5.06792 45.6605 5.10973C45.7854 5.14694 45.9152 5.16731 46.0428 5.19518C46.1705 5.22305 46.3126 5.22412 46.4233 5.28339C46.8905 5.53331 47.4504 5.61064 47.823 6.02671C48.1058 6.01844 48.2812 6.22502 48.4816 6.36147C49.1994 6.85028 49.8012 7.47354 50.3883 8.10431C50.9632 8.72191 51.4434 9.4196 51.7417 10.213C51.9001 10.6338 52.0791 11.0523 52.1382 11.5143C52.176 11.8107 52.2624 12.1074 52.2871 12.4076C52.3119 12.7117 52.2924 13.0195 52.2924 13.3258C52.2924 13.5485 52.2946 13.7713 52.292 13.9939C52.2894 14.2201 52.3074 14.4396 52.1647 14.6535C52.0826 14.7765 52.1028 14.9677 52.077 15.1284C52.237 15.2164 51.9348 15.3729 52.1168 15.4527C51.9982 15.6832 51.8799 15.9129 51.7606 16.1449C51.7208 16.1087 51.6938 16.0754 51.659 16.0562C51.6387 16.045 51.6058 16.0565 51.5638 16.0584C51.5355 16.1611 51.6552 16.1709 51.694 16.2708L51.694 16.6107C51.6567 16.6479 51.6076 16.6972 51.548 16.7568C51.5676 16.7824 51.5886 16.8095 51.6125 16.8404C51.4361 17.0178 51.414 17.2761 51.2909 17.4853C51.1514 17.7222 51.0271 17.9697 50.832 18.1405C50.6964 18.1044 50.5886 18.0758 50.4808 18.0471C50.4741 18.0672 50.4673 18.0873 50.4606 18.1073C50.5107 18.1291 50.5608 18.151 50.6407 18.1857C50.565 18.2376 50.4992 18.2827 50.4335 18.3277C50.4434 18.3465 50.4534 18.3654 50.4634 18.384C50.5291 18.3693 50.5949 18.3548 50.686 18.3343C50.6923 18.3843 50.7012 18.4549 50.7105 18.5289C50.6503 18.551 50.6021 18.5686 50.5317 18.5943C50.5491 18.6765 50.567 18.762 50.5937 18.8885C50.4972 18.9434 50.3672 19.018 50.2179 19.1033C50.1562 19.2425 50.0831 19.407 50.0102 19.5711C50.0226 19.5787 50.0352 19.5862 50.0477 19.5934C49.7439 19.8972 49.4612 20.2264 49.1311 20.4981C48.7348 20.8241 48.3083 21.1172 47.8764 21.3961C47.2642 21.7916 46.6372 22.1644 46.0109 22.5375C45.9366 22.5818 45.8276 22.5676 45.7158 22.5832C45.5769 22.8359 45.2722 22.87 45.0365 23.0084C44.8165 23.1377 44.5678 23.2187 44.3214 23.3254C44.2941 23.2706 44.2667 23.2155 44.2388 23.1594C44.1013 23.4946 43.7509 23.4995 43.4748 23.6346C43.4379 23.6139 43.3845 23.5841 43.3108 23.5426C43.2889 23.6136 43.2745 23.6611 43.26 23.7083C43.2502 23.7182 43.2369 23.7384 43.2309 23.7363C43.0592 23.6799 42.9142 23.7891 42.7664 23.83C42.0592 24.0269 41.338 23.9634 40.6207 23.996C40.0694 24.021 39.5303 23.9216 38.9852 23.8933C38.7778 23.8825 38.5521 23.8623 38.3555 23.8066C38.1524 23.749 37.9506 23.7807 37.7615 23.7305C37.5218 23.6669 37.2822 23.6106 37.0407 23.5553C36.7777 23.4953 36.5169 23.4158 36.2614 23.323C36.0068 23.2305 35.7439 23.1611 35.4897 23.0683C35.2361 22.9758 34.9922 22.857 34.7378 22.7669C33.9954 22.5042 33.3709 22.0301 32.6977 21.6431C32.3911 21.2912 32.0245 21.0004 31.733 20.6272C31.5031 20.3333 31.3057 20.0204 31.1134 19.7084C30.9059 19.3716 30.7697 18.9892 30.6589 18.6042C30.5423 18.2003 30.4347 17.7949 30.405 17.3721C30.3968 17.2571 30.3486 17.1453 30.3255 17.0306C30.3021 16.9153 30.3762 16.7796 30.2491 16.6847C30.2347 16.674 30.2426 16.6329 30.241 16.6061C30.2131 16.1305 30.174 15.6551 30.1604 15.179C30.1465 14.6922 30.1554 14.2048 30.1606 13.7177C30.1612 13.6728 30.2077 13.6285 30.233 13.584C30.2093 13.5573 30.1822 13.527 30.1498 13.4907C30.18 13.4203 30.2436 13.3454 30.2354 13.2792C30.1849 12.8658 30.3416 12.4699 30.3267 12.0603C30.323 11.9568 30.2812 11.8349 30.4017 11.7584C30.2719 11.6678 30.4218 11.5863 30.4135 11.4957C30.404 11.3938 30.3936 11.2931 30.4629 11.1831C30.5517 11.0418 30.4357 10.8332 30.5749 10.6885C30.5768 10.2465 30.7832 9.85465 30.8777 9.43629C30.9501 9.11577 31.0706 8.82298 31.2004 8.52467C31.3072 8.27919 31.3665 8.01212 31.4622 7.75684C31.6892 7.1518 31.9683 6.57203 32.2541 5.99715C32.4443 5.61477 32.7297 5.28155 32.9218 4.89503C33.1737 4.77543 33.2236 4.48861 33.4058 4.30209C33.5922 4.11159 33.7594 3.89291 33.9504 3.6998C34.1461 3.50195 34.3366 3.29813 34.5422 3.11084C34.8779 2.80472 35.2608 2.55358 35.6044 2.26094C35.9516 1.96523 36.3529 1.7683 36.7293 1.53201C37.0845 1.30904 37.4924 1.15499 37.8955 1.02926C38.1792 0.940903 38.4442 0.804153 38.7388 0.740907C39.1048 0.662502 39.4598 0.533867 39.8221 0.43632C39.974 0.395279 40.1709 0.426213 40.2789 0.339231C40.4404 0.209219 40.6309 0.341835 40.7767 0.217947C40.904 0.109986 41.1106 0.271086 41.2292 0.100798C41.2338 0.0942134 41.2562 0.0978887 41.2697 0.100186C41.6136 0.1619 41.9373 -0.00210917 42.2793 0.0132045C42.6127 0.0280587 42.9568 -0.0336551 43.2791 0.0279056C43.7995 0.127291 44.3416 0.132804 44.8263 0.424375C45.1912 0.643973 45.5002 0.884856 45.6636 1.28347C45.6883 1.3435 45.6895 1.41287 45.7004 1.47152Z" fill="white"/>
<path fill-rule="evenodd" clip-rule="evenodd" d="M75.8503 1.47152C75.8031 1.51884 75.7637 1.55804 75.714 1.60781C75.4575 1.57918 75.1925 1.53813 74.9261 1.52313C74.6625 1.50843 74.3973 1.51991 74.1328 1.51991C73.9241 1.51991 73.6958 1.46677 73.5117 1.53415C73.3071 1.60919 73.0837 1.5314 72.9226 1.61807C72.7355 1.71884 72.5101 1.60414 72.3575 1.7706C72.0413 1.73951 71.7788 1.9346 71.4868 1.98055C71.1583 2.03215 70.8637 2.16017 70.5622 2.27503C70.2138 2.40779 69.8541 2.50856 69.5201 2.68405C69.2821 2.80901 69.0254 2.90411 68.7786 3.00977C68.3394 3.19782 67.9616 3.4701 67.5777 3.73671C67.3674 3.8825 67.1849 4.06779 66.9893 4.23456C66.8045 4.39259 66.5979 4.53103 66.4373 4.7105C65.8693 5.34571 65.2666 5.95673 64.8981 6.74369C64.6448 6.97095 64.5428 7.29682 64.4156 7.58809C64.2883 7.87935 64.0992 8.15607 64.066 8.48684C63.7873 8.94579 63.6769 9.47074 63.5243 9.97303C63.4041 10.3686 63.226 10.7598 63.2308 11.1892C63.0793 11.3143 63.1657 11.5116 63.0833 11.6724C62.9997 11.8356 62.9469 12.0445 62.9761 12.2551C63.0038 12.4549 62.8605 12.6342 62.8905 12.8472C62.9161 13.0299 62.8877 13.2123 62.8254 13.4004C62.7649 13.5823 62.8328 13.7978 62.7372 13.9918C62.7141 14.0386 62.7994 14.1304 62.8083 14.2046C62.8144 14.2561 62.7417 14.3371 62.7609 14.3636C62.8738 14.5181 62.7786 14.687 62.8135 14.8153C62.7582 14.9189 62.7152 14.9991 62.6528 15.1156C62.7029 15.1423 62.7721 15.1794 62.8345 15.2126C62.8345 15.7634 62.8338 16.2744 62.8369 16.7853C62.8371 16.805 62.8738 16.8246 62.894 16.8449C62.8671 16.8744 62.8401 16.9041 62.8132 16.9338C62.8819 17.2003 62.9864 17.4568 62.9853 17.7415C62.9847 17.8969 63.0257 18.0551 63.0658 18.2075C63.149 18.5226 63.2159 18.8438 63.2747 19.1617C63.3412 19.5203 63.5303 19.812 63.6785 20.1243C63.8246 20.4325 64.026 20.7036 64.341 20.8923C64.7756 21.1524 65.2009 21.4305 65.6598 21.6438C65.8791 21.7457 66.1198 21.8212 66.3388 21.918C66.5682 22.0192 66.8126 22.0631 67.042 22.1307C67.2462 22.1905 67.4857 22.2124 67.7114 22.2327C67.8971 22.2493 68.0784 22.2362 68.265 22.3091C68.4317 22.3742 68.6449 22.2611 68.812 22.4013C68.8201 22.4081 68.8391 22.4022 68.853 22.4022C69.5388 22.3974 70.2239 22.5815 70.9043 22.4732C71.3643 22.4002 71.8487 22.3948 72.2776 22.1676C72.9419 22.0841 73.5166 21.7201 74.1586 21.5668C74.3344 21.4002 74.5831 21.3815 74.7829 21.2575C74.9785 21.136 75.2051 21.0661 75.4082 20.9553C76.1259 20.5641 76.8472 20.1791 77.5326 19.7313C77.6662 19.644 77.7609 19.5175 77.9121 19.4411C78.0995 19.3463 78.258 19.1856 78.4115 19.0353C78.5548 18.8947 78.7066 18.765 78.8063 18.575C78.9043 18.3879 79.0914 18.2592 79.2228 18.0822C79.5292 17.6693 79.8537 17.2654 80.0566 16.7951C80.1828 16.5029 80.3036 16.2008 80.4111 15.8971C80.5148 15.604 80.5508 15.2948 80.6741 15.0049C80.7696 14.7807 80.7462 14.5052 80.7711 14.2521C80.8016 13.9437 80.8387 13.6354 80.8523 13.3263C80.8662 13.0067 80.8744 12.6846 80.85 12.3664C80.8258 12.0514 80.7809 11.7378 80.709 11.4263C80.6679 11.2494 80.6215 11.0641 80.6111 10.8827C80.595 10.5984 80.4783 10.3531 80.3725 10.1021C80.1624 9.60336 79.8574 9.16876 79.5324 8.73339C79.1736 8.2527 78.6583 7.95898 78.2756 7.51535C78.1158 7.33021 77.8867 7.19545 77.6695 7.07232C77.5043 6.97845 77.3043 6.95931 77.1257 6.87386C76.9068 6.76911 76.6593 6.7244 76.4245 6.65227C76.4003 6.64492 76.38 6.61889 76.3564 6.61659C76.0619 6.58658 75.7673 6.55671 75.4723 6.53313C75.3616 6.52425 75.2477 6.51889 75.1389 6.53558C75.0477 6.54967 74.967 6.39944 74.8763 6.52501C74.7296 6.41215 74.5947 6.57984 74.4396 6.53987C74.3033 6.5048 74.1589 6.5509 74.0123 6.60235C73.8448 6.66115 73.6419 6.59622 73.4653 6.69607C73.356 6.75794 73.2318 6.79346 73.107 6.84384C73.0724 6.80924 73.0232 6.75993 72.9722 6.70908C72.9551 6.72195 72.9217 6.73604 72.9226 6.74783C72.9319 6.88228 72.8892 6.96926 72.7581 7.03726C72.5272 7.15716 72.3104 7.30417 72.0744 7.44781C72.0343 7.42484 71.9785 7.39314 71.8767 7.33495C71.8605 7.39942 71.8419 7.47278 71.8281 7.52775C71.8084 7.5181 71.8617 7.54398 71.928 7.57599C71.7254 7.77491 71.5246 7.96572 71.3312 8.16357C70.8735 8.63186 70.491 9.15651 70.1795 9.7323C70.0198 10.0277 69.8482 10.3184 69.7109 10.624C69.5423 10.9989 69.3689 11.3719 69.2381 11.7647C69.1443 12.0465 69.0414 12.324 68.9533 12.6084C68.8986 12.7849 68.9305 12.9652 68.8447 13.1474C68.7423 13.3651 68.8032 13.6538 68.7354 13.8955C68.6562 14.1777 68.6691 14.4572 68.6564 14.74C68.6526 14.827 68.6045 14.912 68.5755 15.0014C68.6013 15.0304 68.6284 15.0607 68.6558 15.0915C68.6395 15.1098 68.6221 15.1294 68.6081 15.1454C68.6258 15.2587 68.6575 15.3686 68.6575 15.4787C68.6573 15.8011 68.7417 16.1055 68.8261 16.4119C68.959 16.8937 69.2924 17.2095 69.7294 17.3813C70.242 17.5827 70.7839 17.6775 71.3387 17.7456C71.7911 17.801 72.2373 17.7726 72.6797 17.8138C72.8874 17.6663 73.1338 17.6136 73.3465 17.4854C73.4178 17.4424 73.51 17.4182 73.5838 17.3562C73.892 17.0962 74.229 16.8744 74.5279 16.5985C74.6616 16.475 74.8178 16.3606 74.9541 16.2316C75.3829 15.8259 75.6506 15.3199 75.8423 14.77C75.9062 14.5872 75.919 14.3758 76.0201 14.2195C76.1372 14.0382 76.0157 13.81 76.1778 13.6561C76.2055 13.3198 76.2648 12.982 76.2506 12.6472C76.2406 12.4103 76.1552 12.1751 76.1763 11.9297C76.181 11.8756 75.8928 11.2151 75.8288 11.1572C75.6898 11.0314 75.5389 10.9186 75.3932 10.8004C75.2486 10.8788 75.133 10.6836 74.9579 10.7788C74.8135 10.8574 74.5945 10.8716 74.4333 10.8266C74.2511 10.7758 74.3753 10.9216 74.314 10.9507C73.8191 11.1857 73.5031 11.6497 73.0575 11.9502C73.0358 11.9647 73.0212 11.9901 73.0436 11.9647C72.9921 12.1436 72.99 12.2967 72.9137 12.3884C72.6906 12.6572 72.6408 13.0036 72.4698 13.2935C72.4321 13.3575 72.4303 13.4449 72.4199 13.5224C72.3972 13.6929 72.4732 13.876 72.3395 14.034C72.3119 14.0665 72.3248 14.1446 72.3375 14.1971C72.3736 14.3457 72.4194 14.4918 72.469 14.6656C73.0139 14.2948 73.2139 13.6791 73.6077 13.2218L73.9122 13.2218C73.8523 13.3538 73.7979 13.4736 73.7083 13.6707C73.8359 13.6161 73.8978 13.6047 73.9391 13.5691C74.0336 13.4875 74.1181 13.3941 74.2116 13.3007C74.3354 13.3835 74.4019 13.5227 74.5177 13.6197C74.6258 13.7099 74.6609 13.8876 74.7622 14.0978C74.7662 14.4092 74.5036 14.7196 74.4236 15.087C74.273 15.1864 74.103 15.2452 74.0769 15.4829C74.0615 15.6238 73.9211 15.7509 73.8575 15.8512C73.6786 15.9308 73.5339 15.8591 73.3842 15.9487C73.1744 16.0743 72.95 15.8504 72.7199 15.8868C72.3951 15.6718 72.0084 15.5891 71.6768 15.3735C71.4275 15.2114 71.2721 14.9899 71.1046 14.772C70.9885 14.621 70.9332 14.4249 70.8305 14.2618C70.7288 14.1007 70.7288 13.9095 70.6831 13.7402C70.6133 13.4805 70.6204 13.1791 70.6755 12.912C70.7537 12.5347 70.8225 12.15 70.9955 11.7938C71.2115 11.3493 71.485 10.9477 71.8262 10.5941C72.1456 10.2631 72.467 9.93735 72.8733 9.69968C73.1365 9.54578 73.4306 9.49724 73.6998 9.3732C73.8258 9.315 73.9422 9.46171 74.0949 9.38269C74.2047 9.32603 74.3687 9.36079 74.5065 9.37457C74.6494 9.38912 74.8412 9.37947 74.921 9.46492C75.0993 9.65589 75.41 9.547 75.5466 9.78467C75.8127 9.78513 75.9768 9.98206 76.1538 10.1283C76.606 10.5021 77.0781 10.866 77.2927 11.4474C77.3239 11.5321 77.3519 11.6177 77.3812 11.7019C77.4196 11.7105 77.4576 11.7189 77.4917 11.7266C77.5536 11.9581 77.6136 12.1834 77.6753 12.4143C77.6649 12.4278 77.6484 12.4488 77.6182 12.4874C77.6689 12.5678 77.7251 12.657 77.7971 12.7713C77.6854 12.7889 77.6089 12.8011 77.5251 12.8145C77.5225 12.8563 77.5202 12.894 77.517 12.9477L77.7035 12.9477C77.7306 12.9727 77.7407 12.982 77.7508 12.9912C77.6351 13.097 77.8224 13.1935 77.7634 13.291C77.6253 13.5195 77.7101 13.7703 77.6783 14.0086C77.6541 14.189 77.6156 14.3705 77.5571 14.5425C77.5201 14.6516 77.4345 14.7441 77.3714 14.8431C77.5433 15.0968 77.2213 15.346 77.3306 15.6198C77.2997 15.6262 77.2617 15.6342 77.2193 15.6431C77.1365 15.8236 77.0504 16.011 76.9283 16.2767L76.9283 16.5564C76.8355 16.7799 76.7296 16.9462 76.5153 17.0072L76.5153 17.1914C76.2858 17.4167 76.0647 17.672 75.8019 17.8724C75.6976 17.952 75.5954 18.0387 75.4899 18.1188C75.3954 18.1908 75.2844 18.245 75.2025 18.3284C74.9288 18.6068 74.5821 18.7727 74.2433 18.9405C73.7685 19.1758 73.0903 19.2802 72.5678 19.2232C72.3774 19.2025 72.1929 19.1274 71.9836 19.0712C71.9381 19.0888 71.856 19.1548 71.7957 19.1387C71.1324 18.9626 70.4501 18.8805 69.8057 18.6013C69.3256 18.3932 68.8602 18.1646 68.4454 17.8635C68.1429 17.6442 67.874 17.3589 67.6636 17.0282C67.419 16.6436 67.1717 16.2651 67.0472 15.8208C67.037 15.7845 66.9973 15.755 66.9915 15.7192C66.9595 15.5225 66.914 15.3254 66.9099 15.1277C66.8987 14.585 66.8812 14.0405 66.9155 13.4998C66.9354 13.1886 67.0033 12.8742 67.056 12.5633C67.1068 12.2639 67.1771 11.9708 67.2337 11.6739C67.2976 11.3392 67.4264 11.0284 67.5363 10.7116C67.6247 10.4574 67.7036 10.1883 67.8354 9.96078C68.0628 9.56798 68.2129 9.14012 68.4588 8.75207C68.6945 8.38011 68.9144 7.9942 69.163 7.62805C69.2895 7.44138 69.4146 7.24828 69.5717 7.08901C69.957 6.69836 70.3149 6.27464 70.7749 5.96546C71.1729 5.69808 71.5618 5.43009 72.0289 5.2621C72.4938 5.09503 72.952 4.97145 73.4414 4.94143C73.5286 4.93607 73.6134 4.88891 73.7036 4.85966C73.7322 4.88477 73.7629 4.91127 73.7941 4.93852C73.812 4.92352 73.8316 4.90728 73.8529 4.88967C73.933 4.90774 74.0221 4.91173 74.0949 4.94817C74.1958 4.99886 74.2489 4.83087 74.3748 4.91969C74.4593 4.97941 74.6141 4.93653 74.7371 4.94572C74.8416 4.95338 74.9624 4.90039 75.0406 5.01877C75.1604 4.84174 75.2693 5.05261 75.385 5.02857C75.5379 4.99672 75.6706 5.06792 75.8104 5.10973C75.9353 5.14694 76.0651 5.16731 76.1927 5.19518C76.3204 5.22305 76.4625 5.22412 76.5732 5.28339C77.0404 5.53331 77.6003 5.61064 77.9729 6.02671C78.2557 6.01844 78.4311 6.22502 78.6315 6.36147C79.3493 6.85028 79.9511 7.47354 80.5382 8.10431C81.1131 8.72191 81.5933 9.4196 81.8916 10.213C82.05 10.6338 82.229 11.0523 82.2881 11.5143C82.3259 11.8107 82.4123 12.1074 82.437 12.4076C82.4618 12.7117 82.4423 13.0195 82.4423 13.3258C82.4423 13.5485 82.4445 13.7713 82.4419 13.9939C82.4393 14.2201 82.4573 14.4396 82.3146 14.6535C82.2325 14.7765 82.2527 14.9677 82.2269 15.1284C82.3869 15.2164 82.0847 15.3729 82.2667 15.4527C82.1481 15.6832 82.0298 15.9129 81.9105 16.1449C81.8707 16.1087 81.8437 16.0754 81.8089 16.0562C81.7886 16.045 81.7557 16.0565 81.7137 16.0584C81.6854 16.1611 81.8051 16.1709 81.8439 16.2708L81.8439 16.6107C81.8066 16.6479 81.7575 16.6972 81.6979 16.7568C81.7175 16.7824 81.7385 16.8095 81.7624 16.8404C81.586 17.0178 81.5639 17.2761 81.4408 17.4853C81.3013 17.7222 81.177 17.9697 80.9819 18.1405C80.8463 18.1044 80.7385 18.0758 80.6307 18.0471C80.624 18.0672 80.6172 18.0873 80.6105 18.1073C80.6606 18.1291 80.7107 18.151 80.7906 18.1857C80.7149 18.2376 80.6491 18.2827 80.5834 18.3277C80.5934 18.3465 80.6033 18.3654 80.6133 18.384C80.679 18.3693 80.7448 18.3548 80.8359 18.3343C80.8422 18.3843 80.8511 18.4549 80.8604 18.5289C80.8002 18.551 80.752 18.5686 80.6816 18.5943C80.699 18.6765 80.7169 18.762 80.7436 18.8885C80.6471 18.9434 80.5171 19.018 80.3678 19.1033C80.3061 19.2425 80.233 19.407 80.1601 19.5711C80.1725 19.5787 80.1851 19.5862 80.1976 19.5934C79.8938 19.8972 79.6111 20.2264 79.281 20.4981C78.8847 20.8241 78.4582 21.1172 78.0263 21.3961C77.4141 21.7916 76.7871 22.1644 76.1608 22.5375C76.0866 22.5818 75.9775 22.5676 75.8657 22.5832C75.7268 22.8359 75.4221 22.87 75.1864 23.0084C74.9664 23.1377 74.7177 23.2187 74.4713 23.3254C74.444 23.2706 74.4166 23.2155 74.3887 23.1594C74.2512 23.4946 73.9008 23.4995 73.6247 23.6346C73.5878 23.6139 73.5344 23.5841 73.4607 23.5426C73.4388 23.6136 73.4244 23.6611 73.4099 23.7083C73.4001 23.7182 73.3868 23.7384 73.3808 23.7363C73.2091 23.6799 73.0641 23.7891 72.9163 23.83C72.2091 24.0269 71.4879 23.9634 70.7706 23.996C70.2193 24.021 69.6803 23.9216 69.1351 23.8933C68.9277 23.8825 68.702 23.8623 68.5054 23.8066C68.3023 23.749 68.1005 23.7807 67.9114 23.7305C67.6717 23.6669 67.4321 23.6106 67.1906 23.5553C66.9276 23.4953 66.6668 23.4158 66.4113 23.323C66.1567 23.2305 65.8938 23.1611 65.6396 23.0683C65.386 22.9758 65.1421 22.857 64.8877 22.7669C64.1453 22.5042 63.5208 22.0301 62.8476 21.6431C62.541 21.2912 62.1744 21.0004 61.8829 20.6272C61.653 20.3333 61.4556 20.0204 61.2633 19.7084C61.0558 19.3716 60.9196 18.9892 60.8088 18.6042C60.6922 18.2003 60.5846 17.7949 60.5549 17.3721C60.5468 17.2571 60.4985 17.1453 60.4754 17.0306C60.452 16.9153 60.5261 16.7796 60.399 16.6847C60.3846 16.674 60.3925 16.6329 60.3909 16.6061C60.363 16.1305 60.3239 15.6551 60.3103 15.179C60.2964 14.6922 60.3053 14.2048 60.3105 13.7177C60.3111 13.6728 60.3576 13.6285 60.3829 13.584C60.3592 13.5573 60.3321 13.527 60.2997 13.4907C60.3299 13.4203 60.3935 13.3454 60.3853 13.2792C60.3348 12.8658 60.4915 12.4699 60.4766 12.0603C60.4729 11.9568 60.4311 11.8349 60.5517 11.7584C60.4218 11.6678 60.5717 11.5863 60.5634 11.4957C60.5539 11.3938 60.5435 11.2931 60.6128 11.1831C60.7016 11.0418 60.5856 10.8332 60.7248 10.6885C60.7267 10.2465 60.9331 9.85465 61.0276 9.43629C61.1 9.11577 61.2206 8.82298 61.3503 8.52467C61.4571 8.27919 61.5164 8.01212 61.6121 7.75684C61.8391 7.1518 62.1182 6.57203 62.404 5.99715C62.5942 5.61477 62.8796 5.28155 63.0717 4.89503C63.3236 4.77543 63.3735 4.48861 63.5557 4.30209C63.7421 4.11159 63.9093 3.89291 64.1003 3.6998C64.296 3.50195 64.4865 3.29813 64.6921 3.11084C65.0278 2.80472 65.4107 2.55358 65.7543 2.26094C66.1015 1.96523 66.5028 1.7683 66.8792 1.53201C67.2344 1.30904 67.6423 1.15499 68.0454 1.02926C68.3291 0.940903 68.5941 0.804153 68.8887 0.740907C69.2547 0.662502 69.6097 0.533867 69.972 0.43632C70.1239 0.395279 70.3208 0.426213 70.4288 0.339231C70.5903 0.209219 70.7808 0.341835 70.9266 0.217947C71.0539 0.109986 71.2605 0.271086 71.3791 0.100798C71.3837 0.0942134 71.4061 0.0978887 71.4196 0.100186C71.7635 0.1619 72.0872 -0.00210917 72.4292 0.0132045C72.7626 0.0280587 73.1067 -0.0336551 73.429 0.0279056C73.9494 0.127291 74.4915 0.132804 74.9762 0.424375C75.3411 0.643973 75.6501 0.884856 75.8135 1.28347C75.8382 1.3435 75.8394 1.41287 75.8503 1.47152Z" fill="white"/>
</svg>
