<svg width="232" height="247" viewBox="0 0 232 247" fill="none" xmlns="http://www.w3.org/2000/svg">
<path d="M195.681 160.236H215.303V153.953H195.681V160.236Z" fill="#EBEBEB"/>
<path d="M206.63 168.159C209.889 168.103 218.244 167.962 221.391 167.929H226.252L225.995 168.181V161.898L226.274 162.179C223.015 162.179 214.705 162.14 211.558 162.095L206.653 162.033L206.786 161.898L206.653 168.181L206.63 168.159ZM206.63 168.159L206.485 161.876V161.747H206.619L216.43 161.64L226.241 161.601H226.52V161.881L226.492 168.165V168.423H226.241L221.291 168.395C218.165 168.361 209.845 168.221 206.619 168.165L206.63 168.159Z" fill="#EBEBEB"/>
<path d="M131.704 200.957C134.963 200.9 143.317 200.76 146.465 200.721H151.326L151.069 200.979V194.696L151.348 194.977L141.537 194.937C139.093 194.937 134.171 194.859 131.726 194.825L131.86 194.696L131.704 200.957ZM131.704 200.957L131.576 194.673V194.539H131.704C134.154 194.505 139.071 194.449 141.515 194.432L151.326 194.393H151.605V194.673V200.957V201.209H151.354H146.404C143.278 201.176 134.963 201.035 131.732 200.979L131.704 200.957Z" fill="#EBEBEB"/>
<path d="M142.62 208.879C145.879 208.823 154.239 208.683 157.381 208.644H162.241L161.99 208.902V202.619L162.269 202.899C159.01 202.899 150.701 202.854 147.553 202.81L142.648 202.748L142.782 202.619L142.62 208.879ZM142.62 208.879L142.491 202.596V202.461H142.625C145.075 202.428 149.992 202.372 152.436 202.355L162.247 202.315H162.526V202.596V208.879V209.132H162.269H157.319C154.194 209.098 145.879 208.958 142.648 208.902L142.62 208.879Z" fill="#EBEBEB"/>
<path d="M153.524 200.951H173.146V194.668H153.524V200.951Z" fill="#EBEBEB"/>
<path d="M41.6095 219.352H61.2312V213.068H41.6095V219.352Z" fill="#EBEBEB"/>
<path d="M21.8037 16.4912L41.4254 16.4912V10.208L21.8037 10.208V16.4912Z" fill="#EBEBEB"/>
<path d="M10.8544 24.4138C14.1135 24.3633 22.4678 24.2229 25.6153 24.1836H30.4761L30.2194 24.4363V18.1587L30.4984 18.4338C27.2393 18.4338 18.9297 18.3945 15.7822 18.3496L10.8768 18.2878L11.0107 18.1587L10.8768 24.4363L10.8544 24.4138ZM10.8544 24.4138L10.7261 18.1362V18.0015H10.86C13.3099 17.9678 18.2265 17.9116 20.6708 17.8892L30.4817 17.8555H30.7607V18.1418V24.4195V24.6777H30.5096H25.5595C22.4343 24.6441 14.1191 24.4981 10.8879 24.4419L10.8544 24.4138Z" fill="#EBEBEB"/>
<path d="M194.408 16.4968C197.668 16.4407 206.027 16.3003 209.169 16.261H214.03L213.779 16.5193L213.74 10.2136L214.019 10.4888L204.208 10.4551C201.769 10.4551 196.842 10.3765 194.397 10.3428L194.531 10.2136L194.397 16.4968H194.408ZM194.408 16.4968L194.28 10.2136V10.1069H194.414C196.864 10.0732 201.781 10.0171 204.225 9.99463L214.036 9.96094H214.315V10.2473V16.5305V16.7832H214.058H209.108C205.983 16.7495 197.668 16.6035 194.436 16.553L194.408 16.4968Z" fill="#EBEBEB"/>
<path d="M218.199 127.091L173.844 116.181L187.768 58.8965L220.699 66.9934L229.466 80.7221L218.199 127.091Z" fill="#EBEBEB"/>
<path d="M220.699 66.9932L229.466 80.7219L218.048 77.9088L220.699 66.9932Z" fill="#DBDBDB"/>
<path d="M189.4 71.0425L214.06 77.1094L214.418 75.6367L189.758 69.5699L189.4 71.0425Z" fill="#DBDBDB"/>
<path d="M188.984 74.3277L213.609 80.458L213.97 78.9874L189.345 72.8572L188.984 74.3277Z" fill="#DBDBDB"/>
<path d="M187.598 78.4703L212.258 84.5371L212.615 83.0644L187.955 76.9976L187.598 78.4703Z" fill="#DBDBDB"/>
<path d="M186.697 82.1824L222.828 91.0713L223.186 89.5986L187.055 80.7097L186.697 82.1824Z" fill="#DBDBDB"/>
<path d="M185.791 85.8953L221.922 94.7842L222.28 93.3115L186.149 84.4226L185.791 85.8953Z" fill="#DBDBDB"/>
<path d="M184.889 89.6092L221.02 98.498L221.378 97.0254L185.247 88.1365L184.889 89.6092Z" fill="#DBDBDB"/>
<path d="M183.987 93.323L220.118 102.212L220.476 100.739L184.345 91.8504L183.987 93.323Z" fill="#DBDBDB"/>
<path d="M183.08 97.035L219.21 105.924L219.568 104.451L183.438 95.5623L183.08 97.035Z" fill="#DBDBDB"/>
<path d="M182.184 100.743L218.315 109.632L218.673 108.159L182.542 99.2703L182.184 100.743Z" fill="#DBDBDB"/>
<path d="M181.282 104.457L217.413 113.346L217.771 111.873L181.64 102.984L181.282 104.457Z" fill="#DBDBDB"/>
<path d="M180.375 108.17L216.506 117.059L216.864 115.586L180.733 106.697L180.375 108.17Z" fill="#DBDBDB"/>
<path d="M179.473 111.888L215.604 120.777L215.962 119.305L179.831 110.416L179.473 111.888Z" fill="#DBDBDB"/>
<path d="M226.47 126.989C226.093 128.537 225.269 129.938 224.101 131.015C222.934 132.091 221.475 132.795 219.909 133.038C218.344 133.28 216.742 133.05 215.307 132.377C213.871 131.704 212.666 130.617 211.845 129.255C211.023 127.892 210.621 126.316 210.69 124.723C210.759 123.131 211.296 121.596 212.232 120.31C213.168 119.025 214.463 118.048 215.951 117.503C217.439 116.958 219.055 116.869 220.593 117.247C222.656 117.756 224.433 119.068 225.535 120.895C226.637 122.721 226.973 124.913 226.47 126.989Z" fill="#C7C7C7"/>
<path d="M223.028 124.045L215.314 122.147L213.603 129.189L221.317 131.087L223.028 124.045Z" fill="white"/>
<path d="M221.726 126.03L220.945 125.839L221.709 122.695C221.822 122.093 221.701 121.471 221.372 120.957C221.042 120.443 220.529 120.076 219.938 119.932C219.347 119.788 218.723 119.878 218.196 120.183C217.669 120.488 217.278 120.985 217.105 121.572L216.341 124.716L215.559 124.525L216.324 121.381C216.413 120.963 216.584 120.567 216.827 120.216C217.071 119.866 217.382 119.569 217.741 119.341C218.101 119.114 218.503 118.962 218.922 118.894C219.342 118.825 219.77 118.842 220.183 118.944C220.596 119.045 220.984 119.229 221.325 119.484C221.666 119.739 221.952 120.061 222.167 120.429C222.383 120.798 222.522 121.206 222.578 121.63C222.633 122.054 222.603 122.485 222.491 122.897L221.726 126.03Z" fill="white"/>
<path d="M218.618 126.788L218.567 128.41L217.194 128.073L217.892 126.608C217.808 126.519 217.749 126.41 217.719 126.291C217.69 126.172 217.692 126.048 217.725 125.93C217.757 125.812 217.82 125.704 217.907 125.618C217.993 125.532 218.1 125.47 218.218 125.438C218.335 125.406 218.459 125.405 218.577 125.435C218.695 125.466 218.803 125.527 218.89 125.612C218.978 125.697 219.042 125.804 219.076 125.921C219.111 126.039 219.114 126.163 219.086 126.282C219.057 126.4 218.999 126.508 218.917 126.596C218.835 126.684 218.732 126.75 218.618 126.788Z" fill="#C7C7C7"/>
<path d="M23.8463 179.635L77.9146 163.044L65.9528 123.579L11.8845 140.17L23.8463 179.635Z" fill="#EBEBEB"/>
<path d="M25.4083 176.684L74.9873 161.471L64.3994 126.539L14.8204 141.752L25.4083 176.684Z" fill="white"/>
<path d="M23.6342 149.922C23.9642 150.979 24.5975 151.914 25.4546 152.609C26.3116 153.305 27.354 153.73 28.4505 153.831C29.5471 153.932 30.6488 153.704 31.6169 153.176C32.585 152.648 33.3764 151.844 33.8913 150.865C34.4062 149.886 34.6217 148.775 34.5106 147.673C34.3995 146.57 33.9668 145.526 33.267 144.67C32.5672 143.815 31.6316 143.187 30.5779 142.866C29.5241 142.544 28.3994 142.543 27.3453 142.864C26.6387 143.078 25.9815 143.432 25.4116 143.904C24.8418 144.376 24.3706 144.957 24.0255 145.613C23.6803 146.27 23.468 146.989 23.4008 147.728C23.3337 148.468 23.413 149.213 23.6342 149.922Z" fill="#DBDBDB"/>
<path d="M39.7902 172.471L74.4351 161.842L49.9526 143.531L39.7902 172.471Z" fill="#DBDBDB"/>
<path d="M26.2125 176.649L54.8134 167.873L35.8559 156.879L26.2125 176.649Z" fill="#EBEBEB"/>
<path d="M18.8642 203.94L69.9141 179.518L52.3054 142.256L1.25554 166.678L18.8642 203.94Z" fill="#EBEBEB"/>
<path d="M19.9748 200.785L66.786 178.391L51.1999 145.409L4.38866 167.804L19.9748 200.785Z" fill="white"/>
<path d="M14.2809 174.566C14.7569 175.566 15.5168 176.403 16.4647 176.969C17.4126 177.536 18.5061 177.807 19.6071 177.749C20.708 177.691 21.7673 177.306 22.651 176.643C23.5348 175.979 24.2036 175.068 24.5729 174.022C24.9422 172.977 24.9956 171.845 24.7263 170.77C24.4569 169.694 23.877 168.723 23.0596 167.978C22.2421 167.234 21.2239 166.75 20.1333 166.587C19.0428 166.424 17.9287 166.59 16.9318 167.064C16.2668 167.38 15.6705 167.825 15.1771 168.373C14.6836 168.922 14.3028 169.563 14.0565 170.26C13.8101 170.958 13.7031 171.697 13.7417 172.436C13.7802 173.174 13.9635 173.898 14.2809 174.566Z" fill="#DBDBDB"/>
<path d="M33.5678 194.5L66.2762 178.851L39.3773 164.375L33.5678 194.5Z" fill="#DBDBDB"/>
<path d="M20.749 200.647L47.7539 187.727L27.3844 179.664L20.749 200.647Z" fill="#EBEBEB"/>
<path d="M74.1057 34.7809C75.7661 27.63 71.3507 20.4788 64.2436 18.8082C57.1365 17.1375 50.029 21.5801 48.3686 28.731C46.7082 35.8818 51.1236 43.033 58.2307 44.7037C65.3378 46.3743 72.4453 41.9317 74.1057 34.7809Z" fill="#EBEBEB"/>
<path d="M53.4685 31.7924C53.4978 29.6382 54.3682 27.582 55.8917 26.068C57.4152 24.5541 59.4694 23.7039 61.6107 23.7012C63.4546 23.716 65.2426 24.3394 66.7003 25.4755C67.0476 25.7537 67.2774 26.1537 67.3437 26.5953C67.4099 27.0369 67.3077 27.4874 67.0575 27.8563C66.921 28.0369 66.7505 28.1886 66.5556 28.3028C66.3608 28.4169 66.1455 28.4913 65.922 28.5215C65.6986 28.5518 65.4714 28.5374 65.2535 28.4791C65.0356 28.4208 64.8312 28.3199 64.6522 28.182C63.7749 27.5179 62.7085 27.1557 61.6107 27.1488C60.3911 27.1488 59.2215 27.6363 58.3591 28.504C57.4967 29.3717 57.0122 30.5485 57.0122 31.7756C57.0122 33.0027 57.4967 34.1795 58.3591 35.0472C59.2215 35.9149 60.3911 36.4024 61.6107 36.4024C62.707 36.3917 63.7717 36.032 64.6522 35.3748C65.0203 35.108 65.4771 34.9957 65.926 35.0617C66.3749 35.1277 66.7807 35.3669 67.0575 35.7286C67.3067 36.0988 67.4084 36.5498 67.3422 36.992C67.276 37.4342 67.0469 37.8351 66.7003 38.115C65.2185 39.1941 63.4398 39.7827 61.6107 39.7995C59.4811 39.8058 57.4342 38.9701 55.9112 37.4723C54.3882 35.9746 53.5109 33.9348 53.4685 31.7924Z" fill="white"/>
<path d="M61.3261 59.3956C61.3261 59.3956 65.9915 95.9607 60.6843 105.849C54.3167 117.713 47.5418 117.994 45.2481 123.856C40.4041 119.858 34.3547 122.941 23.0426 115.692C13.6169 109.656 0 75.4378 0 75.4378C16.9987 61.0689 25.5651 47.7275 25.5651 47.7275C26.006 47.9409 39.8684 55.2461 61.3261 59.3956Z" fill="#455A64"/>
<path opacity="0.1" d="M25.5763 47.7275L45.2481 123.856C40.4041 119.858 34.3547 122.941 23.0426 115.692C13.6169 109.656 0 75.4378 0 75.4378C16.9987 61.0689 25.5651 47.7275 25.5651 47.7275H25.5763Z" fill="#333333"/>
<path d="M5.49695 77.0439C5.49695 77.0439 17.0043 105.95 24.9568 111.054C34.5165 117.186 39.634 114.58 43.7246 117.949C45.6611 113.003 51.3925 112.772 56.7722 102.733C61.2368 94.3775 57.3303 63.4892 57.3303 63.4892C38.9141 59.9236 27.1277 53.6123 27.1277 53.6123C27.1277 53.6123 19.8505 64.9042 5.49695 77.0439Z" fill="#455A64"/>
<path opacity="0.1" d="M5.49695 77.0439C5.49695 77.0439 17.0043 105.95 24.9568 111.054C34.5165 117.186 39.634 114.58 43.7246 117.949C45.6611 113.003 51.3925 112.772 56.7722 102.733C61.2368 94.3775 57.3303 63.4892 57.3303 63.4892C38.9141 59.9236 27.1277 53.6123 27.1277 53.6123C27.1277 53.6123 19.8505 64.9042 5.49695 77.0439Z" fill="#333333"/>
<path opacity="0.1" d="M5.49695 77.0444C5.49695 77.0444 17.0043 105.951 24.9624 111.055C34.5109 117.181 39.6228 114.581 43.7134 117.944L27.0942 53.624C26.8765 53.9722 19.6272 65.0899 5.49695 77.0444Z" fill="#333333"/>
<path d="M40.739 77.184L42.7145 84.8373L40.566 85.3988L38.5625 77.7455C37.8147 74.8369 35.002 73.0401 32.301 73.7476C29.5999 74.4551 28.0095 77.3974 28.7628 80.3116L30.7384 87.9649L28.5898 88.5264L26.6143 80.8562C25.5316 76.6843 27.8197 72.4674 31.7094 71.451C35.5992 70.4347 39.6228 72.9952 40.739 77.184Z" fill="white"/>
<path d="M45.5935 80.1069L23.7618 85.8164L27.944 102.006L49.7757 96.2962L45.5935 80.1069Z" fill="white"/>
<path d="M37.731 91.3396L39.5893 95.0905L36.0567 96.017L35.867 91.8338C35.4882 91.7154 35.158 91.476 34.9265 91.152C34.695 90.8279 34.5747 90.4367 34.5839 90.0377C34.593 89.6387 34.7312 89.2536 34.9774 88.9407C35.2236 88.6277 35.5644 88.404 35.9483 88.3034C36.3321 88.2028 36.7381 88.2308 37.1047 88.3831C37.4714 88.5355 37.7787 88.8038 37.9802 89.1476C38.1817 89.4914 38.2663 89.8919 38.2214 90.2884C38.1764 90.685 38.0042 91.056 37.731 91.3452V91.3396Z" fill="#455A64"/>
<path d="M198.349 204.242C198.349 204.242 202.841 188.003 206.435 182.494C210.029 176.986 216.715 170.922 216.715 170.922C216.715 170.922 216.558 195.965 198.349 204.242Z" fill="#FFC727"/>
<path d="M197.495 204.264C197.495 204.264 205.57 189.294 203.226 174.78C200.882 160.265 198.365 155.127 198.365 155.127C198.365 155.127 185.664 177.671 197.495 204.264Z" fill="#FFC727"/>
<path d="M194.174 180.731C194.859 184.843 195.903 188.887 197.294 192.815C197.294 187.492 197.417 182.146 197.562 176.84C196.652 173.608 196.138 170.276 196.032 166.918C196.032 166.823 196.178 166.828 196.183 166.918C196.439 169.795 196.913 172.648 197.601 175.453C197.723 171.055 197.865 166.662 198.025 162.274C198.025 162.201 198.142 162.201 198.142 162.274C198.142 169.136 198.142 176.003 198.097 182.865C199.079 180.211 199.857 177.485 200.424 174.712C200.424 174.684 200.475 174.712 200.469 174.712C200.154 177.911 199.36 181.044 198.114 184.005C198.081 188.39 198.036 192.781 197.941 197.166C199.303 192.5 200.765 187.986 201.161 183.056C201.161 182.988 201.267 182.988 201.262 183.056C201.156 188.491 199.766 194.011 197.98 199.12C197.964 199.171 197.933 199.216 197.891 199.25C197.852 200.855 197.807 202.456 197.751 204.062C197.744 204.103 197.722 204.141 197.69 204.168C197.658 204.195 197.617 204.21 197.576 204.21C197.534 204.21 197.493 204.195 197.461 204.168C197.429 204.141 197.407 204.103 197.4 204.062C197.333 200.782 197.31 197.503 197.316 194.224C195.556 189.929 194.482 185.381 194.135 180.748C194.102 180.697 194.169 180.692 194.174 180.731Z" fill="#263238"/>
<path d="M194.727 178.412C195.005 179.717 195.191 181.04 195.285 182.371C195.285 182.381 195.281 182.391 195.273 182.399C195.266 182.406 195.256 182.41 195.246 182.41C195.235 182.41 195.225 182.406 195.218 182.399C195.211 182.391 195.207 182.381 195.207 182.371C194.891 181.079 194.669 179.765 194.542 178.44C194.542 178.334 194.71 178.317 194.727 178.412Z" fill="#263238"/>
<path d="M199.453 167.474C199.453 167.429 199.532 167.44 199.532 167.474C199.519 168.398 199.382 169.316 199.124 170.203C199.124 170.27 199.001 170.242 199.018 170.169C199.191 169.282 199.303 168.372 199.453 167.474Z" fill="#263238"/>
<path d="M194.543 204.264C194.543 204.264 194.872 188.637 190.413 180.872C185.954 173.106 178.582 169.147 178.582 169.147C178.582 169.147 181.551 196.689 194.543 204.264Z" fill="#FFC727"/>
<path d="M186.423 190.912C188.212 193.641 190.228 196.213 192.45 198.599C191.561 195.402 190.532 192.261 189.364 189.177C186.869 186.976 184.391 184.685 182.857 181.675C182.857 181.625 182.901 181.585 182.929 181.63C184.603 184.303 186.785 186.437 189.101 188.492C187.313 183.839 185.242 179.301 182.901 174.903C182.895 174.892 182.891 174.88 182.889 174.867C182.888 174.855 182.889 174.842 182.892 174.83C182.896 174.818 182.901 174.806 182.909 174.796C182.917 174.786 182.926 174.778 182.937 174.771C182.948 174.765 182.961 174.761 182.973 174.76C182.986 174.758 182.998 174.759 183.011 174.762C183.023 174.766 183.034 174.771 183.044 174.779C183.054 174.787 183.062 174.797 183.069 174.808C184.501 177.11 185.805 179.491 186.975 181.939C186.557 180.254 186.222 178.57 185.798 176.885C185.798 176.876 185.801 176.868 185.807 176.862C185.814 176.855 185.822 176.852 185.831 176.852C185.84 176.852 185.848 176.855 185.855 176.862C185.861 176.868 185.865 176.876 185.865 176.885C186.742 179.012 187.357 181.239 187.695 183.517C189.25 186.974 190.555 190.54 191.601 194.185C191.484 191.844 191.339 189.508 191.099 187.172C191.099 187.133 191.172 187.122 191.177 187.172C191.675 189.762 191.901 192.396 191.853 195.033C192.494 197.363 193.036 199.722 193.471 202.091C193.471 202.159 193.387 202.187 193.371 202.119C193.131 201.126 192.868 200.137 192.6 199.155C192.6 199.155 192.561 199.155 192.55 199.155C190.066 196.763 187.986 193.979 186.395 190.912C186.395 190.912 186.395 190.912 186.423 190.912Z" fill="#263238"/>
<path d="M181.26 178.188C181.757 178.749 182.209 179.311 182.689 179.872C183.156 180.339 183.585 180.842 183.973 181.377C183.973 181.377 183.973 181.428 183.939 181.411C183.379 180.992 182.879 180.497 182.455 179.94C181.985 179.416 181.562 178.852 181.188 178.255C181.16 178.199 181.221 178.148 181.26 178.188Z" fill="#263238"/>
<path d="M207.244 205.403L206.686 212.81L205.012 235.18H190.229L188.554 212.81L187.996 205.403H207.266H207.244Z" fill="#37474F"/>
<path d="M207.244 205.404L206.904 209.896L188.376 210.643L187.974 205.393H207.244V205.404Z" fill="#263238"/>
<path d="M186.668 207.447H208.556V201.77H186.668V207.447Z" fill="#37474F"/>
<g opacity="0.5">
<path d="M173.799 146.311C171.009 181.231 142.112 191.759 142.112 191.759C139.986 197.088 137.212 210.564 137.212 210.564H98.6162C98.6162 210.564 95.8258 197.088 93.7219 191.759C93.7219 191.759 64.8084 181.231 62.0348 146.311C60.1095 122.048 77.2812 86.1794 117.708 86.1738H118.126C158.553 86.1794 175.724 122.048 173.799 146.311Z" fill="#FFC727"/>
</g>
<g opacity="0.7">
<path d="M169.028 146.485C166.494 178.424 140.047 188.037 140.047 188.037C138.099 192.894 135.583 210.547 135.583 210.547H100.268C100.268 210.547 97.7288 192.894 95.8035 188.037C95.8035 188.037 69.3567 178.407 66.823 146.485C65.0595 124.295 80.7747 91.4861 117.741 91.458H118.126C155.081 91.4861 170.769 124.295 169.028 146.485Z" fill="#FFC727"/>
</g>
<path d="M102.6 169.852L100.959 170.187L109.794 214.035L111.435 213.701L102.6 169.852Z" fill="white"/>
<path d="M133.247 169.868L124.413 213.711L126.054 214.046L134.888 170.202L133.247 169.868Z" fill="white"/>
<path d="M117.92 187.233C115.224 187.233 112.758 184.886 111.028 181.893C110.717 182.284 110.33 182.606 109.892 182.842C109.454 183.077 108.972 183.221 108.477 183.263C104.108 183.263 102.339 174.813 102.26 174.453L102.818 174.341C102.818 174.425 104.571 182.702 108.488 182.702C108.937 182.656 109.371 182.516 109.763 182.292C110.155 182.067 110.496 181.764 110.765 181.399C109.421 179.008 108.657 176.333 108.533 173.589C108.533 171.247 109.465 169.905 111.095 169.905C112.992 169.905 114.08 171.331 114.08 173.836C113.999 176.587 113.07 179.246 111.424 181.444C113.065 184.358 115.403 186.683 117.914 186.683C119.929 186.683 121.921 185.15 123.495 182.371C123.533 182.309 123.569 182.245 123.601 182.18C123.116 181.684 122.698 181.127 122.356 180.523C120.71 177.654 120.381 173.561 121.625 171.393C121.849 170.949 122.19 170.575 122.612 170.313C123.033 170.051 123.519 169.912 124.014 169.911C124.393 169.909 124.766 170.012 125.09 170.211C125.414 170.409 125.677 170.694 125.85 171.034C127.066 173.156 126.33 178.182 124.293 182.079C125.143 182.854 126.248 183.285 127.396 183.286C130.744 183.286 133.295 174.959 133.317 174.863L133.875 175.026C133.769 175.386 131.196 183.831 127.418 183.836C126.188 183.824 125.002 183.374 124.07 182.567C124.07 182.567 124.042 182.618 124.025 182.646C122.301 185.599 120.141 187.233 117.92 187.233ZM124.059 170.461C123.661 170.461 123.272 170.574 122.935 170.787C122.599 170.999 122.328 171.303 122.155 171.663C121.039 173.639 121.352 177.564 122.887 180.231C123.175 180.747 123.523 181.226 123.925 181.658C125.828 177.929 126.531 173.235 125.415 171.298C125.289 171.04 125.092 170.824 124.847 170.676C124.603 170.528 124.321 170.453 124.036 170.461H124.059ZM111.122 170.461C109.448 170.461 109.119 172.146 109.119 173.583C109.244 176.141 109.944 178.637 111.167 180.883C112.636 178.807 113.464 176.343 113.55 173.796C113.528 172.567 113.21 170.467 111.1 170.467L111.122 170.461Z" fill="white"/>
<path d="M142.09 210.614H93.7386V237.387H142.09V210.614Z" fill="#455A64"/>
<path d="M136.609 237.387C133.769 242.44 128.317 247 117.914 247C107.512 247 102.065 242.457 99.2245 237.387H136.609Z" fill="#455A64"/>
<path d="M136.609 237.387C135.767 238.902 134.713 240.288 133.479 241.503L100.19 238.936C99.8405 238.438 99.5183 237.92 99.2245 237.387H136.609Z" fill="#37474F"/>
<path d="M143.507 215.719L92.3268 220.48V218.144L143.507 213.383V215.719Z" fill="#37474F"/>
<path d="M143.507 222.788L92.3268 227.55V225.214L143.507 220.452V222.788Z" fill="#37474F"/>
<path d="M143.507 229.857L92.3268 234.619V232.283L143.507 227.521V229.857Z" fill="#37474F"/>
<g opacity="0.5">
<path d="M74.2231 138.13C75.9921 138.428 78.2914 129.225 88.1245 118.567C92.4998 113.834 109.074 107.899 107.88 102.452C106.686 97.0057 91.8971 102.604 84.4413 111.279C72.4763 125.255 72.5823 137.878 74.2231 138.13Z" fill="white"/>
<path d="M161.444 140.067C164.703 140.067 164.708 134.969 161.444 134.969C158.179 134.969 158.179 140.067 161.444 140.067Z" fill="white"/>
<path d="M145.488 178.413C147.269 179.783 155.924 171.748 159.825 162.163C163.062 154.206 163.62 144.15 161.444 143.566C159.267 142.982 157.855 156.784 155.238 161.865C151.929 168.283 143.585 176.953 145.488 178.413Z" fill="white"/>
</g>
<path d="M97.9744 143.139C97.9744 131.628 107.523 122.431 118.885 122.363C123.623 122.397 128.219 123.991 131.972 126.9C132.862 127.618 133.451 128.648 133.619 129.784C133.788 130.92 133.524 132.078 132.882 133.026C131.207 135.014 128.596 135.345 126.698 133.857C124.446 132.15 121.705 131.22 118.885 131.207C112.216 131.207 106.697 136.755 106.697 143.133C106.697 149.512 112.216 154.975 118.868 154.975C121.686 154.946 124.422 154.018 126.681 152.325C127.626 151.633 128.803 151.341 129.959 151.513C131.115 151.684 132.158 152.304 132.865 153.24C133.503 154.191 133.763 155.347 133.595 156.481C133.426 157.616 132.841 158.645 131.955 159.366C128.152 162.163 123.578 163.699 118.868 163.763C107.523 163.763 97.9744 154.487 97.9744 143.139Z" fill="#FFC727"/>
<g opacity="0.1">
<path d="M97.9744 143.139C97.9744 131.628 107.523 122.431 118.885 122.363C123.623 122.397 128.219 123.991 131.972 126.9C132.862 127.618 133.451 128.648 133.619 129.784C133.788 130.92 133.524 132.078 132.882 133.026C131.207 135.014 128.596 135.345 126.698 133.857C124.446 132.15 121.705 131.22 118.885 131.207C112.216 131.207 106.697 136.755 106.697 143.133C106.697 149.512 112.216 154.975 118.868 154.975C121.686 154.946 124.422 154.018 126.681 152.325C127.626 151.633 128.803 151.341 129.959 151.513C131.115 151.684 132.158 152.304 132.865 153.24C133.503 154.191 133.763 155.347 133.595 156.481C133.426 157.616 132.841 158.645 131.955 159.366C128.152 162.163 123.578 163.699 118.868 163.763C107.523 163.763 97.9744 154.487 97.9744 143.139Z" fill="#333333"/>
</g>
<path d="M117.914 177.227C111.197 177.227 104.63 175.223 99.0448 171.468C93.4595 167.713 89.1062 162.376 86.5356 156.132C83.9649 149.887 83.2923 143.016 84.6028 136.387C85.9133 129.758 89.1481 123.669 93.898 118.89C98.648 114.111 104.7 110.856 111.288 109.538C117.877 108.219 124.706 108.896 130.912 111.482C137.118 114.069 142.422 118.449 146.154 124.068C149.886 129.688 151.878 136.295 151.878 143.054C151.869 152.115 148.288 160.801 141.921 167.208C135.553 173.615 126.919 177.218 117.914 177.227ZM117.914 115.99C112.594 115.991 107.394 117.579 102.972 120.553C98.5488 123.528 95.1019 127.755 93.0669 132.701C91.0318 137.646 90.4999 143.088 91.5385 148.337C92.577 153.587 95.1393 158.409 98.9014 162.193C102.663 165.978 107.456 168.555 112.674 169.599C117.892 170.643 123.3 170.106 128.215 168.058C133.13 166.009 137.33 162.54 140.286 158.09C143.241 153.639 144.819 148.407 144.819 143.054C144.811 135.877 141.974 128.997 136.93 123.923C131.886 118.849 125.047 115.995 117.914 115.99Z" fill="#FFC727"/>
<path opacity="0.1" d="M117.914 177.227C111.197 177.227 104.63 175.223 99.0448 171.468C93.4595 167.713 89.1062 162.376 86.5356 156.132C83.9649 149.887 83.2923 143.016 84.6028 136.387C85.9133 129.758 89.1481 123.669 93.898 118.89C98.648 114.111 104.7 110.856 111.288 109.538C117.877 108.219 124.706 108.896 130.912 111.482C137.118 114.069 142.422 118.449 146.154 124.068C149.886 129.688 151.878 136.295 151.878 143.054C151.869 152.115 148.288 160.801 141.921 167.208C135.553 173.615 126.919 177.218 117.914 177.227ZM117.914 115.99C112.594 115.991 107.394 117.579 102.972 120.553C98.5488 123.528 95.1019 127.755 93.0669 132.701C91.0318 137.646 90.4999 143.088 91.5385 148.337C92.577 153.587 95.1393 158.409 98.9014 162.193C102.663 165.978 107.456 168.555 112.674 169.599C117.892 170.643 123.3 170.106 128.215 168.058C133.13 166.009 137.33 162.54 140.286 158.09C143.241 153.639 144.819 148.407 144.819 143.054C144.811 135.877 141.974 128.997 136.93 123.923C131.886 118.849 125.047 115.995 117.914 115.99Z" fill="#333333"/>
<path d="M207.64 141.645C206.228 141.679 169.586 130.28 168.458 128.961C168.341 128.815 168.91 123.346 169.859 119.022C169.904 118.815 156.845 101.616 156.845 101.616L180.451 92.3789L191.747 115.923L194.688 122.043C194.688 122.043 206.909 134.396 207.992 135.991C209.075 137.586 209.052 141.612 207.64 141.645Z" fill="#EB9481"/>
<path d="M207.64 141.645C206.228 141.673 169.58 130.28 168.458 128.955C168.336 128.809 168.91 123.34 169.854 119.017C169.854 118.949 169.016 117.798 167.778 116.119L192.494 117.461L194.682 122.026C194.682 122.026 206.909 134.379 207.992 135.974C209.075 137.569 209.052 141.611 207.64 141.645Z" fill="#EBEBEB"/>
<path d="M208.673 141.853C207.199 141.893 168.944 130.146 167.766 128.77C167.32 128.248 168.001 125.867 169.859 119.022L194.939 122.06C194.939 122.06 207.886 134.29 209.013 135.941C210.14 137.591 210.146 141.814 208.673 141.853Z" fill="#FFC727"/>
<path opacity="0.3" d="M208.673 141.853C207.199 141.893 168.944 130.146 167.766 128.77C167.32 128.248 168.001 125.867 169.859 119.022L194.939 122.06C194.939 122.06 207.886 134.29 209.013 135.941C210.14 137.591 210.146 141.814 208.673 141.853Z" fill="#333333"/>
<path d="M208.595 140.146C202.227 138.018 176.355 130.039 169.904 128.422C169.854 128.422 169.842 128.422 169.904 128.461C176.165 130.707 202.099 138.478 208.572 140.253C208.717 140.286 208.717 140.191 208.595 140.146Z" fill="#263238"/>
<path d="M206.976 133.795C206.269 133.557 205.52 133.47 204.778 133.538C204.035 133.607 203.315 133.83 202.662 134.193C201.48 134.835 200.591 135.911 200.179 137.197C200.179 137.237 200.24 137.259 200.257 137.197C200.864 135.986 201.844 135.006 203.052 134.404C204.259 133.801 205.629 133.609 206.954 133.856C206.96 133.854 206.965 133.85 206.969 133.846C206.973 133.842 206.976 133.836 206.978 133.83C206.98 133.825 206.981 133.818 206.981 133.812C206.981 133.806 206.979 133.8 206.976 133.795Z" fill="#263238"/>
<path d="M197.556 124.604C195 123.778 191.747 123.778 189.514 125.401C189.425 125.463 189.514 125.586 189.604 125.57C192.208 125.077 194.857 124.865 197.506 124.935C197.547 124.937 197.588 124.924 197.62 124.897C197.652 124.871 197.673 124.833 197.679 124.792C197.686 124.751 197.677 124.709 197.654 124.674C197.631 124.639 197.596 124.614 197.556 124.604Z" fill="#263238"/>
<path d="M199.275 125.99C196.719 125.165 193.465 125.165 191.233 126.788C191.144 126.85 191.233 126.973 191.322 126.956C193.929 126.467 196.58 126.26 199.23 126.339C199.253 126.342 199.276 126.34 199.298 126.334C199.32 126.328 199.341 126.318 199.359 126.304C199.377 126.289 199.392 126.272 199.404 126.252C199.415 126.232 199.423 126.21 199.426 126.187C199.429 126.164 199.427 126.141 199.421 126.119C199.415 126.096 199.405 126.076 199.391 126.057C199.377 126.039 199.359 126.024 199.339 126.012C199.32 126.001 199.298 125.993 199.275 125.99Z" fill="#263238"/>
<path d="M201.022 127.377C198.466 126.552 195.212 126.552 192.974 128.175C192.891 128.236 192.974 128.36 193.069 128.343C195.673 127.845 198.322 127.633 200.971 127.708C201.013 127.71 201.053 127.697 201.086 127.671C201.118 127.644 201.139 127.607 201.145 127.566C201.151 127.524 201.142 127.482 201.119 127.448C201.097 127.413 201.062 127.388 201.022 127.377Z" fill="#263238"/>
<path d="M202.768 128.764C200.212 127.939 196.959 127.933 194.721 129.556C194.637 129.623 194.721 129.741 194.816 129.73C197.418 129.232 200.065 129.02 202.713 129.095C202.755 129.099 202.797 129.087 202.83 129.061C202.864 129.035 202.886 128.998 202.894 128.956C202.901 128.914 202.892 128.871 202.868 128.835C202.845 128.8 202.809 128.774 202.768 128.764Z" fill="#263238"/>
<path d="M202.394 118.567C201.423 117.085 199.465 117.641 198.321 118.516C196.388 120.065 194.893 122.096 193.984 124.407C193.981 124.417 193.98 124.428 193.981 124.439C193.983 124.45 193.986 124.46 193.992 124.469C193.998 124.478 194.006 124.486 194.015 124.492C194.025 124.497 194.035 124.501 194.046 124.502C194.046 124.704 194.213 124.929 194.442 124.856C196.674 124.143 199.107 123.66 201.038 122.29C202.166 121.487 203.31 119.965 202.394 118.567ZM197.556 123.087C196.479 123.463 195.385 123.783 194.319 124.21C195.131 123.044 196.001 121.919 196.925 120.841C197.382 120.324 197.873 119.839 198.393 119.387C199.208 118.702 202.383 117.32 201.786 120.207C201.462 121.779 198.867 122.638 197.556 123.087Z" fill="#263238"/>
<path d="M187.321 123.407C189.447 124.435 191.947 124.502 194.247 124.834C194.298 124.837 194.35 124.828 194.397 124.808C194.445 124.787 194.486 124.756 194.519 124.716C194.552 124.675 194.575 124.628 194.586 124.577C194.596 124.526 194.595 124.474 194.582 124.424C194.592 124.421 194.602 124.416 194.611 124.408C194.619 124.401 194.626 124.392 194.63 124.381C194.634 124.371 194.636 124.36 194.636 124.349C194.635 124.338 194.632 124.327 194.626 124.317C193.351 122.189 191.542 120.437 189.38 119.235C188.108 118.556 186.082 118.337 185.373 119.96C184.665 121.582 186.077 122.801 187.321 123.407ZM186.205 121.459C185.139 118.708 188.499 119.544 189.414 120.083C189.999 120.441 190.558 120.838 191.088 121.274C192.18 122.185 193.225 123.152 194.219 124.171C193.103 123.941 191.987 123.806 190.843 123.61C189.52 123.391 186.802 122.969 186.216 121.459H186.205Z" fill="#263238"/>
<path d="M174.374 123.093C176.935 123.733 175.959 127.731 173.397 127.097C170.836 126.462 171.812 122.459 174.374 123.093Z" fill="white"/>
<path d="M191.858 113.536L165.835 117.405C165.835 117.405 152.715 94.9446 146.978 88.4705C146.655 88.1002 146.304 87.7549 145.929 87.4373C145.337 87.1636 144.699 87.0018 144.048 86.96C136.353 86.0167 110.453 88.5491 92.5555 87.3868L100.927 76.1567L104.632 71.1705C124.795 68.8571 149.534 60.5637 160.701 66.2012C172.783 72.2991 191.858 113.536 191.858 113.536Z" fill="#263238"/>
<path d="M188.627 109.089C184.201 109.651 185.463 109.438 181.048 110.061C178.883 110.364 168.017 111.863 166.048 112.481C166.003 112.481 166.014 112.571 166.048 112.571C168.112 112.571 178.944 110.853 181.115 110.504C185.519 109.808 184.246 109.943 188.644 109.213C188.652 109.212 188.66 109.209 188.667 109.205C188.674 109.201 188.68 109.195 188.685 109.189C188.69 109.182 188.693 109.175 188.695 109.167C188.697 109.159 188.698 109.151 188.697 109.143C188.696 109.135 188.693 109.127 188.689 109.12C188.685 109.113 188.679 109.107 188.673 109.102C188.666 109.097 188.659 109.093 188.651 109.091C188.643 109.089 188.635 109.088 188.627 109.089Z" fill="#37474F"/>
<path d="M165.969 112.116C163.023 107.163 150.695 86.1741 148.028 85.2084C145.6 84.3324 96.9922 85.3487 96.2723 85.3543C96.2165 85.3543 96.2165 85.4386 96.2723 85.4386C102.026 85.36 146.454 85.2027 147.721 85.7081C150.355 86.7581 165.311 111.661 165.707 112.25C165.802 112.408 166.07 112.301 165.969 112.116Z" fill="#37474F"/>
<path d="M78.9276 77.1502C78.9276 77.1502 77.3929 91.8953 84.8319 99.2285C93.761 108.01 152.464 105.792 161.566 102.833C170.668 99.8742 170.959 85.0955 161.008 81.6703C151.521 78.4136 109.571 76.5381 108.578 76.1395C107.584 75.7408 104.671 71.0859 104.671 71.0859L78.9276 77.1502Z" fill="#263238"/>
<path d="M91.3613 76.7352C91.3613 76.6622 91.2385 76.6846 91.2385 76.7352C91.2453 78.6536 90.5748 80.5122 89.3466 81.9796C87.9515 83.6024 85.8978 84.5064 84.0338 85.4553C83.8553 85.5452 83.9892 85.8259 84.1733 85.7698C85.3189 85.4179 86.4229 84.9416 87.4659 84.3492C88.422 83.8356 89.2634 83.1305 89.9382 82.2772C90.5436 81.5028 90.9827 80.6104 91.2276 79.6564C91.4726 78.7025 91.5181 77.7077 91.3613 76.7352Z" fill="#37474F"/>
<path d="M108.176 75.2417C107.763 74.6802 107.311 74.2029 106.876 73.6807C105.849 72.4566 104.816 71.2213 103.745 70.0365C103.644 69.9242 103.443 70.0814 103.538 70.205C104.258 71.1595 105.028 72.0804 105.771 73.0125C106.156 73.4898 106.541 73.9671 106.931 74.4387C107.351 74.8597 107.726 75.3247 108.047 75.8256C108.327 76.3534 107.958 76.8026 107.417 76.8644C106.934 76.8738 106.466 76.6993 106.105 76.3759C105.289 75.6518 104.542 74.8529 103.873 73.9895C103.443 73.501 103.008 73.0125 102.573 72.5296C102.138 72.0467 101.607 71.5245 101.144 71.0135C101.144 70.9798 101.055 71.0135 101.083 71.0641C101.49 71.6256 101.864 72.1871 102.271 72.7486C102.679 73.3101 103.092 73.8716 103.51 74.4331C103.929 74.9946 104.32 75.4663 104.744 75.9716C105.097 76.4117 105.519 76.791 105.994 77.0946C106.775 77.5551 108.126 77.6561 108.539 76.6454C108.608 76.4002 108.612 76.1406 108.548 75.8937C108.484 75.6468 108.356 75.4216 108.176 75.2417Z" fill="#37474F"/>
<path d="M160.322 102.89C157.191 102.946 154.06 103.131 150.924 103.198C147.788 103.266 144.707 103.283 141.593 103.249C135.35 103.193 129.111 102.949 122.875 102.519C116.58 102.081 109.789 101.452 103.533 100.576C100.542 100.161 97.5112 99.8125 94.5534 99.1724C91.894 98.6655 89.4346 97.4029 87.466 95.5338C83.4144 91.6033 81.8407 85.7693 81.1933 80.216C81.104 79.4692 81.037 78.7224 80.9757 77.97C80.9757 77.9595 80.9715 77.9496 80.9642 77.9422C80.9569 77.9348 80.9469 77.9307 80.9366 77.9307C80.9262 77.9307 80.9163 77.9348 80.909 77.9422C80.9016 77.9496 80.8975 77.9595 80.8975 77.97C81.2658 83.6636 82.142 89.5987 85.7025 94.1806C87.2118 96.1809 89.2198 97.7441 91.5231 98.7119C94.3135 99.8349 97.4331 100.11 100.391 100.509C106.669 101.368 113.489 102.03 119.8 102.525C126.112 103.019 132.53 103.327 138.903 103.423C145.276 103.518 151.655 103.423 158.017 103.114C158.798 103.075 159.574 103.024 160.35 102.957C160.372 102.957 160.366 102.884 160.322 102.89Z" fill="#37474F"/>
<path d="M168.693 89.105C168.092 86.6348 166.595 84.4798 164.496 83.0632C162.236 81.5135 159.54 80.8172 156.867 80.4186C153.848 79.975 150.784 79.7504 147.748 79.4528C141.517 78.8463 135.278 78.2848 129.031 77.7683C122.792 77.2517 109.353 76.2017 108.594 76.168C108.527 76.168 108.516 76.2803 108.594 76.2859C114.616 76.9597 120.096 77.538 126.134 78.0883C132.173 78.6386 138.261 79.2113 144.322 79.829C147.343 80.1247 150.362 80.4298 153.379 80.7442C156.17 81.0362 159.049 81.3057 161.672 82.4287C163.958 83.2769 165.874 84.9067 167.086 87.0331C168.157 89.2079 168.471 91.6815 167.978 94.0575C167.561 96.2637 166.554 98.3137 165.065 99.987C163.635 101.642 161.727 102.806 159.607 103.317C159.049 103.435 158.385 103.524 157.877 103.626C157.844 103.626 157.799 103.715 157.838 103.715C162.353 103.828 166.527 100.515 168.157 96.3709C169.066 94.0602 169.253 91.5254 168.693 89.105Z" fill="#37474F"/>
<path d="M103.243 46.442C113.846 51.8437 124.79 53.7809 128.021 53.4159C132.111 52.9555 146.13 43.6851 146.839 42.9944C148.58 41.2762 139.026 27.3565 137.078 29.114C134.12 31.7868 124.243 40.6417 122.998 40.7372C121.754 40.8326 114.287 40.6585 103.7 39.9174C96.3672 39.4008 96.6462 43.0899 103.243 46.442Z" fill="#EB9481"/>
<path d="M145.148 43.7971C146.9 43.2356 154.719 40.1024 156.7 38.7435C158.681 37.3847 164.072 32.9825 163.207 31.3485C162.342 29.7146 160.634 30.8656 160.634 30.8656C160.634 30.8656 162.632 28.6645 161.589 27.1036C160.545 25.5426 157.978 27.4124 157.978 27.4124C157.978 27.4124 159.864 24.9979 158.715 23.5156C157.565 22.0332 155.299 24.3522 155.299 24.3522C155.299 24.3522 157.13 22.2241 155.667 21.4043C153.915 20.4217 150.985 24.7228 148.686 26.0648C148.161 26.3736 137.664 31.5058 137.664 31.5058L145.148 43.7971Z" fill="#EB9481"/>
<path d="M155.5 24.1443C153.335 27.3 151.845 28.3051 148.401 29.793C148.394 29.7952 148.387 29.7989 148.381 29.8038C148.375 29.8086 148.37 29.8146 148.367 29.8214C148.363 29.8282 148.361 29.8356 148.36 29.8433C148.359 29.8509 148.36 29.8587 148.362 29.866C148.365 29.8734 148.368 29.8803 148.373 29.8862C148.378 29.8922 148.384 29.8972 148.391 29.9008C148.397 29.9045 148.405 29.9067 148.412 29.9075C148.42 29.9083 148.428 29.9075 148.435 29.9053C151.94 28.7823 153.988 27.7716 155.656 24.2398C155.734 24.0825 155.6 24.0039 155.5 24.1443Z" fill="#263238"/>
<path d="M158.145 27.1595C155.617 30.2421 154.01 31.3427 150.516 33.1676C150.466 33.1676 150.516 33.2799 150.556 33.2574C154.133 31.7582 156.136 30.725 158.279 27.3111C158.38 27.1539 158.262 27.0191 158.145 27.1595Z" fill="#263238"/>
<path d="M160.45 30.9498C157.788 33.7573 156.08 35.0488 152.459 36.3796C152.445 36.388 152.435 36.4006 152.429 36.4154C152.424 36.4303 152.423 36.4465 152.428 36.4618C152.432 36.477 152.441 36.4904 152.454 36.4998C152.467 36.5093 152.482 36.5144 152.498 36.5143C156.326 35.5205 158.469 33.9258 160.528 31.0453C160.668 30.8487 160.618 30.7757 160.45 30.9498Z" fill="#263238"/>
<path d="M135.527 31.5849C135.527 31.5849 137.759 27.3231 139.121 25.6723C140.482 24.0215 147.888 19.754 148.909 21.3375C150.21 23.3476 146.415 26.6549 144.35 28.0306C144.35 28.0306 147.358 32.6798 145.142 35.6446C142.927 38.6093 135.527 31.5849 135.527 31.5849Z" fill="#EB9481"/>
<path d="M149.088 21.9833C148.96 24.6729 146.13 26.3013 144.222 27.7893C144.193 27.8101 144.169 27.8375 144.153 27.8692C144.137 27.9009 144.128 27.9361 144.128 27.9718C144.128 28.0074 144.137 28.0426 144.153 28.0743C144.169 28.1061 144.193 28.1335 144.222 28.1543C145.338 30.1869 146.359 33.3875 145.293 35.5942C145.285 35.6069 145.282 35.6222 145.285 35.637C145.288 35.6517 145.297 35.6646 145.31 35.6728C145.322 35.681 145.338 35.6838 145.352 35.6807C145.367 35.6775 145.38 35.6686 145.388 35.656C146.856 33.4099 146.119 30.215 144.741 28.07C146.716 26.5764 149.484 24.8189 149.116 21.9833C149.11 21.9665 149.088 21.9665 149.088 21.9833Z" fill="#263238"/>
<path d="M134.059 29.6533L144.199 46.2626C144.199 46.2626 131.046 54.6178 126.927 54.8368C122.808 55.0558 109.219 50.3447 102.199 46.9757C95.1785 43.6067 96.5402 38.7778 102.45 39.1147C108.36 39.4516 122.842 40.1478 123.35 39.9288C123.858 39.7099 134.059 29.6533 134.059 29.6533Z" fill="#FFC727"/>
<path d="M137.246 41.9327C136.13 40.0742 135.013 38.21 133.825 36.3963C133.149 35.3631 132.474 34.33 131.788 33.3024C131.788 33.2631 131.693 33.3024 131.715 33.3417C132.77 35.2508 133.83 37.1656 134.969 39.0241C136.107 40.8827 137.201 42.7357 138.384 44.5718C139.043 45.6162 139.729 46.6325 140.449 47.6376C140.449 47.6376 140.499 47.6376 140.488 47.6376C139.517 45.6723 138.401 43.7969 137.246 41.9327Z" fill="#263238"/>
<path opacity="0.1" d="M116.033 52.3825C111.318 50.8653 106.698 49.0614 102.199 46.9808C95.2343 43.6118 96.5346 38.7773 102.45 39.1198L103.935 39.204L116.033 52.3825Z" fill="#333333"/>
<path d="M77.2478 79.2957C77.3259 79.4024 113.416 75.9772 113.796 75.6066C114.32 75.0844 111.268 47.7167 105.603 38.9629C104.186 36.7786 98.9064 36.2676 96.2891 37.9802C83.381 46.4646 76.952 78.9139 77.2478 79.2957Z" fill="#FFC727"/>
<path d="M91.3334 41.0175C84.9324 46.2732 68.2629 67.2622 72.0131 72.0181C75.7633 76.7741 100.43 74.4382 107.584 72.1361C109.711 71.451 103.812 57.8739 101.501 57.2618C99.5817 56.7509 88.9616 59.9851 88.7496 59.3675C88.5096 58.6656 90.753 54.0556 94.3302 45.6499C98.4711 35.9359 94.1628 38.6929 91.3334 41.0175Z" fill="#EB9481"/>
<path d="M111.519 55.3702C116.29 55.3702 117.518 56.0889 121.564 53.9215C124.204 52.5009 126.235 53.5846 124.488 56.1676C121.636 60.4069 115.481 61.7321 113.215 61.5692L111.519 55.3702Z" fill="#EB9481"/>
<path d="M98.46 58.2057C98.46 58.2057 104.124 55.9597 109.208 55.46C112.724 55.1006 120.465 55.1736 126.721 63.7197C128.205 65.7467 128.891 69.6941 125.27 67.2684C122.702 65.5446 121.586 63.6692 119.912 62.9448C119.912 62.9448 120.191 68.0714 118.115 69.4863C116.298 70.7249 114.396 71.832 112.423 72.7992C112.166 72.4758 111.929 72.1364 111.714 71.7829C111.714 71.7829 109.649 72.9059 106.133 72.103L98.46 58.2057Z" fill="#EB9481"/>
<path d="M112.618 55.6562C114.131 56.7343 117.3 59.0702 119.231 61.8833C121.374 65.0165 124.667 71.6254 122.351 73.1976C120.677 74.3206 119.181 71.9342 119.181 71.9342C119.181 71.9342 119.968 74.9551 118.21 75.657C116.608 76.2971 115.576 74.3599 115.576 74.3599C115.576 74.3599 115.743 76.2747 114.08 76.606C112.082 76.9878 112.066 72.9113 109.711 71.5524C109.18 71.2155 112.618 55.6562 112.618 55.6562Z" fill="#EB9481"/>
<path d="M115.565 63.6126C117.588 65.9284 118.861 68.8098 119.214 71.8724C119.214 71.951 119.164 71.9959 119.147 71.9285C118.275 69.0271 117.057 66.2424 115.52 63.6351C115.52 63.6351 115.548 63.6014 115.565 63.6126Z" fill="#263238"/>
<path d="M112.49 65.8812C113.461 67.0716 115.498 70.8505 115.643 74.3374C115.643 74.4161 115.587 74.4554 115.57 74.388C114.854 71.4508 113.809 68.6046 112.456 65.9037C112.456 65.9037 112.473 65.87 112.49 65.8812Z" fill="#263238"/>
<path d="M119.918 62.8887C121.38 63.5512 122.273 64.4384 123.439 65.5165C124.009 66.0569 124.609 66.5649 125.236 67.0382C125.794 67.4649 126.659 68.0994 127.396 67.6615C127.572 67.5171 127.707 67.3281 127.786 67.114C127.866 66.8998 127.887 66.6682 127.848 66.443C127.744 65.794 127.54 65.1651 127.245 64.5788C127.245 64.5788 127.245 64.5395 127.279 64.5788C127.572 65.1141 127.81 65.6786 127.987 66.2633C128.107 66.6605 128.107 67.0846 127.987 67.4818C127.647 68.3016 126.637 68.2735 125.967 67.9478C125.57 67.7362 125.196 67.4841 124.851 67.1954C124.511 66.9315 124.181 66.6339 123.858 66.3644C123.199 65.7692 122.574 65.1403 121.927 64.5395C121.289 63.9715 120.616 63.4445 119.912 62.9617C119.912 62.9617 119.884 62.8887 119.918 62.8887Z" fill="#263238"/>
<path d="M122.384 68.7559C121.676 66.7659 120.839 64.8245 119.879 62.9443C119.879 62.9443 119.879 62.8938 119.912 62.9443C121.092 64.6704 122.054 66.5378 122.775 68.5032C123.172 69.5795 123.346 70.7258 123.288 71.8722C123.071 73.4782 121.971 73.6354 121.569 73.6578C121.093 73.6815 120.623 73.5365 120.241 73.2479C119.796 72.8843 119.431 72.431 119.17 71.9172H119.203C119.672 72.6247 120.504 73.3715 121.391 73.3771C121.584 73.3841 121.777 73.3525 121.958 73.2841C122.139 73.2156 122.305 73.1118 122.446 72.9784C122.736 72.6255 122.889 72.1785 122.875 71.7206C122.878 70.7117 122.712 69.7094 122.384 68.7559Z" fill="#263238"/>
<path d="M98.4432 57.515L103.907 74.7644C103.907 74.7644 73.0511 77.4316 71.176 71.839C69.3009 66.2464 83.7102 47.3069 89.7485 42.0456C96.7578 35.9364 97.2155 38.4127 95.0446 44.359C92.7788 50.5917 88.8165 59.5196 88.8165 59.5196L98.4432 57.515Z" fill="#FFC727"/>
<path d="M79.134 62.5963C80.6557 61.8205 82.2318 61.158 83.8497 60.6142C85.4496 60.0836 87.0852 59.6689 88.744 59.3733C89.6927 59.1992 90.6414 59.0701 91.5957 58.9297C91.6236 58.9297 91.6292 58.969 91.5957 58.9746C89.928 59.2776 88.2789 59.6769 86.6568 60.1706C85.0384 60.6479 83.4367 61.1476 81.8407 61.6811C80.9366 61.9843 80.0437 62.3324 79.1508 62.6637C79.1173 62.6805 79.095 62.6188 79.134 62.5963Z" fill="#263238"/>
<path d="M98.365 57.4529C98.2088 57.4529 89.6536 59.0756 89.369 59.1655C89.4192 59.0419 91.4785 54.8643 91.7854 54.2523C91.8189 54.1905 91.8468 54.1288 91.8747 54.067C92.0645 53.8031 92.2542 53.5392 92.4328 53.2641L93.108 52.2197L92.3881 53.236C92.2765 53.3988 92.1705 53.556 92.07 53.7189L92.6393 52.3993C92.9574 51.6975 93.2531 50.9956 93.5489 50.2881H93.5154C92.9071 51.5065 92.2598 52.7026 91.6515 53.921C91.0432 55.1395 88.7328 59.5922 88.7328 59.5922C88.7328 59.5922 98.1865 57.6213 98.3706 57.5708C98.383 57.5663 98.3936 57.558 98.4008 57.547C98.4081 57.536 98.4117 57.523 98.4111 57.5098C98.4105 57.4966 98.4057 57.4839 98.3974 57.4737C98.3891 57.4635 98.3777 57.4562 98.365 57.4529Z" fill="#263238"/>
<path d="M97.4889 68.0997C96.8917 66.1793 96.3113 64.2478 95.6417 62.3443C95.2622 61.2662 94.8827 60.1825 94.492 59.1044C94.492 59.0651 94.4083 59.1044 94.4195 59.1044C94.9441 61.0584 95.4742 63.0349 96.0937 64.9496C96.7131 66.8644 97.2991 68.7959 97.9353 70.7107C98.2925 71.7944 98.6887 72.8668 99.1128 73.9337C99.1128 73.9337 99.1575 73.9337 99.1519 73.9337C98.6887 71.9684 98.0916 70.0369 97.4889 68.0997Z" fill="#263238"/>
<path d="M104.258 75.0671C104.024 74.5056 103.745 73.7588 103.488 73.231C103.421 73.0906 103.321 73.1019 103.371 73.231C103.538 73.7139 103.656 74.2473 103.817 74.7471C103.388 74.7471 102.958 74.7864 102.523 74.8201L101.027 74.9267C100.05 74.9941 99.0682 75.0503 98.0916 75.1008C96.1086 75.1944 94.1237 75.2468 92.137 75.258C88.1558 75.2992 84.1751 75.1324 80.2111 74.7583C79.095 74.646 77.9788 74.5168 76.8962 74.3484C75.8076 74.2049 74.7272 74.0044 73.6594 73.7476C73.6315 73.7476 73.6203 73.7869 73.6594 73.7981C74.5674 74.127 75.5006 74.3805 76.4497 74.5561C77.4375 74.7414 78.4364 74.8987 79.4354 75.0278C81.4277 75.2749 83.4367 75.4209 85.4458 75.5051C89.4192 75.6792 93.4094 75.6792 97.3884 75.5051C98.5046 75.4602 99.6207 75.404 100.737 75.331C101.295 75.2973 101.853 75.2636 102.411 75.2131C103.03 75.221 103.648 75.1721 104.258 75.0671Z" fill="#263238"/>
<path d="M140.042 78.6445H100.703V80.2392H140.042V78.6445Z" fill="#455A64"/>
<path d="M122.468 78.6445H100.703V80.2392H122.468V78.6445Z" fill="#A6A6A6"/>
<path d="M121.809 80.2384H156.287L161.159 56.6777H126.681L121.809 80.2384Z" fill="#A6A6A6"/>
<path d="M123.372 80.2384H157.85L162.721 56.6777H128.244L123.372 80.2384Z" fill="#C7C7C7"/>
<path d="M140.75 68.9866C140.712 69.2784 140.736 69.5752 140.822 69.8565C140.908 70.1378 141.054 70.397 141.249 70.6163C141.444 70.8356 141.684 71.0098 141.953 71.1269C142.221 71.2439 142.511 71.3011 142.804 71.2944C143.432 71.2816 144.035 71.0411 144.501 70.6172C144.968 70.1933 145.267 69.6144 145.343 68.9866C145.382 68.6946 145.357 68.3976 145.271 68.116C145.185 67.8345 145.04 67.5749 144.845 67.3552C144.65 67.1355 144.41 66.9608 144.141 66.8431C143.873 66.7254 143.582 66.6674 143.289 66.6733C142.66 66.6863 142.057 66.9276 141.59 67.3526C141.124 67.7777 140.825 68.3579 140.75 68.9866Z" fill="#EBEBEB"/>
<path d="M102.188 46.3689C102.188 46.3689 95.8761 40.1924 91.8022 40.3721L88.3589 43.4716C88.3589 43.4716 87.2428 43.8534 86.8745 43.1347C85.9983 41.3491 85.803 37.0199 89.4918 34.1955C92.8402 31.607 98.4209 31.7698 103.047 32.9771C107.512 34.1338 111.368 37.0817 110.018 40.0071C108.667 42.9325 102.188 46.3689 102.188 46.3689Z" fill="#FFC727"/>
<path opacity="0.1" d="M102.629 44.9932C102.629 44.9932 107.707 41.3098 108.209 39.1311C108.712 36.9525 104.392 34.903 101.602 34.1057C97.2712 32.8648 94.347 33.1567 91.9249 35.487C89.5029 37.8172 102.629 44.9932 102.629 44.9932Z" fill="#333333"/>
<path d="M103.092 43.9319C101.479 44.1172 97.913 41.3153 96.423 38.8447C96.3225 38.6762 96.5067 36.8345 96.6239 34.5885C96.6853 33.224 96.7299 31.708 96.6685 30.3154L105.425 32.0449C105.009 33.805 104.807 35.6093 104.822 37.4185C104.836 37.6078 104.866 37.7956 104.911 37.98C104.909 38.0117 104.909 38.0436 104.911 38.0754C105.151 39.1591 105.614 43.6399 103.092 43.9319Z" fill="#EB9481"/>
<path d="M104.917 37.9861C104.917 37.9861 104.917 38.0422 104.917 38.0815C104.622 38.1337 104.323 38.1637 104.024 38.1714C99.0961 38.2781 97.6228 32.2924 97.288 30.4395L105.419 32.0454C104.999 33.8068 104.795 35.6133 104.811 37.4246C104.831 37.6143 104.866 37.8021 104.917 37.9861Z" fill="#263238"/>
<path d="M94.0009 21.3368C93.6159 24.5486 96.7913 33.061 99.2858 34.6332C102.913 36.9129 108.07 36.2672 109.8 32.0559C111.474 27.9794 107.155 16.9626 104.431 15.615C100.452 13.6217 94.5646 16.5864 94.0009 21.3368Z" fill="#EB9481"/>
<path d="M101.914 24.7905C102.133 24.6351 102.344 24.4683 102.545 24.2908C102.791 24.0943 103.003 23.9651 103.103 23.6563C103.122 23.5663 103.11 23.4725 103.07 23.39C103.029 23.3075 102.962 23.2411 102.88 23.2015C102.705 23.1454 102.518 23.1372 102.338 23.1776C102.159 23.2181 101.993 23.3057 101.859 23.4317C101.55 23.6464 101.331 23.9684 101.245 24.3357C101.232 24.42 101.243 24.5062 101.277 24.5843C101.311 24.6624 101.366 24.7293 101.436 24.777C101.506 24.8247 101.589 24.8513 101.673 24.8537C101.758 24.8561 101.842 24.8342 101.914 24.7905Z" fill="#263238"/>
<path d="M107.752 22.859C107.485 22.8938 107.217 22.9144 106.948 22.9208C106.667 22.9812 106.375 22.9456 106.117 22.8197C106.042 22.766 105.988 22.6885 105.963 22.5999C105.937 22.5112 105.942 22.4166 105.977 22.3312C106.07 22.1719 106.203 22.0402 106.363 21.9494C106.522 21.8587 106.703 21.8122 106.887 21.8146C107.259 21.7661 107.636 21.8559 107.947 22.0673C108.016 22.1197 108.068 22.1913 108.097 22.2732C108.126 22.3551 108.13 22.4437 108.109 22.528C108.088 22.6123 108.043 22.6887 107.98 22.7475C107.916 22.8064 107.837 22.8451 107.752 22.859Z" fill="#263238"/>
<path d="M104.61 29.4455C104.832 29.6274 105.091 29.7599 105.368 29.8344C105.644 29.9089 105.934 29.9237 106.217 29.8779C106.465 29.8476 106.706 29.7775 106.931 29.6702C106.977 29.6552 107.02 29.6344 107.06 29.6084L107.182 29.5466C107.211 29.5297 107.233 29.5044 107.246 29.4742C107.259 29.4439 107.262 29.4104 107.255 29.3782C107.256 29.3595 107.256 29.3407 107.255 29.322V29.2715C107.121 28.8223 106.848 28.1485 106.848 28.1485C107.037 28.1485 107.964 28.2664 107.897 28.0362C107.162 26.0421 106.227 24.1287 105.106 22.3257C105.073 22.2639 104.984 22.3257 105.006 22.3762C105.67 24.2236 106.68 25.9418 107.35 27.7835C107.01 27.7457 106.666 27.757 106.329 27.8172C106.273 27.8565 106.887 29.0918 106.92 29.2996C106.571 29.4583 106.193 29.545 105.81 29.5547C105.426 29.5643 105.045 29.4967 104.688 29.3557C104.593 29.3613 104.56 29.4119 104.61 29.4455Z" fill="#263238"/>
<path d="M106.591 29.5354C106.453 29.9361 106.217 30.2953 105.905 30.5798C105.728 30.7288 105.509 30.819 105.279 30.8381C104.777 30.8718 104.627 30.4506 104.587 30.0576C104.563 29.8487 104.563 29.6376 104.587 29.4287C105.227 29.6796 105.929 29.717 106.591 29.5354Z" fill="#263238"/>
<path d="M105.91 30.5796C105.733 30.7286 105.515 30.8188 105.285 30.8379C104.783 30.8715 104.632 30.4504 104.593 30.0574C104.839 29.9841 105.102 29.9957 105.341 30.0903C105.58 30.1849 105.78 30.3572 105.91 30.5796Z" fill="#FF9ABB"/>
<path d="M103.7 25.7559C103.7 25.7559 103.661 25.8008 103.667 25.8232C103.862 26.3847 103.99 27.0922 103.527 27.446C104.152 27.1877 103.974 26.2724 103.7 25.7559Z" fill="#263238"/>
<path d="M102.997 25.3069C102.048 25.5203 102.539 27.4182 103.421 27.2216C104.303 27.0251 103.801 25.1272 102.997 25.3069Z" fill="#263238"/>
<path d="M107.037 24.6328C107.037 24.6328 107.093 24.6328 107.099 24.6721C107.227 25.2673 107.478 25.9243 108.053 25.986C108.053 25.986 108.053 25.986 108.053 26.0197C107.389 26.0927 107.065 25.2168 107.037 24.6328Z" fill="#263238"/>
<path d="M107.406 23.8859C108.332 23.5715 108.885 25.4525 108.031 25.7445C107.177 26.0365 106.63 24.1442 107.406 23.8859Z" fill="#263238"/>
<path d="M106.987 18.6477C106.429 17.9907 105.815 17.3394 105.313 17.3282C104.811 17.3169 105.034 18.8162 104.018 19.2092C102.645 19.737 101.284 18.3333 99.3529 19.0351C96.9588 19.9055 96.2612 22.0897 97.4164 26.1326C98.4488 29.7599 96.5458 30.838 96.5458 30.838C96.5458 30.838 92.4161 23.3812 93.8336 20.0795C95.2511 16.7779 99.9723 14.049 104.163 15.4977C105.687 16.0255 106.987 18.6477 106.987 18.6477Z" fill="#263238"/>
<path d="M97.1429 28.1653C97.1429 28.1653 94.6093 25.7284 93.4708 26.6942C92.3323 27.6599 94.6316 31.4669 96.2611 31.7477C96.4655 31.7961 96.6776 31.8022 96.8844 31.7657C97.0913 31.7292 97.2886 31.6508 97.4644 31.5353C97.6402 31.4198 97.7909 31.2696 97.9074 31.0937C98.0238 30.9179 98.1036 30.7201 98.1418 30.5124L97.1429 28.1653Z" fill="#EB9481"/>
<path d="M94.1572 27.7664V27.8113C95.2734 28.0247 96.0435 28.895 96.635 29.8384C96.5549 29.7427 96.4549 29.6657 96.3422 29.613C96.2294 29.5602 96.1065 29.5328 95.9821 29.5328C95.8577 29.5328 95.7348 29.5602 95.6221 29.613C95.5093 29.6657 95.4093 29.7427 95.3292 29.8384C95.3292 29.8384 95.3292 29.9001 95.3682 29.8889C95.543 29.7882 95.7449 29.7455 95.9452 29.7666C96.1455 29.7878 96.3341 29.8718 96.4844 30.0068C96.7174 30.2383 96.9251 30.4943 97.1038 30.7705C97.1764 30.8547 97.3326 30.7705 97.2768 30.6694C97.0424 29.2937 95.6249 27.6148 94.1572 27.7664Z" fill="#263238"/>
<path d="M101.669 15.161C100.423 14.9145 99.1486 14.8521 97.8851 14.9757C96.4788 15.1386 92.2542 16.5423 91.4339 17.6653C90.6135 18.7883 91.339 22.9379 91.4339 23.5387C91.5287 24.1395 92.7007 27.6882 94.2242 28.2385C95.7477 28.7887 94.3637 22.6234 95.8984 20.0854C97.4331 17.5474 101.669 15.161 101.669 15.161Z" fill="#FFC727"/>
<path opacity="0.1" d="M101.669 15.1609C101.669 15.1609 97.4833 17.5417 95.9263 20.0853C94.3693 22.6289 95.7477 28.7886 94.2521 28.2383C93.5824 27.9969 93.1694 27.4971 92.6951 26.5931C92.5332 24.7345 92.5723 21.7754 93.588 19.4845C94.5367 17.3395 96.7076 15.8347 99.1966 14.9082C100.026 14.9241 100.853 15.0086 101.669 15.1609Z" fill="#333333"/>
<path d="M95.4799 31.7701C95.1953 30.0856 95.7757 25.324 96.8974 22.3874C98.0191 19.4507 102.752 16.7274 103.477 16.5926C105.229 16.267 105.81 17.0025 106.044 16.7779C106.278 16.5533 104.069 15.0092 103.51 14.8351C102.676 14.6461 101.811 14.6461 100.977 14.8351C100.229 15.0373 95.7087 16.6488 94.5088 19.052C93.309 21.4553 92.2766 27.615 93.0746 28.9345C93.2643 29.2546 93.7666 29.3612 94.0289 29.8105C94.3749 30.372 94.6874 31.1075 94.9888 31.495C95.2901 31.8824 95.5022 31.9105 95.4799 31.7701Z" fill="#FFC727"/>
<path d="M97.0201 21.1635C96.5647 21.0129 96.1224 20.8251 95.6974 20.602C95.2624 20.3848 94.8542 20.1172 94.4808 19.8047C94.4808 19.8047 94.4195 19.8047 94.4418 19.844C94.7753 20.2144 95.1652 20.529 95.597 20.7761C96.0327 21.0163 96.5101 21.1707 97.0033 21.2309C97.0591 21.2646 97.0703 21.1804 97.0201 21.1635Z" fill="#263238"/>
<path d="M95.0613 30.1415C94.9817 30.039 94.8959 29.9415 94.8045 29.8495C94.7095 29.7342 94.6254 29.6101 94.5534 29.4789C94.4537 29.2171 94.3265 28.9667 94.1739 28.7321C94.02 28.5636 93.8478 28.4129 93.6605 28.2829C93.442 28.1558 93.2728 27.9578 93.1806 27.7214C93.1806 27.714 93.1776 27.7068 93.1724 27.7016C93.1672 27.6963 93.1601 27.6934 93.1527 27.6934C93.1453 27.6934 93.1382 27.6963 93.1329 27.7016C93.1277 27.7068 93.1248 27.714 93.1248 27.7214C93.2475 28.2212 93.6828 28.4907 93.9786 28.8444C94.1435 29.0978 94.2872 29.3645 94.4083 29.6418C94.5412 29.8894 94.7509 30.0866 95.0055 30.2033C95.0445 30.2257 95.0892 30.1752 95.0613 30.1415Z" fill="#263238"/>
<path d="M95.1952 28.2321C94.9899 28.0976 94.7924 27.9513 94.6036 27.7942C94.425 27.6294 94.2572 27.4531 94.1014 27.2664C93.9507 27.0867 93.8112 26.8901 93.6605 26.7049C93.5098 26.5196 93.281 26.2893 93.1024 26.0647C93.1024 26.031 93.041 26.0647 93.0634 26.0984C93.2364 26.3343 93.3703 26.6038 93.5321 26.8396C93.6775 27.048 93.836 27.2468 94.0065 27.4348C94.1649 27.6147 94.3406 27.7783 94.5311 27.9233C94.7183 28.0777 94.9348 28.1923 95.1673 28.2602L95.1952 28.2321Z" fill="#263238"/>
<path d="M95.3905 26.4914C94.9828 26.2848 94.6069 26.0201 94.2744 25.7053C93.9507 25.3965 93.6382 25.0652 93.3368 24.7339C93.3346 24.7309 93.3319 24.7285 93.3287 24.7266C93.3256 24.7247 93.3221 24.7235 93.3185 24.7229C93.3148 24.7224 93.3111 24.7226 93.3076 24.7235C93.304 24.7244 93.3007 24.7261 93.2978 24.7283C93.2948 24.7305 93.2924 24.7333 93.2905 24.7364C93.2886 24.7396 93.2874 24.7431 93.2869 24.7468C93.2864 24.7504 93.2866 24.7541 93.2875 24.7577C93.2884 24.7613 93.29 24.7646 93.2922 24.7676C93.5308 25.1766 93.8196 25.5539 94.1516 25.8906C94.3223 26.0489 94.5094 26.1882 94.7097 26.3061C94.9275 26.4193 95.1579 26.506 95.3961 26.5644C95.3961 26.5532 95.4296 26.5082 95.3905 26.4914Z" fill="#263238"/>
<path d="M95.664 24.8017C95.458 24.7297 95.2682 24.6171 95.106 24.4704C94.9218 24.3244 94.7432 24.1728 94.5479 24.01L94.0345 23.5608C93.8513 23.4191 93.7008 23.239 93.5936 23.033C93.5936 23.0049 93.5378 23.033 93.5434 23.033C93.6153 23.2539 93.7333 23.4568 93.8894 23.6282C94.0458 23.8302 94.2194 24.0181 94.4084 24.1897C94.5978 24.3537 94.7972 24.5056 95.0055 24.6445C95.1811 24.7803 95.3928 24.8604 95.6138 24.8747C95.6234 24.8814 95.6353 24.884 95.6468 24.8819C95.6583 24.8798 95.6685 24.8732 95.6752 24.8635C95.6818 24.8538 95.6844 24.8419 95.6823 24.8303C95.6802 24.8187 95.6736 24.8084 95.664 24.8017Z" fill="#263238"/>
<path d="M95.6528 22.747C95.4603 22.6418 95.274 22.5256 95.0948 22.3988C94.9218 22.2753 94.7488 22.1405 94.5813 22.0058C94.4139 21.871 94.2242 21.7194 94.0567 21.5678C94.0516 21.5619 94.0443 21.5582 94.0364 21.5577C94.0286 21.5572 94.0208 21.5598 94.0149 21.565C94.009 21.5702 94.0053 21.5776 94.0048 21.5855C94.0043 21.5934 94.0069 21.6012 94.0121 21.6071C94.1472 21.7908 94.2965 21.9636 94.4586 22.1237C94.6225 22.2785 94.7958 22.4229 94.9776 22.5561C95.1568 22.6861 95.3432 22.8061 95.5356 22.9154C95.7253 23.0341 95.9354 23.1159 96.1551 23.1569C96.1629 23.157 96.1706 23.1547 96.1771 23.1504C96.1836 23.1461 96.1887 23.1399 96.1917 23.1327C96.1947 23.1254 96.1955 23.1174 96.1939 23.1097C96.1924 23.102 96.1886 23.095 96.183 23.0895C96.0159 22.9609 95.8386 22.8464 95.6528 22.747Z" fill="#263238"/>
<path d="M98.0413 19.9279C97.8293 19.7651 97.6283 19.6079 97.4051 19.4675C97.1762 19.3252 96.9396 19.1959 96.6964 19.0801C96.2284 18.8408 95.7364 18.6526 95.2287 18.5186C95.2287 18.5186 95.1729 18.5579 95.2287 18.5691C96.1551 19.0408 97.1038 19.4787 98.019 19.956C98.0413 19.9897 98.0692 19.9504 98.0413 19.9279Z" fill="#263238"/>
<path d="M98.6775 18.2827C98.4674 18.1288 98.2409 17.9989 98.0023 17.8952C97.4924 17.6898 96.9605 17.5447 96.4174 17.4629V17.5134C96.9085 17.6931 97.3996 17.8616 97.8795 18.0749C98.1188 18.1724 98.3518 18.2849 98.5771 18.4118C98.8059 18.541 98.9956 18.715 99.2133 18.8498H99.2412C99.0956 18.6225 98.9034 18.4292 98.6775 18.2827Z" fill="#263238"/>
<path d="M99.8942 17.3115C99.6946 17.1564 99.4795 17.0228 99.2524 16.9128C98.8264 16.7007 98.3679 16.5621 97.8963 16.5029C97.8963 16.5029 97.8572 16.5479 97.8963 16.5591C98.353 16.706 98.7956 16.8939 99.2189 17.1206C99.431 17.2273 99.6374 17.3508 99.8439 17.4687C100.05 17.5866 100.24 17.7495 100.458 17.8449C100.458 17.8449 100.458 17.8449 100.458 17.8112C100.288 17.6252 100.099 17.4576 99.8942 17.3115Z" fill="#263238"/>
<path d="M100.653 16.2832C100.447 16.1821 100.24 16.0979 100.028 16.0137C99.8247 15.9207 99.6082 15.86 99.3863 15.834C99.3528 15.834 99.3528 15.8733 99.3863 15.8901C99.7881 16.0698 100.179 16.2663 100.575 16.4516C100.93 16.6446 101.263 16.8762 101.568 17.1423C101.568 17.1423 101.607 17.1423 101.596 17.1423C101.378 16.7644 101.049 16.4641 100.653 16.2832Z" fill="#263238"/>
<path d="M101.808 15.6882C101.421 15.4735 100.997 15.3344 100.558 15.2783C100.53 15.2783 100.519 15.3232 100.558 15.3345C100.97 15.4411 101.363 15.6096 101.725 15.8342C102.091 16.0537 102.431 16.3136 102.74 16.6091H102.774C102.527 16.2316 102.196 15.9165 101.808 15.6882Z" fill="#263238"/>
<path d="M103.583 16.0254C103.52 15.9502 103.453 15.8789 103.382 15.812C103.239 15.6769 103.082 15.5583 102.913 15.4582C102.559 15.2577 102.185 15.094 101.797 14.9697C101.764 14.9697 101.741 15.0146 101.797 15.0259C102.161 15.1581 102.51 15.3314 102.835 15.5425C102.996 15.6491 103.149 15.7673 103.293 15.8962L103.494 16.0871C103.548 16.1624 103.612 16.2303 103.683 16.2893C103.683 16.2893 103.734 16.2893 103.723 16.2556C103.691 16.1707 103.643 16.0926 103.583 16.0254Z" fill="#263238"/>
<path d="M104.582 15.8733C104.459 15.7666 104.331 15.6711 104.197 15.5757C104.062 15.4877 103.922 15.4071 103.778 15.3342C103.628 15.2612 103.477 15.1938 103.332 15.1152C103.298 15.1152 103.27 15.1489 103.332 15.1658C103.482 15.2389 103.626 15.3253 103.762 15.4241L104.147 15.688L104.532 15.9575C104.666 16.0473 104.788 16.1596 104.922 16.2326C104.922 16.2326 104.967 16.2326 104.95 16.1989C104.84 16.0764 104.717 15.9671 104.582 15.8733Z" fill="#263238"/>
<path d="M102.629 44.9933C102.629 44.9933 97.5502 36.436 91.2496 35.6162L91.8077 40.3722C91.8077 40.3722 95.5635 40.3722 102.193 46.369L102.629 44.9933Z" fill="#FFC727"/>
<path d="M90.1057 40.4673C91.2512 40.3669 92.4047 40.5163 93.4876 40.9052C94.5715 41.263 95.6108 41.7453 96.5849 42.3427C97.5701 42.9259 98.5154 43.575 99.4143 44.2855L100.731 45.4085L102.004 46.5764L102.149 46.7056L102.305 46.6213C103.477 46.008 104.607 45.3157 105.687 44.5494C106.23 44.1712 106.75 43.7606 107.244 43.3197C107.735 42.8761 109.772 40.9558 110.191 39.5576C109.454 40.9108 106.591 43.5555 105.492 44.2574C104.934 44.6055 104.376 44.9256 103.817 45.24C103.259 45.5545 102.668 45.8633 102.087 46.1441L102.389 46.1946L101.116 44.9874C100.676 44.6055 100.223 44.2293 99.777 43.8644C99.3306 43.4994 98.8395 43.1625 98.354 42.8312C97.8684 42.4999 97.3717 42.1911 96.8472 41.9272C95.8225 41.3491 94.7267 40.9093 93.5881 40.6189C93.3049 40.5426 93.018 40.4807 92.7286 40.4336C92.4384 40.3943 92.1706 40.355 91.858 40.3437C91.2713 40.281 90.6781 40.3228 90.1057 40.4673Z" fill="#263238"/>
<path d="M88.3589 43.4716C89.6272 42.5826 90.7835 41.5418 91.8022 40.3721C91.1653 40.8106 90.5593 41.2927 89.9884 41.8151C89.4094 42.3304 88.865 42.8837 88.3589 43.4716Z" fill="#263238"/>
<path d="M100.062 43.4768C99.7168 45.4589 99.5413 47.4671 99.537 49.4793C99.537 50.883 100.095 55.9029 101.674 55.7064C103.254 55.5098 100.653 52.2868 100.179 49.6365C99.7044 46.9862 100.385 45.0378 100.458 43.46L100.062 43.4768Z" fill="#FFC727"/>
<g opacity="0.1">
<path d="M100.062 43.4768C99.7168 45.4589 99.5413 47.4671 99.537 49.4793C99.537 50.883 100.095 55.9029 101.674 55.7064C103.254 55.5098 100.653 52.2868 100.179 49.6365C99.7044 46.9862 100.385 45.0378 100.458 43.46L100.062 43.4768Z" fill="#333333"/>
</g>
<path d="M105.564 43.6846C106.085 45.5977 106.493 47.5402 106.786 49.5018C106.976 50.7651 107.065 55.3526 105.67 55.3639C104.275 55.3751 106.156 52.1689 106.228 49.7488C106.301 47.3287 105.464 45.1445 105.196 43.7239L105.564 43.6846Z" fill="#FFC727"/>
<g opacity="0.1">
<path d="M105.564 43.6846C106.085 45.5977 106.493 47.5402 106.786 49.5018C106.976 50.7651 107.065 55.3526 105.67 55.3639C104.275 55.3751 106.156 52.1689 106.228 49.7488C106.301 47.3287 105.464 45.1445 105.196 43.7239L105.564 43.6846Z" fill="#333333"/>
</g>
<path d="M191.378 13.5491V27.2722H187.511V13.5491C187.511 8.33272 183.571 4.08775 178.727 4.08775C173.883 4.08775 169.943 8.33272 169.943 13.5491V21.5281H166.087V13.5491C166.098 6.07547 171.768 0 178.738 0C185.708 0 191.378 6.07547 191.378 13.5491Z" fill="#DBDBDB"/>
<path d="M191.378 18.1533V27.2721H187.522V17.9961L191.378 18.1533Z" fill="#A6A6A6"/>
<path d="M196.317 24.8408H161.159V50.9058H196.317V24.8408Z" fill="#FFC727"/>
<path opacity="0.1" d="M196.317 24.8408H178.738V50.9058H196.317V24.8408Z" fill="#333333"/>
<path d="M180.077 38.6816L181.417 45.0715H175.73L177.069 38.6816C176.544 38.3527 176.14 37.8608 175.918 37.2801C175.695 36.6995 175.667 36.0618 175.837 35.4635C176.007 34.8652 176.366 34.3388 176.859 33.9641C177.353 33.5894 177.955 33.3867 178.573 33.3867C179.192 33.3867 179.793 33.5894 180.287 33.9641C180.781 34.3388 181.14 34.8652 181.31 35.4635C181.48 36.0618 181.451 36.6995 181.229 37.2801C181.007 37.8608 180.602 38.3527 180.077 38.6816Z" fill="#263238"/>
<path d="M163.012 35.549C162.416 32.5058 162.29 29.3885 162.638 26.3066C164.558 26.3965 166.472 26.5088 168.391 26.7502C166.6 26.9748 164.803 27.0927 163.012 27.177L163.436 26.7502C163.508 27.4858 163.547 28.2158 163.559 28.9513C163.639 31.1652 163.451 33.3806 163.001 35.549H163.012Z" fill="white"/>
</svg>
