<svg width="31" height="34" viewBox="0 0 31 34" fill="none" xmlns="http://www.w3.org/2000/svg">
<path fill-rule="evenodd" clip-rule="evenodd" d="M14 0.875C14.2984 0.875 14.5845 0.993526 14.7955 1.2045C15.0065 1.41548 15.125 1.70163 15.125 2V18.4595L17.645 15.518C17.7411 15.4057 17.8584 15.3135 17.9902 15.2465C18.122 15.1796 18.2657 15.1392 18.413 15.1278C18.5604 15.1164 18.7086 15.1341 18.8491 15.18C18.9896 15.2258 19.1197 15.2989 19.232 15.395C19.3443 15.4911 19.4365 15.6084 19.5035 15.7402C19.5704 15.872 19.6108 16.0157 19.6222 16.163C19.6336 16.3104 19.6159 16.4586 19.57 16.5991C19.5242 16.7396 19.4511 16.8697 19.355 16.982L14.855 22.232C14.7494 22.3555 14.6183 22.4547 14.4707 22.5226C14.3231 22.5906 14.1625 22.6258 14 22.6258C13.8375 22.6258 13.6769 22.5906 13.5293 22.5226C13.3817 22.4547 13.2506 22.3555 13.145 22.232L8.645 16.982C8.54887 16.8697 8.4758 16.7396 8.42996 16.5991C8.38412 16.4586 8.3664 16.3104 8.37782 16.163C8.38924 16.0157 8.42958 15.872 8.49653 15.7402C8.56347 15.6084 8.65572 15.4911 8.768 15.395C8.88028 15.2989 9.0104 15.2258 9.15092 15.18C9.29143 15.1341 9.43961 15.1164 9.58697 15.1278C9.73434 15.1392 9.87801 15.1796 10.0098 15.2465C10.1416 15.3135 10.2589 15.4057 10.355 15.518L12.875 18.458V2C12.875 1.70163 12.9935 1.41548 13.2045 1.2045C13.4155 0.993526 13.7016 0.875 14 0.875ZM6.494 11.378C6.79237 11.3764 7.07915 11.4934 7.29125 11.7033C7.50336 11.9131 7.62341 12.1986 7.625 12.497C7.62659 12.7954 7.50959 13.0821 7.29974 13.2943C7.08988 13.5064 6.80437 13.6264 6.506 13.628C4.8665 13.637 3.704 13.679 2.8205 13.841C1.9715 13.9985 1.478 14.249 1.1135 14.6135C0.698 15.029 0.428 15.6125 0.2795 16.7135C0.128 17.846 0.125 19.3475 0.125 21.5V23C0.125 25.154 0.128 26.6555 0.2795 27.788C0.428 28.889 0.6995 29.471 1.1135 29.888C1.529 30.302 2.111 30.572 3.2135 30.7205C4.3445 30.8735 5.8475 30.875 8 30.875H20C22.1525 30.875 23.654 30.8735 24.788 30.7205C25.889 30.572 26.471 30.302 26.8865 29.8865C27.302 29.471 27.572 28.889 27.7205 27.788C27.872 26.6555 27.875 25.154 27.875 23V21.5C27.875 19.3475 27.872 17.846 27.7205 16.712C27.572 15.6125 27.3005 15.029 26.8865 14.6135C26.5205 14.249 26.0285 13.9985 25.1795 13.841C24.296 13.679 23.1335 13.637 21.494 13.628C21.3463 13.6272 21.2001 13.5973 21.0639 13.5401C20.9277 13.4828 20.8042 13.3993 20.7003 13.2943C20.5964 13.1892 20.5141 13.0648 20.4583 12.928C20.4025 12.7912 20.3742 12.6447 20.375 12.497C20.3758 12.3493 20.4057 12.2031 20.4629 12.0669C20.5202 11.9307 20.6037 11.8072 20.7087 11.7033C20.8138 11.5994 20.9382 11.5171 21.075 11.4613C21.2118 11.4055 21.3583 11.3772 21.506 11.378C23.129 11.387 24.4805 11.426 25.586 11.6285C26.723 11.8385 27.6905 12.236 28.478 13.0235C29.381 13.925 29.768 15.0635 29.951 16.4135C30.125 17.7125 30.125 19.367 30.125 21.4175V23.0825C30.125 25.1345 30.125 26.7875 29.951 28.088C29.768 29.438 29.381 30.575 28.478 31.478C27.575 32.381 26.438 32.768 25.088 32.951C23.7875 33.125 22.133 33.125 20.0825 33.125H7.9175C5.867 33.125 4.2125 33.125 2.912 32.951C1.562 32.7695 0.425 32.381 -0.478 31.478C-1.381 30.575 -1.768 29.438 -1.9495 28.088C-2.125 26.7875 -2.125 25.133 -2.125 23.0825V21.4175C-2.125 19.367 -2.125 17.7125 -1.9495 16.412C-1.7695 15.062 -1.3795 13.925 -0.478 13.022C0.3095 12.236 1.277 11.837 2.414 11.6285C3.5195 11.426 4.871 11.387 6.494 11.378Z" fill="#F0F0F0"/>
</svg>
