<svg width="32" height="22" viewBox="0 0 32 22" fill="none" xmlns="http://www.w3.org/2000/svg">
<path fill-rule="evenodd" clip-rule="evenodd" d="M31.1854 17.7699C30.9617 17.1983 30.5215 16.738 29.9604 16.4891V8.17873C30.0667 8.01145 30.1383 7.82455 30.1709 7.6291C30.1709 7.44878 30.122 7.27183 30.0294 7.11708C29.9369 6.96233 29.8041 6.83557 29.6452 6.75028L15.4355 0.0828477C15.3272 0.0283721 15.2077 0 15.0864 0C14.9652 0 14.8456 0.0283721 14.7373 0.0828477L0.527583 6.75028C0.359572 6.82397 0.218734 6.94824 0.124685 7.10577C0.0306347 7.26329 -0.0119444 7.44623 0.00288636 7.6291C0.00207547 7.8101 0.0599724 7.98648 0.167882 8.1318C0.275791 8.27712 0.427902 8.38353 0.601405 8.43509L5.4663 10.1937V16.7873C5.46544 16.9278 5.49651 17.0666 5.55717 17.1932C5.61782 17.3199 5.70649 17.4311 5.81644 17.5185C5.92888 17.6064 6.0626 17.663 6.204 17.6824C6.3454 17.7019 6.48944 17.6835 6.62145 17.6292C12.0562 15.5045 18.0917 15.5045 23.5264 17.6292L23.8417 17.7021C24.0208 17.6969 24.193 17.6323 24.3314 17.5185C24.4526 17.4395 24.5515 17.3309 24.6189 17.2029C24.6863 17.075 24.7199 16.9319 24.7165 16.7873V10.1528L28.2168 8.94383V16.4901C27.651 16.7514 27.2079 17.221 26.9797 17.8009C26.7515 18.3809 26.7558 19.0265 26.9918 19.6033C27.0972 19.8872 27.259 20.1467 27.4676 20.3662C27.6761 20.5857 27.9269 20.7606 28.205 20.8804C28.483 21.0002 28.7825 21.0624 29.0852 21.0633C29.388 21.0641 29.6877 21.0035 29.9664 20.8852C30.5313 20.6223 30.9731 20.1519 31.2001 19.5718C31.4272 18.9916 31.4219 18.3463 31.1854 17.7699Z" fill="#0071DC"/>
</svg>
