<svg width="36" height="36" viewBox="0 0 36 36" fill="none" xmlns="http://www.w3.org/2000/svg">
<g clip-path="url(#clip0_409_643)">
<path d="M-1 9C-1 6.7425 0.17 4.38 2 3C2 4.2675 3.035 6 5 6C6.19347 6 7.33807 6.47411 8.18198 7.31802C9.0259 8.16193 9.5 9.30653 9.5 10.5C9.5 11.079 9.3815 11.628 9.182 12.1365C10.2945 13.0197 11.3902 13.9238 12.4685 14.8485L9.3485 17.9685C8.4241 16.89 7.51995 15.7943 6.6365 14.682C6.11557 14.889 5.56054 14.9969 5 15C1.685 15 -1 12.315 -1 9ZM17.228 19.272L19.2395 17.2605C20.1711 17.7398 21.2024 17.9932 22.25 18C24.0402 18 25.7571 17.2888 27.023 16.023C28.2888 14.7571 29 13.0402 29 11.25C29 10.1625 28.718 9.1485 28.2605 8.2395L23 13.5L20 10.5L25.2605 5.2395C24.3289 4.76016 23.2976 4.50683 22.25 4.5C20.4598 4.5 18.7429 5.21116 17.477 6.47703C16.2112 7.7429 15.5 9.45979 15.5 11.25C15.5 12.3375 15.782 13.3515 16.2395 14.2605L0.5 30L3.5 33L13.772 22.728C16.5981 25.6255 19.5918 28.3546 22.7375 30.9015L24.875 32.625L27.125 30.375L25.4015 28.2375C22.8546 25.0918 20.1255 22.0981 17.228 19.272Z" fill="#F0F0F0"/>
</g>
<defs>
<clipPath id="clip0_409_643">
<rect width="36" height="36" fill="white"/>
</clipPath>
</defs>
</svg>
