<svg width="37" height="47" viewBox="0 0 37 47" fill="none" xmlns="http://www.w3.org/2000/svg">
<g clip-path="url(#clip0_407_105)">
<path d="M7.94617 29.8397C8.57098 29.2083 9.24734 28.6439 9.77531 27.9629C10.1044 27.5272 10.3045 27.004 10.3517 26.4555C10.4563 24.7258 10.4532 22.9881 10.4938 21.2536C10.5302 19.508 10.0404 17.7933 9.09114 16.3426C8.63503 15.6233 8.21797 14.8719 7.7025 14.2021C6.45288 12.5891 6.99021 10.4614 9.42073 9.85868C10.5594 9.57573 11.6076 9.82192 12.5823 10.5061C14.402 11.7978 15.6673 13.5707 16.7154 15.5274L17.0856 16.2164C17.2621 16.0453 17.4167 15.8966 17.5636 15.756C21.1552 12.0983 24.7447 8.43965 28.3322 4.7799C29.0398 4.05573 29.863 3.69604 30.8564 3.78876C32.0248 3.89747 32.8761 4.49535 33.2978 5.63036C33.7305 6.80054 33.515 7.8812 32.673 8.78602C31.7624 9.76916 30.8095 10.7043 29.8614 11.6635C29.6794 11.8254 29.4886 11.9764 29.2897 12.1159C30.8611 12.8401 31.5562 13.9607 31.3609 15.6329C33.201 16.0309 34.0164 17.2315 33.8899 19.1306C34.0461 19.1754 34.1913 19.2217 34.3397 19.2601C36.386 19.7892 37.2014 22.2975 35.7721 23.8961C34.749 25.0359 33.5853 26.0398 32.4918 27.1109C32.3428 27.2662 32.2108 27.4378 32.0982 27.6224C30.4188 30.1945 28.4652 32.5676 26.2734 34.6979C24.5161 36.434 22.3684 37.0351 19.9691 36.5363C19.3911 36.4164 19.0053 36.5139 18.6039 36.9679C18.0212 37.6297 17.3543 38.2132 16.6685 38.8862C17.0403 39.2523 17.3402 39.5257 17.6245 39.8278C18.1774 40.4049 18.1821 40.787 17.6245 41.3593C16.0875 42.9408 14.5447 44.5192 12.9962 46.0944C12.4589 46.6427 12.1262 46.6379 11.5685 46.0672C8.81206 43.2494 6.05977 40.4294 3.31164 37.6074C2.49783 36.7761 1.68245 35.948 0.873322 35.1119C0.395343 34.6196 0.381284 34.279 0.860826 33.7835C2.43847 32.155 4.02289 30.534 5.61407 28.9205C6.08268 28.4409 6.50755 28.4665 6.98709 28.9349C7.28231 29.2242 7.57441 29.5168 7.86807 29.8077C7.87276 29.8205 7.89619 29.8221 7.94617 29.8397ZM23.1244 22.1008C23.1088 22.2271 23.0978 22.3438 23.0806 22.4605C22.7432 24.6442 21.6639 26.3563 19.916 27.6304C19.4099 27.9997 18.9569 27.931 18.6898 27.5121C18.4227 27.0933 18.5695 26.6361 19.0491 26.2892C21.15 24.7721 21.9044 22.6779 21.4952 20.1329C21.289 18.8541 21.5717 17.8102 22.4949 16.8798C25.4393 13.916 28.3462 10.9106 31.2657 7.92756C31.4338 7.76377 31.5904 7.58802 31.7343 7.40162C32.3763 6.53038 31.9014 5.39377 30.8455 5.2451C30.2909 5.16836 29.8801 5.40496 29.499 5.80141C25.9095 9.48781 22.3168 13.1694 18.721 16.8462C18.3071 17.2698 17.9025 17.7015 17.4714 18.1139C16.9903 18.5807 16.4389 18.4848 16.1249 17.8917C16.05 17.7526 16.0047 17.5976 15.9375 17.4537C14.9175 15.2796 13.735 13.2318 11.7497 11.8042C10.9952 11.2495 10.1846 11.1312 9.33169 11.5308C8.62566 11.8506 8.47726 12.4101 8.90213 13.0799C9.39886 13.8664 9.90495 14.6465 10.4111 15.4282C11.5731 17.167 12.168 19.2374 12.1105 21.3431C12.0652 22.9769 12.0043 24.6123 12.0074 26.2476C12.023 26.8167 11.9186 27.3826 11.7013 27.9067C11.4841 28.4308 11.1591 28.9009 10.7484 29.285C10.1846 29.8285 9.61285 30.3625 9.12238 30.8261L15.7782 37.812C16.5592 37.0127 17.3543 36.2693 18.0572 35.4476C18.6023 34.8082 19.1412 34.6739 19.9488 34.8961C22.1028 35.4892 23.9882 34.9377 25.5361 33.2607C25.8564 32.9122 26.2063 32.5909 26.5108 32.2296C27.8433 30.6486 29.1663 29.0564 30.4425 27.5217C29.8692 27.0901 29.349 26.8215 28.996 26.4027C28.643 25.9839 28.4415 25.378 28.1588 24.8249C26.1641 24.721 25.7423 24.4044 24.8129 22.2959L23.1244 22.1008ZM2.54625 34.4261L12.3136 44.2799C13.5632 43.0778 14.8691 41.8293 16.0968 40.6511L6.267 30.5943L2.54625 34.4261ZM24.4146 20.6125C24.5833 20.539 24.9301 20.4862 25.1316 20.2832C26.6202 18.7981 28.0994 17.3002 29.5365 15.7639C30.0051 15.2556 29.9004 14.4739 29.4193 13.9799C28.9382 13.4859 28.1478 13.3788 27.6293 13.8888C26.1464 15.3531 24.6885 16.8451 23.2556 18.3649C22.862 18.7805 22.8541 19.3464 23.0884 19.8772C23.3228 20.4079 23.7648 20.5438 24.4115 20.6125H24.4146ZM27.9042 23.255C28.2275 23.0632 28.604 22.9273 28.8679 22.6699C29.9093 21.6511 30.9288 20.6088 31.9264 19.5431C32.1344 19.3121 32.2713 19.0235 32.32 18.7134C32.4059 18.1027 32.0982 17.6311 31.5968 17.3242C31.0954 17.0173 30.5346 17.1068 30.0441 17.5928C28.9367 18.6846 27.8573 19.802 26.7639 20.9243C26.3656 21.3399 26.3437 21.8547 26.564 22.363C26.8092 22.9241 27.2669 23.1431 27.901 23.255H27.9042ZM35.002 22.1232C34.9052 21.5349 34.5662 20.9658 34.1023 20.7756C33.8603 20.6619 33.5899 20.6276 33.3282 20.6774C33.0664 20.7272 32.8261 20.8587 32.6402 21.0537C31.8717 21.8163 31.1141 22.5932 30.3644 23.3749C29.7396 24.024 29.6989 24.8313 30.2394 25.3908C30.7799 25.9503 31.678 25.9215 32.2841 25.3188C33.0104 24.5963 33.7383 23.8801 34.4256 23.1128C34.6724 22.8378 34.8099 22.4557 34.9989 22.1232H35.002Z" fill="#EE4158"/>
<path d="M10.2814 2.91406C10.5137 3.03698 10.7348 3.18089 10.9421 3.34409C11.5185 3.9068 12.0824 4.4855 12.6385 5.07059C13.0852 5.54058 13.118 6.01217 12.7603 6.38784C12.4307 6.73474 12.0105 6.68039 11.5466 6.22798C10.9593 5.64769 10.3392 5.09297 9.80808 4.46951C9.71181 4.33246 9.64445 4.17641 9.6103 4.01128C9.57615 3.84615 9.57594 3.67556 9.6097 3.51034C9.6675 3.26416 10.0283 3.11389 10.2814 2.91406Z" fill="#EE4158"/>
<path d="M22.7339 2.9668C22.9135 3.11547 23.215 3.24495 23.2853 3.45597C23.3728 3.71654 23.3821 4.14497 23.2291 4.32402C22.5979 5.07595 21.9124 5.77813 21.1781 6.42459C20.986 6.58445 20.458 6.5333 20.1987 6.37983C20.117 6.33128 20.0469 6.26474 19.9934 6.18504C19.9399 6.10533 19.9044 6.01445 19.8894 5.91898C19.8745 5.8235 19.8805 5.72582 19.9069 5.633C19.9334 5.54018 19.9797 5.45455 20.0425 5.3823C20.7314 4.60697 21.478 3.8844 22.2153 3.15703C22.32 3.05792 22.5027 3.04673 22.7339 2.9668Z" fill="#EE4158"/>
<path d="M15.7157 2.63914C15.7157 2.2203 15.7063 1.80306 15.7157 1.38423C15.7313 0.861481 16.0406 0.509787 16.4717 0.500195C16.9029 0.490603 17.2402 0.835903 17.2527 1.35705C17.2668 2.23149 17.2684 3.11552 17.2527 3.98357C17.2434 4.5175 16.9278 4.83722 16.4717 4.82763C16.0156 4.81804 15.7345 4.49672 15.7188 3.95159C15.7063 3.51357 15.7157 3.07556 15.7157 2.63914Z" fill="#EE4158"/>
<path d="M12.5276 39.5832C12.6746 39.5779 12.8211 39.604 12.9577 39.6598C13.0943 39.7157 13.218 39.8001 13.3209 39.9077C13.4238 40.0153 13.5036 40.1436 13.5553 40.2846C13.607 40.4255 13.6294 40.5759 13.621 40.7262C13.6229 40.879 13.5947 41.0305 13.5382 41.1719C13.4816 41.3132 13.3979 41.4415 13.292 41.5491C13.1861 41.6567 13.0601 41.7415 12.9216 41.7983C12.783 41.8551 12.6347 41.8828 12.4855 41.8798C12.3363 41.8768 12.1892 41.8431 12.0529 41.7808C11.9167 41.7185 11.7941 41.6287 11.6924 41.517C11.5906 41.4052 11.5119 41.2736 11.4609 41.1301C11.4098 40.9866 11.3875 40.834 11.3952 40.6815C11.3938 40.5317 11.4226 40.3832 11.4798 40.2452C11.537 40.1073 11.6214 39.983 11.7277 39.8799C11.8339 39.7769 11.9598 39.6973 12.0974 39.6463C12.2351 39.5952 12.3815 39.5738 12.5276 39.5832Z" fill="#EE4158"/>
</g>
<defs>
<clipPath id="clip0_407_105">
<rect width="36" height="46" fill="white" transform="translate(0.5 0.5)"/>
</clipPath>
</defs>
</svg>
