<svg width="104" height="52" viewBox="0 0 104 52" fill="none" xmlns="http://www.w3.org/2000/svg">
<path d="M9.12 46.4C7.33333 46.4 5.68 46.0533 4.16 45.36C2.66667 44.6667 1.44 43.6667 0.48 42.36L3.44 38.8C4.21333 39.8667 5.05333 40.6667 5.96 41.2C6.89333 41.7333 7.90667 42 9 42C11.9067 42 13.36 40.28 13.36 36.84V22.36H3.4V18H18.56V36.56C18.56 39.8667 17.7467 42.3333 16.12 43.96C14.52 45.5867 12.1867 46.4 9.12 46.4ZM34.5338 46.4C32.3471 46.4 30.2538 46.0933 28.2538 45.48C26.2538 44.84 24.6671 44.0267 23.4938 43.04L25.2938 39C26.4138 39.88 27.8004 40.6133 29.4538 41.2C31.1071 41.7867 32.8004 42.08 34.5338 42.08C36.0004 42.08 37.1871 41.92 38.0938 41.6C39.0004 41.28 39.6671 40.8533 40.0938 40.32C40.5204 39.76 40.7338 39.1333 40.7338 38.44C40.7338 37.5867 40.4271 36.9067 39.8138 36.4C39.2004 35.8667 38.4004 35.4533 37.4138 35.16C36.4538 34.84 35.3738 34.5467 34.1738 34.28C33.0004 34.0133 31.8138 33.7067 30.6138 33.36C29.4404 32.9867 28.3604 32.52 27.3737 31.96C26.4138 31.3733 25.6271 30.6 25.0138 29.64C24.4004 28.68 24.0938 27.4533 24.0938 25.96C24.0938 24.44 24.4938 23.0533 25.2938 21.8C26.1204 20.52 27.3604 19.5067 29.0138 18.76C30.6938 17.9867 32.8138 17.6 35.3738 17.6C37.0538 17.6 38.7204 17.8133 40.3738 18.24C42.0271 18.6667 43.4671 19.28 44.6937 20.08L43.0538 24.12C41.8004 23.3733 40.5071 22.8267 39.1738 22.48C37.8404 22.1067 36.5604 21.92 35.3338 21.92C33.8938 21.92 32.7204 22.0933 31.8138 22.44C30.9338 22.7867 30.2804 23.24 29.8538 23.8C29.4538 24.36 29.2538 25 29.2538 25.72C29.2538 26.5733 29.5471 27.2667 30.1338 27.8C30.7471 28.3067 31.5338 28.7067 32.4938 29C33.4804 29.2933 34.5738 29.5867 35.7738 29.88C36.9738 30.1467 38.1604 30.4533 39.3338 30.8C40.5338 31.1467 41.6138 31.6 42.5738 32.16C43.5604 32.72 44.3471 33.48 44.9338 34.44C45.5471 35.4 45.8538 36.6133 45.8538 38.08C45.8538 39.5733 45.4404 40.96 44.6138 42.24C43.8138 43.4933 42.5738 44.5067 40.8938 45.28C39.2138 46.0267 37.0938 46.4 34.5338 46.4ZM51.01 46V18H63.25C66.29 18 68.9567 18.5867 71.25 19.76C73.5433 20.9333 75.33 22.56 76.61 24.64C77.89 26.72 78.53 29.1733 78.53 32C78.53 34.8 77.89 37.2533 76.61 39.36C75.33 41.44 73.5433 43.0667 71.25 44.24C68.9567 45.4133 66.29 46 63.25 46H51.01ZM56.21 41.6H63.01C65.1167 41.6 66.93 41.2 68.45 40.4C69.9967 39.6 71.1833 38.48 72.01 37.04C72.8633 35.6 73.29 33.92 73.29 32C73.29 30.0533 72.8633 28.3733 72.01 26.96C71.1833 25.52 69.9967 24.4 68.45 23.6C66.93 22.8 65.1167 22.4 63.01 22.4H56.21V41.6ZM89.3463 46V22.4H80.0663V18H103.826V22.4H94.5463V46H89.3463Z" fill="#161616"/>
<path fill-rule="evenodd" clip-rule="evenodd" d="M51.1854 17.7699C50.9617 17.1983 50.5215 16.738 49.9604 16.4891V8.17873C50.0667 8.01145 50.1383 7.82455 50.1709 7.6291C50.1709 7.44878 50.122 7.27183 50.0294 7.11708C49.9369 6.96233 49.8041 6.83557 49.6452 6.75028L35.4355 0.0828477C35.3272 0.0283721 35.2077 0 35.0864 0C34.9652 0 34.8456 0.0283721 34.7373 0.0828477L20.5276 6.75028C20.3596 6.82397 20.2187 6.94824 20.1247 7.10577C20.0306 7.26329 19.9881 7.44623 20.0029 7.6291C20.0021 7.8101 20.06 7.98648 20.1679 8.1318C20.2758 8.27712 20.4279 8.38353 20.6014 8.43509L25.4663 10.1937V16.7873C25.4654 16.9278 25.4965 17.0666 25.5572 17.1932C25.6178 17.3199 25.7065 17.4311 25.8164 17.5185C25.9289 17.6064 26.0626 17.663 26.204 17.6824C26.3454 17.7019 26.4894 17.6835 26.6214 17.6292C32.0562 15.5045 38.0917 15.5045 43.5264 17.6292L43.8417 17.7021C44.0208 17.6969 44.193 17.6323 44.3314 17.5185C44.4526 17.4395 44.5515 17.3309 44.6189 17.2029C44.6863 17.075 44.7199 16.9319 44.7165 16.7873V10.1528L48.2168 8.94383V16.4901C47.651 16.7514 47.2079 17.221 46.9797 17.8009C46.7515 18.3809 46.7558 19.0265 46.9918 19.6033C47.0972 19.8872 47.259 20.1467 47.4676 20.3662C47.6761 20.5857 47.9269 20.7606 48.205 20.8804C48.483 21.0002 48.7825 21.0624 49.0852 21.0633C49.388 21.0641 49.6877 21.0035 49.9664 20.8852C50.5313 20.6223 50.9731 20.1519 51.2001 19.5718C51.4272 18.9916 51.4219 18.3463 51.1854 17.7699Z" fill="#4A90E2"/>
</svg>
