<svg width="29" height="37" viewBox="0 0 29 37" fill="none" xmlns="http://www.w3.org/2000/svg">
<g clip-path="url(#clip0_407_193)">
<path d="M0.5 18.4653C0.5 13.4969 0.5 8.52788 0.5 3.55818C0.5 1.36985 1.81761 0.00683313 3.93476 0.00683313C9.41957 0.00551526 14.9053 0.00320898 20.3921 -8.57102e-05C20.5564 -0.00832867 20.7204 0.0204528 20.873 0.0842732C21.0255 0.148094 21.1629 0.245434 21.2755 0.369578C23.5667 2.75889 25.8645 5.13963 28.1689 7.5118C28.2772 7.61492 28.3629 7.74089 28.4201 7.88121C28.4774 8.02154 28.505 8.17296 28.501 8.32526C28.494 16.7346 28.4917 25.144 28.4943 33.5533C28.4943 35.5914 27.1414 36.9979 25.1778 36.9989C18.0602 36.9989 10.9426 36.9989 3.82504 36.9989C1.85864 36.9979 0.5 35.5914 0.5 33.5573C0.5 28.5263 0.5 23.4956 0.5 18.4653ZM20.1488 1.12571H3.86988C2.43873 1.12571 1.58004 2.01527 1.58004 3.49788C1.58004 13.4966 1.58004 23.496 1.58004 33.496C1.58004 34.9954 2.43873 35.881 3.89374 35.881H25.1034C26.5565 35.881 27.4171 34.9964 27.4171 33.496C27.4171 25.3588 27.4171 17.2209 27.4171 9.08238V8.65341H26.9887C25.8104 8.65341 24.6321 8.66033 23.4538 8.65341C21.5131 8.63859 20.1545 7.22714 20.1545 5.2187C20.1545 3.99802 20.1545 2.77734 20.1545 1.5616L20.1488 1.12571ZM26.4888 7.53849L21.2412 2.1072C21.2412 3.19444 21.2011 4.36966 21.2536 5.53499C21.2975 6.50956 21.9787 7.37441 22.8546 7.44756C24.0692 7.5464 25.2961 7.48907 26.5174 7.49796C26.5288 7.49796 26.5365 7.48017 26.4888 7.53849Z" fill="#EE4158"/>
<path d="M6.48413 20.2624C6.5118 20.1834 6.54806 20.0529 6.60244 19.9323C7.87457 17.0837 9.14989 14.2358 10.4284 11.3885C10.5467 11.1246 10.6955 10.9101 11.0008 10.9121C11.3062 10.9141 11.4474 11.1414 11.5638 11.4063C12.8359 14.2549 14.1112 17.1028 15.3897 19.9501C15.6263 20.4789 15.3973 20.9593 14.9289 20.8723C14.8257 20.8413 14.7296 20.7894 14.646 20.7194C14.5625 20.6495 14.4932 20.563 14.4423 20.4651C14.095 19.7643 13.7849 19.0437 13.4748 18.3242C13.4493 18.2382 13.3956 18.1641 13.3229 18.1148C13.2503 18.0656 13.1633 18.0442 13.077 18.0543C11.684 18.0662 10.2913 18.0662 8.89896 18.0543C8.81736 18.0428 8.73443 18.0613 8.66466 18.1066C8.5949 18.152 8.54274 18.2213 8.51732 18.3024C8.19102 19.0546 7.84945 19.7999 7.51265 20.5471C7.46625 20.6768 7.37314 20.7828 7.25287 20.8429C7.1326 20.903 6.99454 20.9125 6.86768 20.8693C6.60626 20.7982 6.48604 20.5965 6.48413 20.2624ZM10.9951 12.799C10.3549 14.2302 9.75479 15.5665 9.15275 16.9167H12.8404C12.223 15.5468 11.6267 14.2154 10.9951 12.799Z" fill="#EE4158"/>
<path d="M14.5396 24.6022H24.031C24.613 24.6022 24.8611 24.7732 24.8563 25.1696C24.8515 25.5659 24.6054 25.728 24.0176 25.729H4.82112C4.37269 25.7181 4.13417 25.5185 4.13798 25.1577C4.1418 24.7969 4.3746 24.6042 4.83352 24.6042C8.0692 24.6016 11.3046 24.6009 14.5396 24.6022Z" fill="#EE4158"/>
<path d="M13.3317 29.4345H21.6858C21.8045 29.4305 21.9233 29.4335 22.0417 29.4434C22.1628 29.4473 22.2779 29.4989 22.3637 29.5875C22.4495 29.6762 22.4994 29.7953 22.5035 29.9208C22.528 30.0505 22.5027 30.185 22.4331 30.2957C22.3634 30.4064 22.2549 30.4846 22.1304 30.5138C22.0038 30.546 21.8733 30.559 21.7431 30.5524C16.1266 30.5524 10.5098 30.5524 4.89271 30.5524C4.75065 30.5579 4.60872 30.5385 4.4729 30.495C4.21625 30.3962 4.06932 30.1679 4.15805 29.9148C4.22388 29.729 4.42043 29.5738 4.59216 29.4562C4.68757 29.393 4.84691 29.4365 4.9738 29.4365L13.3317 29.4345Z" fill="#EE4158"/>
<path d="M10.6374 7.57694C8.72281 7.57694 6.80857 7.57694 4.89464 7.57694C4.75343 7.57694 4.56738 7.60659 4.47961 7.5295C4.33268 7.39903 4.16189 7.19245 4.16285 7.01948C4.1638 6.84651 4.33935 6.6429 4.4901 6.52528C4.5941 6.44225 4.78587 6.464 4.93853 6.464C8.73076 6.464 12.5233 6.464 16.3162 6.464C16.3753 6.464 16.4354 6.464 16.4946 6.464C16.8944 6.4808 17.1463 6.71406 17.1319 7.05704C17.1176 7.40002 16.881 7.58682 16.487 7.58781C14.5368 7.5832 12.5869 7.57958 10.6374 7.57694Z" fill="#EE4158"/>
<path d="M19.832 15.3348H21.5751C21.7068 15.3348 21.8384 15.3269 21.9682 15.3348C22.3098 15.3694 22.5111 15.5849 22.5092 15.9022C22.5073 16.2195 22.3107 16.4389 21.9586 16.4498C21.4119 16.4666 20.8643 16.4567 20.3166 16.4587H19.832V17.3551C19.832 17.7624 19.8386 18.1696 19.832 18.5758C19.8234 19.0078 19.6144 19.2479 19.2748 19.241C18.9494 19.2331 18.7548 19.0028 18.7481 18.5857C18.7395 18.0312 18.7481 17.4757 18.7481 16.9212V16.4587H17.4124C17.1509 16.4587 16.8886 16.4666 16.6271 16.4527C16.2741 16.433 16.0738 16.2313 16.0661 15.9131C16.0585 15.5948 16.2703 15.3477 16.6329 15.3368C17.191 15.32 17.7511 15.3309 18.3102 15.3299H18.7481C18.7481 14.724 18.7481 14.1497 18.7481 13.5755C18.7481 13.4153 18.7414 13.2533 18.7567 13.0951C18.7882 12.7581 18.9866 12.5624 19.2833 12.5594C19.3524 12.5544 19.4217 12.5641 19.487 12.5881C19.5522 12.6121 19.612 12.6497 19.6626 12.6987C19.7132 12.7477 19.7535 12.8069 19.781 12.8727C19.8085 12.9386 19.8226 13.0095 19.8224 13.0813C19.8472 13.5488 19.8339 14.0183 19.8358 14.4868C19.8329 14.7586 19.832 15.0235 19.832 15.3348Z" fill="#EE4158"/>
</g>
<defs>
<clipPath id="clip0_407_193">
<rect width="28" height="37" fill="white" transform="translate(0.5)"/>
</clipPath>
</defs>
</svg>
