<svg width="36" height="35" viewBox="0 0 36 35" fill="none" xmlns="http://www.w3.org/2000/svg">
<path d="M6.99391 0H7.47226C7.77153 0.17662 8.05527 0.378308 8.32043 0.602894C11.3714 3.63746 14.415 6.67738 17.4513 9.72267C17.5438 9.81511 17.6402 9.90555 17.7749 10.0342C17.8854 9.90153 17.9759 9.78899 18.0623 9.69252C21.061 6.69011 24.0631 3.69038 27.0686 0.693328C27.3555 0.442176 27.6591 0.210548 27.977 0L28.5237 0C28.8568 0.227405 29.1757 0.475058 29.4784 0.741559C31.3074 2.55292 33.1283 4.37165 34.9413 6.19775C35.6809 6.9373 35.6789 7.55828 34.9312 8.30587L25.7782 17.4618C25.6838 17.5543 25.5953 17.6628 25.4707 17.7874C25.5873 17.8859 25.6898 17.9602 25.7782 18.0486C28.8319 21.0993 31.8836 24.1506 34.9332 27.2026C35.6869 27.9542 35.6889 28.5651 34.9453 29.3087L29.8 34.4514C29.0684 35.1809 28.4554 35.1789 27.7178 34.4514C24.6668 31.4007 21.6158 28.3487 18.5648 25.2954C18.4754 25.1917 18.3948 25.0808 18.3236 24.9638L18.1809 24.9538C18.1143 25.0725 18.037 25.1849 17.9498 25.2894C14.8921 28.3467 11.8344 31.4061 8.77667 34.4674C8.61412 34.6413 8.41641 34.7785 8.19669 34.8699C7.97698 34.9614 7.74031 35.0051 7.50241 34.998C5.66739 34.9819 3.83439 34.9739 2.00138 34.998C1.25772 35.008 0.753245 34.7408 0.5 34.0334V27.4739C0.710037 27.1561 0.941014 26.8526 1.1914 26.5655C4.19415 23.5497 7.20227 20.5393 10.2157 17.5342C10.3082 17.4397 10.3986 17.3332 10.5474 17.1865C10.4263 17.1058 10.3102 17.0179 10.1997 16.9232C7.16475 13.8927 4.13252 10.8581 1.10296 7.81953C0.878808 7.55405 0.677125 7.27038 0.5 6.97146L0.5 6.43087C0.73454 6.10252 0.98682 5.7872 1.25571 5.48633C2.87567 3.8478 4.50569 2.21999 6.14574 0.602894C6.41087 0.378262 6.69462 0.176571 6.99391 0ZM2.91185 32.5904H3.31383C4.4876 32.5904 5.66136 32.5904 6.83513 32.5904C6.96277 32.5971 7.0903 32.5753 7.20849 32.5267C7.32667 32.478 7.43256 32.4037 7.51849 32.3091C13.7598 26.0631 20.0038 19.8218 26.2505 13.5852C26.3369 13.5093 26.4305 13.442 26.5299 13.3842C25.0326 11.8891 23.5955 10.4522 22.1363 8.99719C22.0821 9.05948 22.0017 9.15595 21.9132 9.24437C15.767 15.3885 9.61814 21.53 3.46658 27.6688C3.26952 27.84 3.11474 28.0544 3.01432 28.2953C2.9139 28.5362 2.87058 28.797 2.88773 29.0575C2.93597 30.215 2.91185 31.3766 2.91185 32.5904ZM28.775 32.0177L32.5093 28.2817L30.4612 26.246C30.409 26.2962 30.3246 26.3706 30.2462 26.4469C29.7209 26.9695 29.1977 27.4933 28.6765 28.0185C28.5264 28.192 28.3304 28.3196 28.1111 28.3868C27.8917 28.454 27.6579 28.458 27.4364 28.3983C27.2319 28.3445 27.0455 28.2373 26.8961 28.0876C26.7468 27.938 26.64 27.7513 26.5866 27.5468C26.5332 27.3423 26.5352 27.1272 26.5923 26.9237C26.6495 26.7202 26.7597 26.5355 26.9118 26.3887C27.5248 25.7476 28.168 25.1367 28.7508 24.5579L26.6586 22.4618C25.8546 23.2657 25.0205 24.1137 24.1824 24.9498C23.6176 25.5104 22.8941 25.5527 22.3916 25.0442C21.8891 24.5358 21.9172 23.8223 22.476 23.2556C23.1332 22.5904 23.7945 21.9333 24.4577 21.2741C24.6406 21.0912 24.8336 20.9164 24.9883 20.7717L23.7824 19.5659L20.044 23.2898L28.775 32.0177ZM14.7701 10.4924C14.6757 10.5848 14.5832 10.6672 14.4968 10.7536C13.7652 11.5032 13.0095 12.2588 12.2578 13.0004C11.6749 13.5772 10.9534 13.6033 10.4489 13.0969C9.94441 12.5904 9.99265 11.873 10.5554 11.3063C11.149 10.7074 11.7446 10.1112 12.3422 9.51768C12.5894 9.27251 12.8427 9.03336 13.0597 8.82235L10.9514 6.72026C10.3705 7.30707 9.77357 7.92604 9.16659 8.52894C8.61387 9.07556 7.90841 9.1037 7.40393 8.61535C6.89945 8.12701 6.92156 7.38344 7.46824 6.82476C8.01493 6.26608 8.53951 5.75161 9.07012 5.22508C9.14448 5.14871 9.21684 5.06632 9.25301 5.02412L7.22706 2.99035L3.51482 6.70619C6.4211 9.61214 9.34346 12.5342 12.2236 15.422L15.9761 11.6821L14.7701 10.4924ZM28.2725 2.98031L23.9995 7.25482C25.4064 8.66157 26.8374 10.0904 28.2202 11.4751L32.4932 7.20257C31.1064 5.80989 29.6814 4.38505 28.2805 2.98031H28.2725Z" fill="#EE4158"/>
</svg>
