<svg width="37" height="37" viewBox="0 0 37 37" fill="none" xmlns="http://www.w3.org/2000/svg">
<g clip-path="url(#clip0_407_183)">
<path d="M19.4945 0.5C20.1648 0.594515 20.8412 0.662319 21.5052 0.787655C26.4456 1.72151 30.5389 4.01247 33.374 8.27387C34.9457 10.6367 35.8246 13.2647 36.2255 16.0539C36.3951 17.188 36.4865 18.3324 36.499 19.4791C36.5082 21.1084 36.0878 22.6761 35.5676 24.211C35.536 24.3058 35.486 24.3935 35.4204 24.469C35.3548 24.5445 35.275 24.6064 35.1855 24.6511C35.096 24.6958 34.9986 24.7224 34.8988 24.7295C34.799 24.7366 34.6988 24.7239 34.6039 24.6923C34.509 24.6606 34.4213 24.6106 34.3457 24.5451C34.2702 24.4796 34.2083 24.3998 34.1635 24.3104C34.1188 24.221 34.0922 24.1236 34.0851 24.0239C34.078 23.9241 34.0907 23.824 34.1223 23.7292C34.6922 21.9669 34.9761 20.1249 34.9632 18.273C34.8841 10.7734 29.5531 4.15527 22.2423 2.47557C13.5221 0.467125 4.88114 5.68292 2.56619 14.3475C0.828946 20.8516 3.41939 27.9875 8.91484 31.8698C12.0285 34.0693 15.4937 35.1203 19.2972 34.9354C23.3206 34.7391 26.8156 33.2423 29.77 30.489C29.8985 30.3699 30.0208 30.2425 30.1514 30.1254C30.5194 29.7946 30.9737 29.7853 31.2821 30.0986C31.3594 30.1723 31.4197 30.2619 31.459 30.3611C31.4982 30.4604 31.5155 30.567 31.5095 30.6735C31.5036 30.7801 31.4745 30.8841 31.4245 30.9783C31.3744 31.0726 31.3044 31.1549 31.2194 31.2195C30.3045 32.0033 29.4174 32.8375 28.4203 33.5043C24.8923 35.862 20.9789 36.8133 16.7612 36.4096C8.97446 35.6627 2.35032 29.6117 0.845393 21.9077C0.71587 21.243 0.655221 20.5649 0.559621 19.8941C0.547286 19.8027 0.520559 19.7112 0.5 19.6239V17.374C0.58018 16.7843 0.641858 16.1916 0.742597 15.605C1.3016 12.2311 2.8261 9.09114 5.13196 6.56438C7.91258 3.47928 11.3408 1.52117 15.4434 0.776354C16.0858 0.660265 16.7417 0.591433 17.3842 0.5H19.4945Z" fill="#EE4158"/>
<path d="M16.7561 25.0639C16.8588 21.834 18.0924 19.2481 20.9892 17.6013C22.0706 16.9849 22.8755 16.1291 23.1479 14.8809C23.4645 13.4498 23.0451 12.1955 22.1323 11.089C20.4073 8.99735 17.0593 8.63676 14.9705 10.3103C14.3352 10.824 13.9138 11.4609 13.775 12.2725C13.6527 12.9834 13.2847 13.492 12.5548 13.6461C11.4487 13.8803 10.5061 12.9208 10.7353 11.7845C11.311 8.93366 13.0996 7.1615 15.8401 6.42798C18.8212 5.63179 21.4394 6.55743 23.703 8.54224C25.0794 9.74937 25.9953 11.2657 26.3068 13.0872C26.718 15.5055 25.9316 17.5222 24.11 19.13C23.5974 19.5749 23.0416 19.9676 22.4509 20.3022C20.7918 21.2576 20.0003 22.7216 19.8399 24.5759C19.82 24.9033 19.8176 25.2315 19.8327 25.5591C19.8553 26.4672 19.1985 27.1925 18.3268 27.2121C17.4715 27.2316 16.7848 26.5577 16.753 25.6608C16.7499 25.4646 16.7561 25.2591 16.7561 25.0639Z" fill="#EE4158"/>
<path d="M19.9284 30.2283C19.9298 30.5324 19.8407 30.83 19.6724 31.0833C19.5041 31.3366 19.2642 31.5342 18.9832 31.6509C18.7023 31.7676 18.3929 31.7981 18.0945 31.7386C17.7962 31.6791 17.5222 31.5322 17.3076 31.3167C17.093 31.1012 16.9473 30.8267 16.8892 30.5283C16.8311 30.2298 16.8631 29.9208 16.9812 29.6406C17.0993 29.3603 17.2981 29.1215 17.5523 28.9545C17.8066 28.7875 18.1048 28.6999 18.409 28.7027C18.8122 28.7062 19.1976 28.8683 19.482 29.1539C19.7664 29.4394 19.9268 29.8254 19.9284 30.2283Z" fill="#EE4158"/>
<path d="M34.0802 27.7828C34.0841 27.8942 34.0656 28.0053 34.0256 28.1093C33.9857 28.2134 33.9252 28.3084 33.8477 28.3886C33.7702 28.4688 33.6774 28.5325 33.5747 28.5761C33.4721 28.6197 33.3617 28.6421 33.2501 28.6421C33.1386 28.6421 33.0282 28.6197 32.9256 28.5761C32.8229 28.5325 32.7301 28.4688 32.6526 28.3886C32.5751 28.3084 32.5146 28.2134 32.4747 28.1093C32.4347 28.0053 32.4161 27.8942 32.4201 27.7828C32.4276 27.5679 32.5184 27.3642 32.6733 27.2148C32.8281 27.0654 33.0349 26.9819 33.2501 26.9819C33.4654 26.9819 33.6722 27.0654 33.827 27.2148C33.9819 27.3642 34.0726 27.5679 34.0802 27.7828Z" fill="#EE4158"/>
</g>
<defs>
<clipPath id="clip0_407_183">
<rect width="36" height="36" fill="white" transform="translate(0.5 0.5)"/>
</clipPath>
</defs>
</svg>
