<svg width="29" height="30" viewBox="0 0 29 30" fill="none" xmlns="http://www.w3.org/2000/svg">
<path d="M13.64 0C22.1255 0 29 6.7155 29 15C29 23.2845 22.124 30 13.64 30C8.8535 30 4.427 27.8445 1.535 24.231C1.45393 24.1301 1.39397 24.0139 1.35869 23.8893C1.3234 23.7648 1.31351 23.6344 1.3296 23.506C1.3457 23.3775 1.38744 23.2536 1.45236 23.1416C1.51727 23.0296 1.60404 22.9318 1.7075 22.854C1.91847 22.6935 2.18365 22.6214 2.44684 22.6531C2.71004 22.6847 2.95058 22.8176 3.1175 23.0235C4.38264 24.5958 5.98564 25.8631 7.80752 26.7312C9.6294 27.5993 11.6234 28.0459 13.6415 28.038C21.014 28.038 26.9915 22.2 26.9915 15C26.9915 7.8 21.014 1.962 13.6415 1.962C11.6522 1.95425 9.68597 2.38819 7.88473 3.23253C6.08348 4.07686 4.49212 5.31053 3.2255 6.8445C3.05594 7.04857 2.81353 7.17853 2.54973 7.20682C2.28592 7.2351 2.02147 7.15948 1.8125 6.996C1.70994 6.91684 1.62435 6.81786 1.56082 6.70495C1.49729 6.59204 1.45712 6.4675 1.44271 6.33875C1.42829 6.21 1.43993 6.07966 1.47691 5.9555C1.5139 5.83133 1.57548 5.71588 1.658 5.616C4.5545 2.091 8.921 0 13.64 0ZM14.459 10.293L18.5195 14.3535C18.9125 14.7465 18.92 15.3735 18.536 15.7575L14.57 19.725C14.4769 19.8167 14.3665 19.889 14.2453 19.9378C14.1241 19.9867 13.9945 20.011 13.8638 20.0095C13.7332 20.0079 13.6041 19.9805 13.4841 19.9289C13.364 19.8772 13.2554 19.8023 13.1645 19.7085C13.0708 19.6175 12.996 19.5088 12.9445 19.3887C12.8929 19.2686 12.8657 19.1395 12.8643 19.0089C12.8629 18.8782 12.8874 18.7486 12.9363 18.6274C12.9853 18.5063 13.0577 18.396 13.1495 18.303L15.47 15.981L0.005 15.9825C-0.125637 15.9845 -0.255374 15.9606 -0.376732 15.9122C-0.498091 15.8638 -0.608669 15.7919 -0.702094 15.7005C-0.795519 15.6092 -0.869941 15.5003 -0.92107 15.38C-0.9722 15.2598 -0.999025 15.1306 -1 15C-1 14.4585 -0.55 14.019 0.005 14.019H15.407L13.07 11.6805C12.9763 11.5895 12.9015 11.4808 12.85 11.3607C12.7984 11.2406 12.7712 11.1115 12.7698 10.9809C12.7684 10.8502 12.7929 10.7206 12.8418 10.5994C12.8908 10.4783 12.9632 10.368 13.055 10.275C13.1481 10.1838 13.2582 10.1118 13.3791 10.0633C13.5001 10.0147 13.6294 9.99051 13.7597 9.99204C13.89 9.99357 14.0187 10.0208 14.1384 10.0722C14.2582 10.1236 14.3666 10.1981 14.4575 10.2915" fill="#F0F0F0"/>
</svg>
