<svg width="281" height="151" viewBox="0 0 281 151" fill="none" xmlns="http://www.w3.org/2000/svg">
<path d="M225.963 133.253C224.088 126.608 215.449 127.253 215.449 127.253L215.686 131.876C220.678 131.016 223.781 136.866 223.781 136.866L225.963 133.253Z" fill="#4A90E2"/>
<path d="M42.7283 147.188C40.8532 140.543 32.2148 141.188 32.2148 141.188L32.4517 145.81C37.4438 144.95 40.5463 150.8 40.5463 150.8L42.7283 147.188Z" fill="#E0E0E0"/>
<path d="M143.653 55.2637C153.671 58.2986 159.906 46.7437 159.906 46.7437L153.812 43.2715C150.832 50.3489 140.826 49.5298 140.826 49.5298L143.653 55.2637Z" fill="#E0E0E0"/>
<path d="M88.0552 67.7009C83.3917 68.1963 82.8359 74.0486 82.8359 74.0486L85.9554 74.4183C85.9506 70.9775 90.2226 69.5712 90.2226 69.5712L88.0552 67.7009Z" fill="#4A90E2"/>
<path d="M280.24 110.504C280.916 105.864 275.385 103.873 275.385 103.873L274.252 106.804C277.586 107.652 277.889 112.14 277.889 112.14L280.24 110.504Z" fill="#E0E0E0"/>
<path d="M115.255 6.63037C115.932 1.99102 110.401 0 110.401 0L109.268 2.931C112.602 3.77913 112.904 8.26623 112.904 8.26623L115.255 6.63037Z" fill="#4A90E2"/>
<path d="M0.0517068 81.4663C-0.786758 88.7395 8.84957 90.501 8.84957 90.501L10.5893 85.7408C4.80706 85.2189 3.97341 78.4072 3.97341 78.4072L0.0517068 81.4663Z" fill="#4A90E2"/>
<path d="M214.521 55.1066C219.202 55.3748 220.7 49.6867 220.7 49.6867L217.682 48.8145C217.129 52.2094 212.688 52.9053 212.688 52.9053L214.521 55.1066Z" fill="#4A90E2"/>
<path d="M240.095 74.1931C240.095 74.4009 238.365 74.57 236.231 74.57C234.095 74.57 232.365 74.4009 232.365 74.1931C232.365 73.9853 234.095 73.8162 236.231 73.8162C238.365 73.8162 240.095 73.9853 240.095 74.1931Z" fill="#E0E0E0"/>
<path d="M244.201 63.6797C244.409 63.6797 244.578 65.4364 244.578 67.6014C244.578 69.7664 244.409 71.5231 244.201 71.5231C243.993 71.5231 243.824 69.7664 243.824 67.6014C243.824 65.4364 243.991 63.6797 244.201 63.6797Z" fill="#E0E0E0"/>
<path d="M248.576 73.9421C248.576 73.7343 250.306 73.5652 252.44 73.5652C254.576 73.5652 256.306 73.7343 256.306 73.9421C256.306 74.15 254.576 74.3191 252.44 74.3191C250.306 74.3191 248.576 74.15 248.576 73.9421Z" fill="#E0E0E0"/>
<path d="M244.467 84.4557C244.259 84.4557 244.09 82.699 244.09 80.534C244.09 78.369 244.259 76.6123 244.467 76.6123C244.675 76.6123 244.844 78.369 244.844 80.534C244.844 82.7015 244.675 84.4557 244.467 84.4557Z" fill="#E0E0E0"/>
<path d="M250.718 79.9467C250.558 80.0796 249.811 79.4513 249.053 78.5428C248.294 77.6343 247.808 76.7886 247.968 76.6557C248.127 76.5228 248.872 77.151 249.633 78.0595C250.391 78.9681 250.877 79.8138 250.718 79.9467Z" fill="#E0E0E0"/>
<path d="M250.355 68.0224C250.502 68.1698 249.985 68.9333 249.197 69.7283C248.41 70.5233 247.651 71.0476 247.504 70.9026C247.356 70.7552 247.873 69.9917 248.661 69.1967C249.449 68.4017 250.207 67.8774 250.355 68.0224Z" fill="#E0E0E0"/>
<path d="M241.495 71.0616C241.362 71.2211 240.645 70.8465 239.896 70.2207C239.144 69.5973 238.646 68.9594 238.779 68.7999C238.912 68.6404 239.63 69.015 240.379 69.6408C241.128 70.2642 241.628 70.8997 241.495 71.0616Z" fill="#E0E0E0"/>
<path d="M241.151 76.3149C241.306 76.4551 240.849 77.2066 240.136 77.9894C239.421 78.7747 238.716 79.2966 238.563 79.1565C238.409 79.0163 238.865 78.2673 239.581 77.482C240.291 76.6991 240.997 76.1748 241.151 76.3149Z" fill="#E0E0E0"/>
<path d="M29.6009 52.6538C29.6009 52.8616 27.8708 53.0307 25.7372 53.0307C23.6012 53.0307 21.8711 52.8616 21.8711 52.6538C21.8711 52.446 23.6012 52.2769 25.7372 52.2769C27.8684 52.2769 29.6009 52.446 29.6009 52.6538Z" fill="#4A90E2"/>
<path d="M33.6992 42.1404C33.907 42.1404 34.0762 43.8971 34.0762 46.0621C34.0762 48.2271 33.907 49.9838 33.6992 49.9838C33.4914 49.9838 33.3223 48.2271 33.3223 46.0621C33.3223 43.8971 33.4914 42.1404 33.6992 42.1404Z" fill="#4A90E2"/>
<path d="M38.0781 52.4028C38.0781 52.195 39.8082 52.0259 41.9418 52.0259C44.0779 52.0259 45.808 52.195 45.808 52.4028C45.808 52.6106 44.0779 52.7798 41.9418 52.7798C39.8082 52.7798 38.0781 52.6106 38.0781 52.4028Z" fill="#4A90E2"/>
<path d="M33.9727 62.9159C33.7649 62.9159 33.5957 61.1592 33.5957 58.9942C33.5957 56.8292 33.7649 55.0725 33.9727 55.0725C34.1805 55.0725 34.3496 56.8292 34.3496 58.9942C34.3496 61.1617 34.1805 62.9159 33.9727 62.9159Z" fill="#4A90E2"/>
<path d="M40.2152 58.4074C40.0557 58.5403 39.309 57.912 38.5527 57.0035C37.794 56.095 37.3083 55.2493 37.4678 55.1164C37.6273 54.9835 38.3715 55.6117 39.1302 56.5202C39.8914 57.4288 40.3746 58.2745 40.2152 58.4074Z" fill="#4A90E2"/>
<path d="M39.8553 46.4853C40.0027 46.6327 39.4856 47.3962 38.6979 48.1912C37.9102 48.9862 37.1515 49.5105 37.0016 49.3655C36.8543 49.2181 37.3713 48.4546 38.1615 47.6596C38.9468 46.8622 39.7055 46.3379 39.8553 46.4853Z" fill="#4A90E2"/>
<path d="M30.9972 49.5223C30.8643 49.6818 30.1466 49.3072 29.3976 48.6814C28.6461 48.058 28.1483 47.4201 28.2812 47.2606C28.4141 47.1011 29.1318 47.4757 29.8808 48.1015C30.6299 48.7249 31.1325 49.3604 30.9972 49.5223Z" fill="#4A90E2"/>
<path d="M30.6479 54.7756C30.8025 54.9157 30.3482 55.6672 29.6306 56.4501C28.9153 57.2354 28.2098 57.7573 28.0575 57.6172C27.9029 57.477 28.3572 56.728 29.0748 55.9427C29.7901 55.1598 30.4956 54.6355 30.6479 54.7756Z" fill="#4A90E2"/>
<path d="M140.262 150.524C175.2 150.524 203.524 122.2 203.524 87.2618C203.524 52.3233 175.2 24 140.262 24C105.323 24 77 52.3233 77 87.2618C77 122.2 105.323 150.524 140.262 150.524Z" fill="#4A90E2"/>
<path d="M171.418 60.5714C172.227 61.2287 160.409 77.1233 145.027 96.0673C141.748 100.047 138.602 103.862 135.709 107.371L134.436 108.917L133.068 107.509C121.057 95.1297 112.853 85.938 113.433 85.3557C114.016 84.7758 123.207 92.9792 135.586 104.991L132.945 105.128C135.787 101.576 138.875 97.7176 142.096 93.6896C157.478 74.7432 170.608 59.9166 171.418 60.5714Z" fill="white"/>
</svg>
