<svg width="31" height="34" viewBox="0 0 31 34" fill="none" xmlns="http://www.w3.org/2000/svg">
<path fill-rule="evenodd" clip-rule="evenodd" d="M14 0.875C14.1624 0.874897 14.323 0.909971 14.4706 0.977812C14.6182 1.04565 14.7493 1.14465 14.855 1.268L19.355 6.518C19.5491 6.74476 19.6452 7.03935 19.6222 7.33697C19.5991 7.63459 19.4588 7.91086 19.232 8.105C19.0052 8.29914 18.7106 8.39525 18.413 8.37218C18.1154 8.34911 17.8391 8.20876 17.645 7.982L15.125 5.042V21.5C15.125 21.7984 15.0065 22.0845 14.7955 22.2955C14.5845 22.5065 14.2984 22.625 14 22.625C13.7016 22.625 13.4155 22.5065 13.2045 22.2955C12.9935 22.0845 12.875 21.7984 12.875 21.5V5.0405L10.355 7.982C10.2589 8.09428 10.1416 8.18653 10.0098 8.25347C9.87801 8.32042 9.73434 8.36076 9.58697 8.37218C9.43961 8.3836 9.29143 8.36588 9.15092 8.32004C9.0104 8.2742 8.88028 8.20113 8.768 8.105C8.65572 8.00887 8.56347 7.89157 8.49653 7.75979C8.42958 7.62801 8.38924 7.48434 8.37782 7.33697C8.3664 7.18961 8.38412 7.04143 8.42996 6.90091C8.4758 6.76039 8.54887 6.63028 8.645 6.518L13.145 1.268C13.2507 1.14465 13.3818 1.04565 13.5294 0.977812C13.677 0.909971 13.8376 0.874897 14 0.875ZM6.494 11.378C6.79237 11.3764 7.07915 11.4934 7.29125 11.7033C7.50336 11.9131 7.62341 12.1986 7.625 12.497C7.62659 12.7954 7.50959 13.0821 7.29974 13.2943C7.08988 13.5064 6.80437 13.6264 6.506 13.628C4.8665 13.637 3.704 13.679 2.8205 13.841C1.9715 13.9985 1.478 14.249 1.1135 14.6135C0.698 15.029 0.428 15.6125 0.2795 16.7135C0.128 17.846 0.125 19.3475 0.125 21.5V23C0.125 25.154 0.128 26.6555 0.2795 27.788C0.428 28.889 0.6995 29.471 1.1135 29.888C1.529 30.302 2.111 30.572 3.2135 30.7205C4.3445 30.8735 5.8475 30.875 8 30.875H20C22.1525 30.875 23.654 30.8735 24.788 30.7205C25.889 30.572 26.471 30.302 26.8865 29.8865C27.302 29.471 27.572 28.889 27.7205 27.788C27.872 26.6555 27.875 25.154 27.875 23V21.5C27.875 19.3475 27.872 17.846 27.7205 16.712C27.572 15.6125 27.3005 15.029 26.8865 14.6135C26.5205 14.249 26.0285 13.9985 25.1795 13.841C24.296 13.679 23.1335 13.637 21.494 13.628C21.3463 13.6272 21.2001 13.5973 21.0639 13.5401C20.9277 13.4828 20.8042 13.3993 20.7003 13.2943C20.5964 13.1892 20.5141 13.0648 20.4583 12.928C20.4025 12.7912 20.3742 12.6447 20.375 12.497C20.3758 12.3493 20.4057 12.2031 20.4629 12.0669C20.5202 11.9307 20.6037 11.8072 20.7087 11.7033C20.8138 11.5994 20.9382 11.5171 21.075 11.4613C21.2118 11.4055 21.3583 11.3772 21.506 11.378C23.129 11.387 24.4805 11.426 25.586 11.6285C26.723 11.8385 27.6905 12.236 28.478 13.0235C29.381 13.925 29.768 15.0635 29.951 16.4135C30.125 17.7125 30.125 19.367 30.125 21.4175V23.0825C30.125 25.1345 30.125 26.7875 29.951 28.088C29.768 29.438 29.381 30.575 28.478 31.478C27.575 32.381 26.438 32.768 25.088 32.951C23.7875 33.125 22.133 33.125 20.0825 33.125H7.9175C5.867 33.125 4.2125 33.125 2.912 32.951C1.562 32.7695 0.425 32.381 -0.478 31.478C-1.381 30.575 -1.768 29.438 -1.9495 28.088C-2.125 26.7875 -2.125 25.133 -2.125 23.0825V21.4175C-2.125 19.367 -2.125 17.7125 -1.9495 16.412C-1.7695 15.062 -1.3795 13.925 -0.478 13.022C0.3095 12.236 1.277 11.837 2.414 11.6285C3.5195 11.426 4.871 11.387 6.494 11.378Z" fill="#F0F0F0"/>
</svg>
