<svg width="34" height="34" viewBox="0 0 34 34" fill="none" xmlns="http://www.w3.org/2000/svg">
<path fill-rule="evenodd" clip-rule="evenodd" d="M17 0.875C17.1624 0.874897 17.323 0.909971 17.4706 0.977812C17.6182 1.04565 17.7493 1.14465 17.855 1.268L22.355 6.518C22.5491 6.74476 22.6452 7.03935 22.6222 7.33697C22.5991 7.63459 22.4588 7.91086 22.232 8.105C22.0052 8.29914 21.7106 8.39525 21.413 8.37218C21.1154 8.34911 20.8391 8.20876 20.645 7.982L18.125 5.042V21.5C18.125 21.7984 18.0065 22.0845 17.7955 22.2955C17.5845 22.5065 17.2984 22.625 17 22.625C16.7016 22.625 16.4155 22.5065 16.2045 22.2955C15.9935 22.0845 15.875 21.7984 15.875 21.5V5.0405L13.355 7.982C13.2589 8.09428 13.1416 8.18653 13.0098 8.25347C12.878 8.32042 12.7343 8.36076 12.587 8.37218C12.4396 8.3836 12.2914 8.36588 12.1509 8.32004C12.0104 8.2742 11.8803 8.20113 11.768 8.105C11.6557 8.00887 11.5635 7.89157 11.4965 7.75979C11.4296 7.62801 11.3892 7.48434 11.3778 7.33697C11.3664 7.18961 11.3841 7.04143 11.43 6.90091C11.4758 6.7604 11.5489 6.63028 11.645 6.518L16.145 1.268C16.2507 1.14465 16.3818 1.04565 16.5294 0.977812C16.677 0.909971 16.8376 0.874897 17 0.875ZM9.494 11.378C9.79237 11.3764 10.0791 11.4934 10.2913 11.7033C10.5034 11.9131 10.6234 12.1986 10.625 12.497C10.6266 12.7954 10.5096 13.0821 10.2997 13.2943C10.0899 13.5064 9.80437 13.6264 9.506 13.628C7.8665 13.637 6.704 13.679 5.8205 13.841C4.9715 13.9985 4.478 14.249 4.1135 14.6135C3.698 15.029 3.428 15.6125 3.2795 16.7135C3.128 17.846 3.125 19.3475 3.125 21.5V23C3.125 25.154 3.128 26.6555 3.2795 27.788C3.428 28.889 3.6995 29.471 4.1135 29.888C4.529 30.302 5.111 30.572 6.2135 30.7205C7.3445 30.8735 8.8475 30.875 11 30.875H23C25.1525 30.875 26.654 30.8735 27.788 30.7205C28.889 30.572 29.471 30.302 29.8865 29.8865C30.302 29.471 30.572 28.889 30.7205 27.788C30.872 26.6555 30.875 25.154 30.875 23V21.5C30.875 19.3475 30.872 17.846 30.7205 16.712C30.572 15.6125 30.3005 15.029 29.8865 14.6135C29.5205 14.249 29.0285 13.9985 28.1795 13.841C27.296 13.679 26.1335 13.637 24.494 13.628C24.3463 13.6272 24.2001 13.5973 24.0639 13.5401C23.9277 13.4828 23.8042 13.3993 23.7003 13.2943C23.5964 13.1892 23.5141 13.0648 23.4583 12.928C23.4025 12.7912 23.3742 12.6447 23.375 12.497C23.3758 12.3493 23.4057 12.2031 23.4629 12.0669C23.5202 11.9307 23.6037 11.8072 23.7087 11.7033C23.8138 11.5994 23.9382 11.5171 24.075 11.4613C24.2118 11.4055 24.3583 11.3772 24.506 11.378C26.129 11.387 27.4805 11.426 28.586 11.6285C29.723 11.8385 30.6905 12.236 31.478 13.0235C32.381 13.925 32.768 15.0635 32.951 16.4135C33.125 17.7125 33.125 19.367 33.125 21.4175V23.0825C33.125 25.1345 33.125 26.7875 32.951 28.088C32.768 29.438 32.381 30.575 31.478 31.478C30.575 32.381 29.438 32.768 28.088 32.951C26.7875 33.125 25.133 33.125 23.0825 33.125H10.9175C8.867 33.125 7.2125 33.125 5.912 32.951C4.562 32.7695 3.425 32.381 2.522 31.478C1.619 30.575 1.232 29.438 1.0505 28.088C0.875 26.7875 0.875 25.133 0.875 23.0825V21.4175C0.875 19.367 0.875 17.7125 1.0505 16.412C1.2305 15.062 1.6205 13.925 2.522 13.022C3.3095 12.236 4.277 11.837 5.414 11.6285C6.5195 11.426 7.871 11.387 9.494 11.378Z" fill="#F0F0F0"/>
</svg>
